<svg width="102" height="52" viewBox="0 0 102 52" fill="none" xmlns="http://www.w3.org/2000/svg">
<g id="Group">
<g id="Group_2">
<g id="Group_3">
<path id="Vector" d="M101.063 3.31179L46.0121 0L0 30.3419L0.34945 31.64L4.51042 30.5253L54.7519 32.557L97.2478 5.72462L101.409 4.6099L101.063 3.31179Z" fill="#1B1B1B"/>
<g id="Group_4">
<path id="Vector_2" d="M46.3607 1.29468L0.348633 31.6402L55.1005 33.8553L101.408 4.61007L46.3607 1.29468Z" fill="#1C3062"/>
<path id="Vector_3" d="M46.3608 1.29443L55.1007 33.855L101.408 4.60982L46.3608 1.29443Z" fill="#2C3D68"/>
</g>
</g>
<g id="Group_5">
<g id="Group_6">
<path id="Vector_4" d="M55.5729 35.6136L56.6429 39.605C56.6429 39.605 44.7904 37.354 29.9838 42.8629L29.6704 38.5946C44.1203 33.4381 55.5729 35.6136 55.5729 35.6136Z" fill="#E2B440"/>
<path id="Vector_5" d="M79.4981 25.2724C64.4033 28.0196 55.5734 35.6177 55.5734 35.6177C55.5734 35.6177 44.1208 33.4422 29.6709 38.5987L28.8892 27.8974C28.8892 27.8974 32.0846 16.4157 50.4361 16.4805C66.2947 7.26786 74.8147 15.6139 74.8147 15.6139L79.4981 25.2724Z" fill="#1C3062"/>
<path id="Vector_6" d="M81.368 29.1233C65.7832 31.7411 56.6471 39.6053 56.6471 39.6053L55.5771 35.6139C55.5771 35.6139 64.4034 28.0158 79.5018 25.2686L81.3716 29.1197L81.368 29.1233Z" fill="#D3A02D"/>
<path id="Vector_7" d="M79.497 25.2721C64.4022 28.0194 55.5723 35.6174 55.5723 35.6174L50.4351 16.4802C66.2936 7.26761 74.8137 15.6136 74.8137 15.6136L79.497 25.2721Z" fill="#2C3D68"/>
</g>
<path id="Vector_8" d="M49.6566 13.5711C36.9755 16.962 27.1549 21.4209 27.7205 23.5281L28.8914 27.8934C28.3258 25.7863 38.1464 21.3274 50.8274 17.9365C63.5085 14.5456 74.2477 13.5028 74.8133 15.61L73.6425 11.2446C73.0769 9.1374 62.3376 10.1766 49.6566 13.5711Z" fill="#1B1B1B"/>
</g>
</g>
<g id="Group_7">
<g id="Group_8">
<path id="Vector_9" d="M17.7387 51.9998C17.5874 51.9998 17.4649 51.8812 17.4649 51.7337L17.3784 42.629C17.3784 42.478 17.4973 42.3557 17.645 42.3557C17.7963 42.3557 17.9188 42.4744 17.9188 42.6218L18.0053 51.7265C18.0053 51.8776 17.8864 51.9998 17.7387 51.9998Z" fill="#D3A02D"/>
<path id="Vector_10" d="M16.8544 51.742C16.7067 51.742 16.5842 51.627 16.5806 51.4795C16.5265 49.0991 16.5518 46.6899 16.6634 44.3166C16.6778 44.0109 16.6959 43.6262 16.8003 43.2774C16.9264 42.8495 17.1714 42.5366 17.4668 42.4144C17.6037 42.3604 17.7622 42.4252 17.8199 42.5618C17.8775 42.6984 17.8091 42.8567 17.6722 42.9142C17.5353 42.9681 17.3948 43.1731 17.3191 43.4284C17.2326 43.7161 17.2182 44.0469 17.2038 44.3382C17.0921 46.7006 17.0633 49.0991 17.121 51.4652C17.121 51.6162 17.0057 51.7384 16.858 51.742C16.858 51.742 16.858 51.742 16.8544 51.742Z" fill="#E2B440"/>
<path id="Vector_11" d="M15.7629 51.5371C15.7629 51.5371 15.7377 51.5371 15.7269 51.5371C15.5792 51.5192 15.4747 51.3825 15.4927 51.2351C15.6044 50.3541 15.5936 49.4336 15.5828 48.5418V48.1139C15.5684 47.125 15.5828 45.9779 15.8314 44.9171C16.1124 43.7305 16.6816 42.8172 17.3877 42.4144C17.5174 42.3389 17.6831 42.3857 17.7588 42.5151C17.8344 42.6446 17.7876 42.81 17.6579 42.8855C17.0887 43.2127 16.6023 44.0182 16.3574 45.0466C16.1196 46.0498 16.1088 47.1538 16.116 48.1139V48.5418C16.134 49.4515 16.1448 50.3937 16.0295 51.3106C16.0115 51.4472 15.8962 51.5443 15.7629 51.5479V51.5371Z" fill="#D3A02D"/>
<path id="Vector_12" d="M14.9241 50.2172C14.7764 50.2172 14.6539 50.0985 14.6503 49.9511C14.6323 48.9334 14.6143 47.8834 14.7224 46.855C14.8449 45.6756 15.1223 44.6939 15.5474 43.928C16.077 42.9751 16.8335 42.3926 17.6225 42.3242C17.7702 42.3134 17.9035 42.4213 17.9143 42.5723C17.9251 42.7198 17.817 42.8528 17.6657 42.8636C17.0677 42.914 16.4516 43.4102 16.0193 44.1905C15.6302 44.8917 15.3745 45.805 15.2592 46.9126C15.1547 47.9086 15.1727 48.9442 15.1907 49.9439C15.1907 50.0949 15.0754 50.2172 14.9241 50.2208V50.2172Z" fill="#E2B440"/>
<path id="Vector_13" d="M18.6051 51.7242C18.6051 51.7242 18.6051 51.7242 18.6015 51.7242C18.4502 51.7242 18.3313 51.6019 18.3313 51.4509C18.3421 49.0812 18.2665 46.6864 18.1116 44.3275C18.0936 44.0362 18.0719 43.7018 17.9819 43.4213C17.9026 43.166 17.7585 42.9682 17.6216 42.9143C17.4811 42.8604 17.4127 42.7057 17.4667 42.5655C17.5207 42.4253 17.6757 42.3569 17.8162 42.4109C18.1152 42.526 18.3637 42.8352 18.5006 43.2595C18.6087 43.6047 18.6339 43.9715 18.6556 44.2951C18.8105 46.6648 18.8861 49.074 18.8753 51.4581C18.8753 51.6055 18.7564 51.7242 18.6087 51.7278L18.6051 51.7242Z" fill="#E2B440"/>
<path id="Vector_14" d="M19.6949 51.4967C19.5616 51.4967 19.4463 51.3996 19.4247 51.2665C19.2878 50.3532 19.2842 49.4111 19.277 48.5013V48.0698C19.2662 47.1133 19.2338 46.0058 18.9744 45.0097C18.7114 43.9885 18.207 43.1902 17.6342 42.8738C17.5045 42.8019 17.4541 42.6365 17.5261 42.507C17.5982 42.374 17.7639 42.3272 17.8936 42.3991C18.6105 42.7911 19.1941 43.6936 19.5004 44.8731C19.7742 45.9303 19.8066 47.0738 19.8174 48.0662V48.4977C19.8246 49.3895 19.8318 50.31 19.9615 51.1874C19.9831 51.3349 19.8822 51.4715 19.7345 51.4931C19.7237 51.4931 19.7093 51.4931 19.6985 51.4931L19.6949 51.4967Z" fill="#D3A02D"/>
<path id="Vector_15" d="M20.5085 50.1625C20.3572 50.1625 20.2383 50.0403 20.2383 49.8928C20.2383 48.8932 20.2383 47.8612 20.1122 46.8651C19.9753 45.7612 19.7015 44.8514 19.298 44.161C18.8513 43.3879 18.2244 42.9061 17.6264 42.8665C17.4787 42.8557 17.3634 42.7263 17.3742 42.5788C17.385 42.4314 17.5147 42.3163 17.6624 42.3271C18.455 42.3775 19.2224 42.9492 19.7663 43.8913C20.2059 44.6465 20.5013 45.6245 20.649 46.8004C20.7787 47.8288 20.7787 48.8788 20.7787 49.8964C20.7787 50.0438 20.6598 50.1661 20.5121 50.1661L20.5085 50.1625Z" fill="#E2B440"/>
</g>
<path id="Vector_16" d="M17.6478 42.3637C17.4496 42.3637 17.2839 42.2054 17.2839 42.0077L17.0605 18.7855C17.0605 18.5878 17.2191 18.4224 17.4172 18.4224C17.6153 18.4224 17.7811 18.5806 17.7811 18.7784L18.0044 42.0005C18.0044 42.1982 17.8459 42.3637 17.6478 42.3637Z" fill="#E2B440"/>
<path id="Vector_17" d="M18.6283 42.1119C18.6283 42.4571 18.1959 42.7376 17.6556 42.7448C17.1152 42.7483 16.6721 42.4751 16.6685 42.1299C16.6685 41.7847 17.1008 41.5042 17.6412 41.497C18.1815 41.4934 18.6247 41.7667 18.6283 42.1119Z" fill="#CB2035"/>
</g>
</g>
</svg>
