<svg width="393" height="149" viewBox="0 0 393 149" fill="none" xmlns="http://www.w3.org/2000/svg">
<path d="M445.369 186.836C444.425 160.658 440.779 59.5291 439.835 33.3512C439.509 33.4859 439.184 33.6314 438.853 33.761C435.9 34.916 435.863 34.7943 435.801 31.5869C435.739 28.3902 435.363 25.2102 435.535 21.9997C435.592 20.9224 435.128 20.0297 433.798 19.3395C433.915 22.5823 434.024 25.4778 434.123 28.3735C434.191 30.2434 434.258 32.1133 434.272 33.9797C434.283 36.1886 432.232 36.6531 430.964 36.672C429.723 36.69 430.373 34.9227 430.511 34.019C431.275 29.1824 432.167 24.3732 433.022 19.5493C433.243 18.3056 433.424 17.0955 435.072 16.8489C436.371 16.6576 435.838 15.1629 435.542 15.0934C433.279 14.5544 434.409 12.941 434.536 11.8665C434.833 9.31486 435.148 6.68763 438.159 4.74424C434.695 4.91192 433.728 6.77093 433.332 8.94101C433.092 10.2656 432.76 11.5401 432.314 12.7918C432.15 13.2471 431.699 13.472 431.223 13.2538C430.594 12.9608 430.952 12.5574 431.156 12.1595C431.5 11.4999 432.424 11.1082 431.981 9.61559C428.889 12.236 426.238 14.9795 423.727 17.7661C420.293 14.461 425.141 12.339 424.953 8.75635C419.492 15.319 416.36 22.3059 414.427 29.9022L414.086 20.43C414.961 19.8742 415.235 21.4103 416.173 20.6757C416.105 19.2445 414.932 18.4684 413.96 17.6796C412.807 16.7476 412.678 15.6824 413.446 14.6544C416.115 11.0704 416.922 6.13049 421.399 4.05934C420.99 3.05771 420.307 3.76707 419.9 3.41799C420.02 2.47215 421.228 1.9739 420.834 0.222796C414.684 6.86384 411.457 14.6405 408.514 23.0275C407.852 21.2218 408.057 19.6578 406.523 18.6593C406.046 20.4899 407.41 22.1258 406.893 23.4604C406.265 25.0878 404.08 25.2415 402.682 26.2441C400.916 27.5061 400.967 24.6316 399.65 24.6202C399.101 25.3729 399.519 26.0211 399.824 26.6307C400.288 27.5447 399.989 28.1172 399.176 28.6119C398.127 29.2542 397.88 28.4447 397.351 27.8111C396.226 26.4662 395.862 24.821 395.241 23.2653C395.037 22.7592 394.723 21.599 394.241 21.9908C392.704 23.2498 392.885 21.6278 393.156 21.2971C394.478 19.6927 392.676 19.8219 392.227 19.7846C389.254 19.5173 388.126 17.7713 387.994 14.9997C387.948 14.0331 387.711 13.0628 387.49 12.1132C386.767 9.05801 386.661 5.84148 385.013 3.00153C385.484 11.3349 387.865 19.4123 388.341 27.7455C385.97 21.2459 384.662 14.3817 381.433 8.19117C380.9 10.1201 382.209 11.6991 382.272 13.5852C380.929 13.1415 380.33 11.601 378.557 11.6436C379.768 14.0446 382.559 14.8908 383.307 17.3138C382.46 18.2056 381.239 17.1584 380.201 18.5224C384.975 18.3503 384.416 22.1899 385.377 24.9209C385.823 26.178 386.162 27.4763 386.513 28.7636C386.667 29.3358 386.988 29.9822 386.035 30.4498C384.288 28.5603 384.574 25.6934 383.133 23.5628C382.03 24.4532 383.715 26.27 381.847 26.4925C380.759 26.6227 379.693 26.3241 379.09 25.2599C378.788 24.7252 378.527 24.1301 378.41 23.5299C378.207 22.4887 377.704 21.7098 376.771 21.2352C374.849 20.2561 374.305 18.6281 374.38 16.5819C374.439 14.9696 374.332 13.3258 372.834 11.8178C372.435 14.8011 373.573 17.5364 372.536 19.981C368.041 19.3193 366.696 15.1311 363.716 12.7297C364.112 13.6676 364.503 14.6004 365.102 16.0124C362.922 14.9569 361.221 14.0607 359.462 13.3057C357.811 12.5949 356.372 11.2666 354.231 11.0015C354.417 11.5779 354.416 11.7009 354.47 11.7364C356.391 12.8333 358.327 13.9083 360.238 15.0216C360.679 15.2785 361.45 15.8177 361.396 15.9374C360.374 18.3547 362.353 17.5184 363.241 17.604C366.803 17.9464 367.813 18.7658 368.902 22.3588C367.599 24.2032 365.441 20.0817 364.265 23.093C363.122 22.2944 364.146 19.7968 361.841 19.8745C361.529 21.5655 363.056 23.3934 361.484 24.8998C360.31 26.0227 358.875 27.032 357.178 26.371C355.361 25.6608 354.739 23.9287 354.386 22.1119C354.118 20.7254 354.787 19.1874 353.866 17.7388C352.856 18.7007 353.864 20.0552 352.535 21.0339C352.339 18.9814 350.443 18.5844 349.479 17.2818C349.194 16.9016 348.157 16.6875 348.405 17.3313C348.751 18.2281 346.67 18.7365 348.086 19.1455C349.944 19.683 350.144 21.8102 351.818 22.4345C352.321 22.6197 352.766 23.3097 352.371 24.0087C352.256 24.2161 351.964 24.4192 351.736 24.4435C350.743 24.5435 350.974 23.8611 350.887 23.217C350.735 22.1098 349.747 22.1882 349.007 22.37C347.856 22.6523 348.789 23.2606 348.887 23.7759C349.209 25.4494 349.6 27.7301 348.274 28.5001C346.818 29.3443 347.098 29.8745 347.873 30.9806C346.316 30.657 346.061 29.3395 345.19 28.8253C343.147 27.6098 344.472 30.0495 343.713 30.2855C342.27 28.861 341.109 24.8748 342.169 24.1305C344.009 22.8391 343.176 22.3503 341.875 21.6001C341.01 21.1017 340.943 20.1466 340.916 19.2382C340.862 17.4588 340.862 15.6721 340.755 13.8999C340.526 10.0406 340.694 6.12416 339.241 1.74726C338.448 7.84739 340.419 13.2862 339.222 18.9676C336.782 15.7496 337.543 11.5764 335.63 7.74037C335.012 9.51191 335.452 10.6355 335.576 11.7169C335.788 13.5923 335.724 14.4879 333.291 13.8214C330.675 13.1026 328.022 12.23 325.236 12.2877C324.73 12.2952 323.859 11.6366 323.798 12.7621C323.745 13.7911 324.507 13.785 325.292 13.6872C327.276 13.4284 329.084 13.9142 330.762 14.9236C329 14.9818 327.37 15.8751 325.542 15.0102C324.062 14.3093 322.763 15.9609 323.274 17.5848C323.803 19.2507 324.338 20.9165 324.793 22.6012C325.094 23.703 324.863 24.5619 323.474 24.612C322.165 24.6592 320.195 24.8586 320.149 23.4427C320.097 22.0109 319.515 20.9299 319.198 19.6896C318.956 18.7461 318.886 17.5237 317.745 17.3562C316.169 17.1295 317.795 19.2053 316.533 19.3792C316.441 19.329 316.359 19.2945 316.288 19.2435C314.834 18.2261 316.27 13.8681 312.271 15.7294C312.119 15.7991 311.709 15.3592 311.439 15.1335C310.147 14.03 309.544 12.6663 309.529 10.9229C309.522 9.6928 309.865 8.28422 308.707 7.19193C307.326 8.36508 308.238 9.99587 307.708 11.256C305.047 10.0467 302.385 9.08888 299.994 7.6719C297.93 6.44643 298.371 7.57532 297.801 8.92785C297.418 9.835 299.046 11.5149 297.168 11.4702C294.293 11.4081 294.826 12.4373 295.951 14.0872C296.576 15.0008 296.992 16.0556 297.76 17.5418C295.632 16.0138 294.317 14.4403 293.167 12.6844C291.706 10.4529 290.235 8.22709 288.722 6.03489C288.357 5.50778 287.364 4.58068 287.176 5.43266C286.851 6.90477 285.333 8.71943 287.511 10.1441C288.161 10.57 288.634 11.2751 289.151 11.8823C294.182 17.7725 297.812 24.4514 300.199 31.817C300.433 32.5414 300.603 33.2628 299.885 33.7434C299.234 34.1788 298.844 33.5723 298.31 33.2492C297.558 32.7895 296.618 31.6787 295.885 32.2079C294.504 33.2099 293.936 32.0963 293.196 31.5292C292.675 31.1307 292.549 30.2848 291.594 30.4048C289.96 30.6081 289.788 29.4053 289.559 28.21C289.427 27.5193 289.745 26.5717 288.54 26.1177C287.813 27.6845 288.143 29.2828 288.246 30.8144C288.398 32.9807 287.488 33.4468 285.517 33.0418C283.864 32.7002 283.386 31.5834 283.193 30.2049C282.879 28.0015 282.708 25.7823 282.384 23.5794C281.96 20.706 281.944 17.7537 280.87 14.7219C278.81 18.0432 276.217 14.4029 273.933 15.4963C274.625 16.3647 275.476 16.3126 276.224 16.5156C280.223 17.6072 280.547 18.0181 280.962 22.1328C281.254 25.0538 281.598 27.9675 281.97 30.8802C282.059 31.5831 282.492 32.3645 281.352 32.5073C280.466 32.6195 279.497 32.6544 279.086 31.6047C278.898 31.1247 278.737 30.4886 278.896 30.0388C280.013 26.8691 276.86 24.8378 277.336 21.2044C275.699 23.8311 275.872 23.6163 274.111 22.2087C270.928 19.6595 268.397 16.739 267.105 12.8164C267.057 12.663 266.729 12.6052 266.153 12.2997C268.421 20.4988 270.961 28.2708 271.801 36.9226C270.613 34.8684 270.4 32.8059 268.524 31.6432C268.103 34.1512 270.145 35.8054 270.276 38.1009C268.439 37.8355 268.351 36.4318 267.954 35.3227C266.349 30.8924 264.798 26.4442 263.184 22.0196C262.758 20.8474 262.248 19.4321 261.047 19.0903C259.518 18.6533 259.28 17.5118 258.829 16.3939C257.231 12.4342 255.66 8.46273 254.067 4.49742C253.874 4.01759 253.684 3.33437 253.045 3.50718C252.417 3.67426 252.047 4.34558 252.204 4.99256C252.391 5.75612 252.722 6.51449 253.125 7.19004C255.593 11.3378 257.426 15.7705 259.097 20.2786C259.351 20.9702 260.01 21.6473 259.234 22.4562C258.058 21.4822 256.956 20.4682 255.752 19.5968C254.132 18.4249 252.55 17.4067 250.322 18.573C248.611 19.4691 247.053 19.2739 246.689 16.714C246.495 15.3301 245.698 14.0536 244.83 12.9027C244.511 12.4862 244.184 11.824 243.631 12.0098C240.598 13.0392 237.613 12.8794 234.6 11.9289C233.753 11.6598 232.843 11.8371 231.985 12.1462C229.707 12.9559 227.031 13.2449 226.541 16.3599C226.507 16.5858 226.601 16.8338 226.624 17.0256C227.585 17.36 227.841 16.0295 228.69 16.2396C228.748 18.2863 227.846 20.1858 228.36 22.2963C230.677 20.7791 232.936 19.1517 236.497 19.1571C234.189 21.2195 231.609 21.9438 230.341 24.1881C230.031 24.7396 229.072 25.3626 229.75 25.9694C230.449 26.5914 230.842 25.6679 231.352 25.1734C233.891 22.7174 236.925 21.4311 240.505 21.6872C241.082 21.7306 241.575 22.098 241.721 22.6063C242.371 24.8189 242.836 27.0595 242.693 29.4666C241.219 29.0704 242.095 27.6373 241.089 27.2349C240.714 27.4838 240.385 27.8113 239.985 27.9594C237.277 28.9718 235.134 31.7826 231.487 29.5015C229.497 28.2573 231.187 30.7962 230.705 31.4662C229.466 31.115 228.328 30.7228 227.378 31.8804C227.006 30.5778 227.558 29.3383 226.533 28.2358C225.047 30.3382 224.364 32.6952 222.694 34.4083C221.796 34.0395 222.125 32.8294 221.068 32.4823C220.558 32.9608 220.627 34.424 219.463 34.0808C218.246 33.7182 219.382 32.7197 219.123 32.0496C218.941 31.5801 218.983 30.9527 218.276 30.8552C217.146 34.8438 217.171 34.9659 218.7 38.4895C218.886 38.9161 219.4 39.4272 218.955 39.946C218.699 40.2388 218.327 40.1024 218.044 39.8024C215.778 37.402 214.941 29.8734 216.719 27.0009C218.97 23.3731 221.244 19.7605 223.878 16.3864C224.326 15.8139 225.145 15.3243 224.606 13.985C220.728 18.0138 218.144 22.761 215.279 27.4059C213.956 25.7632 214.634 23.7113 212.949 22.3652C212.703 24.7171 213.516 26.7152 213.777 28.7653C213.964 30.2564 213.648 31.541 212.525 32.3303C211.558 33.0125 211.041 33.7426 210.847 34.8569C210.762 35.3307 210.617 36.1705 209.991 35.9683C208.87 35.6076 208.769 35.9268 208.981 36.9088C209.179 37.8218 208.755 38.6395 207.874 38.7408C206.855 38.8578 207.294 37.8737 207.211 37.3418C207.095 36.6345 206.511 36.6983 206.06 36.4578C202.893 34.7907 201.824 31.9084 203.074 28.5895C203.249 28.1232 203.646 27.6167 203.032 27.1253C201.848 27.1038 202.223 28.7754 201.184 28.9412C200.694 27.3166 200.963 25.4614 199.543 24.0896C198.995 24.9867 200.039 25.8585 199.15 26.4896C198.399 26.1851 198.977 24.7841 197.791 24.8589C197.143 25.9629 198.25 27.0784 197.757 28.1982C196.1 27.616 195.483 25.7232 193.435 24.9678C194.486 27.3425 195.672 29.065 195.052 31.6765C194.021 36.036 194.392 36.1243 192.404 37.7473C194.656 34.2852 194.085 30.8715 192.731 27.2988C192.006 25.3885 192.292 22.8212 193.29 21.3783C194.693 19.3538 193.461 19.1628 192.31 18.1505C191.989 19.7401 192.389 21.2235 191.217 22.5764C189.795 20.5307 189.239 17.8279 186.292 17.2281C187.731 19.5834 190.61 20.6618 188.643 24.4827C187.577 26.5539 186.423 29.1471 186.186 32.1781C185.325 31.0697 185.623 29.866 184.718 29.3049C183.449 31.1962 186.061 33.1401 184.322 35.6101C183.908 31.8055 183.573 28.5759 183.195 25.3478C182.736 21.4967 179.924 19.1642 176.755 19.9578C175.83 20.1891 174.724 22.7699 175.423 23.0764C179.896 25.0548 179.161 28.6012 178.391 32.3843C177.91 31.4708 178.506 30.2457 176.902 29.6563C177.176 32.9844 178.116 36.4383 173.493 38.2954C174.982 36.2892 174.929 34.6542 174.147 33.0615C173.784 32.3203 173.607 31.2622 172.455 31.2395C170.973 31.2181 171.704 32.5826 171.297 33.2445C170.824 34.0212 171.13 34.9784 171.236 35.8626C171.349 36.7786 171.379 37.8902 170.28 38.0047C169.175 38.1248 168.958 36.9825 168.847 36.0985C168.472 33.1003 168.969 30.1937 170.399 27.5798C171.464 25.6263 171.114 24.0341 170.115 22.3477C169.9 24.8215 169.262 27.0645 168.092 29.209C166.397 32.3139 166.239 32.3731 163.809 29.7218C163.005 28.8468 161.88 27.9565 160.854 28.4643C159.959 28.9084 159.401 30.1536 160.071 31.44C160.472 32.2066 160.399 33.2951 159.508 33.4021C158.653 33.5025 157.886 32.6101 157.882 31.6259C157.873 30.0268 158.039 28.432 158.131 26.8346C158.186 25.8537 158.441 24.8067 157.084 23.973C157.019 24.9757 156.911 25.675 156.941 26.364C157.057 28.7028 157.18 31.357 155.959 33.1235C154.49 35.2414 152.248 36.7612 152.74 39.7819C151.546 39.3275 151.718 41.5787 150.704 40.9466C149.897 40.4408 150.538 39.4601 150.8 38.7445C151.164 37.7418 151.727 36.8067 152.026 35.7903C152.264 34.99 153.125 33.9051 151.395 33.5128C150.342 33.2726 149.367 32.7086 149.159 34.4547C149.052 35.3412 148.316 35.9294 147.508 35.9853C146.413 36.0622 146.584 34.8899 146.204 34.2563C145.637 33.3085 145.688 31.8998 144.32 31.3714C143.818 32.6787 145.144 33.5349 144.45 34.9829C141.8 31.8367 138.583 29.3743 137.964 25.0796C137.801 23.9408 137.557 22.7888 137.166 21.7062C136.911 20.9986 137.066 19.5273 135.76 19.9756C134.76 20.3165 135.437 21.3513 135.676 22.0755C135.958 22.932 136.26 23.7823 136.737 25.1774C133.598 22.7764 131.995 20.5945 131.928 18.632C130.933 19.7163 129.734 19.8594 128.33 19.0613C128.892 21.0577 129.688 22.8692 129.873 24.7455C130.166 27.7199 131.964 31.0145 128.671 33.5405C129.001 34.2775 130.371 33.998 130.297 35.0331C130.24 35.8216 129.044 34.8644 128.82 35.9049C131.355 37.1882 130.591 39.4839 130.521 41.6904C130.466 43.57 130.637 43.5746 127.39 45.7618C127.299 44.5615 127.982 43.2584 127.013 41.9506C126.351 42.9641 126.853 44.1764 125.853 44.8062C124.852 44.1094 125.766 42.7124 124.76 42.0051C122.978 40.7534 123.015 40.3188 124.737 39.128C125.314 38.7274 126.328 38.7871 126.412 37.559C124.634 37.6231 123.044 39.0339 121.054 37.6666C121.269 38.579 121.359 39.0091 121.47 39.433C121.63 40.0424 121.898 40.8138 121.035 40.9626C120.283 41.0913 120.115 40.2843 119.913 39.7031C119.436 38.3081 119.702 37.1056 120.739 36.025C121.212 35.5319 121.834 34.5947 120.552 34.5339C118.139 34.4123 118.56 32.7763 118.561 31.3212C118.569 29.6305 118.679 27.9415 118.671 26.2567C118.655 22.8658 119.469 19.4235 118.022 16.1003C116.791 21.264 118.066 26.6102 117.002 32.0033C116.135 30.5635 116.104 28.9652 115.15 28.0795C113.681 28.5871 116.083 30.1695 113.825 30.5077C110.401 31.0217 112.455 28.1392 111.47 26.9658C110.848 27.7531 110.328 28.4085 109.722 29.1846C109.19 26.4167 106.578 27.4257 105.18 26.3473C104.977 26.1888 104.528 26.8951 104.696 27.1084C106.214 29.0062 103.792 32.0517 106.592 33.577C106.972 33.7879 107.026 34.3958 106.71 34.7763C106.086 35.521 105.889 34.6294 105.508 34.4131C104.828 34.0204 103.929 33.1915 103.462 33.3849C100.667 34.5181 101.784 32.536 101.847 31.4585C102.137 26.2003 101.642 20.8902 103.125 15.6103C101.606 15.7774 101.543 16.8175 101.304 17.5964C100.827 19.1382 100.757 20.7349 100.794 22.3544C100.879 25.914 100.602 29.4546 100.181 33.0004C99.9514 34.913 97.7721 33.5954 97.3429 34.9964C97.3334 35.0288 96.8002 34.5773 96.8354 34.223C97.0882 31.7745 96.4735 29.6569 94.6415 27.9202C94.3766 27.6677 94.3981 27.0838 94.3398 26.6473C93.8907 23.2078 93.3776 19.7706 93.0295 16.3221C92.3562 9.62216 88.9067 6.33363 82.2214 6.13068C81.6825 6.11267 81.1117 5.95137 80.8356 6.57115C80.5301 7.26154 80.8179 7.70586 81.4709 8.07817C81.9661 8.35988 83.2455 8.51703 82.3051 9.48708C80.3475 11.5102 82.5226 11.3783 83.4386 11.6555C84.4892 11.9707 85.6885 11.8258 86.6756 13.042C84.7516 13.78 82.6575 13.3473 80.5178 15.0507C82.6416 14.9741 84.0922 15.002 85.5259 14.8541C89.0035 14.4879 92.6499 16.8814 92.3296 20.8568C92.2368 21.9782 92.689 23.1388 92.7839 24.2908C92.8424 25.0269 93.3504 26.1106 92.3267 26.3935C91.3347 26.67 90.8172 25.7686 90.4756 24.8662C89.8635 23.262 89.7972 21.4242 88.5394 19.945C87.7122 21.0982 88.4377 22.0028 88.6868 22.8498C89.1356 24.3582 89.119 25.2307 87.1768 25.167C84.6315 25.0822 83.8811 26.8853 83.6158 28.9865C83.4415 30.3622 83.3799 31.7553 82.8258 33.0912C81.0358 32.0752 80.7873 30.506 80.9773 28.6804C78.2261 30.4219 78.4814 33.2157 77.7418 36.206C76.1738 32.0365 75.5234 28.187 73.7619 24.5648C72.9115 25.6653 73.5167 26.4833 73.721 27.273C74.6315 30.7975 75.479 34.3457 76.5794 37.8153C77.168 39.6556 75.9984 40.6232 75.0141 41.4076C74.0919 42.1417 72.1028 42.2562 71.6411 41.2778C70.7068 39.3109 69.967 40.2255 68.8137 41.4975C69.5588 36.8862 70.2709 32.8378 70.091 28.7359C68.7875 29.8314 69.2923 31.2682 68.9323 32.5169C68.6389 33.5439 68.6713 33.7032 68.3806 33.6227C66.497 33.1183 66.3319 34.4509 66.1215 35.7102C65.9644 36.6734 65.9468 37.6637 65.7628 38.6225C65.5742 39.5976 66.3853 41.1036 65.0646 41.4294C63.9396 41.7107 64.2341 39.8278 63.3127 39.4009C63.1879 39.3412 63.0036 39.4014 62.8599 39.4066C62.2277 40.3495 63.7811 41.8983 62.0682 42.4308C60.5186 42.9092 59.94 41.4965 59.1248 40.6165C58.4595 39.9022 57.8661 39.1105 57.17 38.4295C56.0211 37.3101 56.0072 36.1873 56.8223 34.8473C58.4824 32.1127 60.0932 29.3371 61.6499 26.5421C62.2206 25.5212 63.0705 24.5544 62.9987 23.1555C61.7377 23.3614 61.5277 24.3372 61.1114 25.0584C59.3757 28.0631 57.6833 31.0877 56.0021 34.1226C55.3067 35.3834 54.6291 35.5094 53.5878 34.4183C52.8067 33.5959 52.0439 32.5428 50.3683 32.4855C51.0192 33.9813 52.1608 34.6034 52.9712 35.4997C53.5762 36.1679 54.3729 36.8293 53.6614 37.7911C51.5825 40.5889 50.7078 44.5629 46.5458 45.1623C46.5369 46.0988 48.018 45.3446 47.6597 46.3472C47.132 47.8212 43.3315 48.2525 42.2988 47.1021C39.7556 44.2677 40.3519 40.5552 39.4234 37.272C39.0504 35.9428 39.9927 33.5497 38.0193 33.5085C36.1259 33.4698 36.3691 35.9271 35.9894 37.3691C34.7087 42.203 33.5735 47.0797 32.3843 51.9371C32.1663 48.4036 32.4849 44.9739 32.8091 41.5493C33.0603 38.9083 33.9677 36.1367 33.4626 33.6568C32.2258 27.587 32.777 22.1803 37.0626 17.4681C37.2676 17.2414 37.3349 16.8913 37.5717 16.3638C35.1389 16.5906 34.6923 20.0197 32.0853 19.2578C32.633 20.4042 32.9283 21.5008 32.3516 22.8001C31.6617 24.3603 31.4525 26.0957 31.6624 27.7785C32.0503 30.8511 30.635 32.6889 28.063 33.9317C26.5839 31.6367 26.5795 28.7054 24.4145 26.9004C24.0629 26.6082 23.5495 25.819 23.2408 26.7181C22.4395 29.0312 20.4881 28.1226 19.2702 27.899C17.5856 27.5907 19.0625 26.4248 19.2254 25.6218C19.2573 25.4709 19.2161 25.2156 19.1178 25.1496C16.1034 23.1399 18.5998 22.4615 19.9395 21.3326C21.724 19.8293 25.0096 19.3096 23.9318 15.5825C21.6484 17.1413 20.6148 20.2544 17.3748 20.7083C18.0859 17.8154 18.8219 15.1676 20.4067 12.8584C21.6877 10.9881 23.4062 9.87226 25.765 9.95839C27.478 10.0197 28.4445 11.1082 28.6526 12.5932C28.9256 14.5465 27.0044 13.1447 26.3844 13.8358C26.2767 13.952 26.2407 14.1352 26.1271 14.3853C27.323 14.8878 28.6094 15.2373 29.6788 15.9263C30.8682 16.6911 30.6397 18.6305 32.1131 19.2888C32.0554 16.6537 31.2634 14.2001 30.14 11.8655C28.3309 8.10592 24.6769 7.27479 21.3025 9.76623C19.906 10.7955 18.6318 12.1146 18.2474 13.7226C16.6695 20.3646 12.4278 24.6687 7.02196 28.4637C4.63094 30.144 2.92649 30.0236 1.03004 28.7172C-5.29353 24.3555 -12.078 23.7656 -19.3049 25.6845C-26.5847 27.616 -32.6777 31.7193 -38.5929 36.1693C-41.3119 38.2145 -41.2306 38.1046 -43.1356 35.2311C-44.8323 32.6658 -42.6242 31.6768 -41.3847 30.4285C-39.8316 28.8639 -39.4229 30.8873 -38.5987 31.5744C-38.4283 31.718 -38.151 31.7241 -37.2724 31.9973C-40.5633 27.7883 -37.0545 26.0677 -35.0548 23.8826C-33.0755 21.7196 -30.9309 19.7112 -28.8855 17.61C-28.4743 17.1886 -27.7737 16.6658 -28.2969 16.0481C-28.9147 15.3215 -29.5906 15.9397 -30.1399 16.3714C-30.4818 16.6458 -30.7841 16.983 -31.0592 17.3353C-33.2708 20.1486 -36.0685 22.3732 -38.5235 24.9385C-39.9719 26.4511 -41.1122 26.7543 -43.0142 25.4427C-46.3806 23.1301 -48.0346 23.5214 -50.7719 26.5356L-44.3515 204.596C-43.0241 204.607 -41.6947 204.671 -40.3693 204.624C120.204 198.839 280.782 193.049 441.355 187.254C442.68 187.206 444.002 187.046 445.325 186.94L445.369 186.836ZM-34.6059 36.0363C-35.2915 37.4197 -35.9497 38.8236 -36.6786 40.1872C-36.9934 40.771 -37.0218 41.7563 -37.9348 41.7089C-38.6557 41.6707 -39.2101 41.0756 -39.5214 40.4235C-39.9244 39.5928 -39.2812 39.1042 -38.749 38.641C-32.4886 33.1194 -25.7099 28.5259 -17.4094 26.6699C-11.3771 25.3184 -5.58581 25.7087 -0.359648 29.3451C0.706376 30.0876 2.66346 30.5627 2.23562 32.2953C1.73776 34.3032 -0.421731 34.2741 -2.05653 34.7556C-2.37813 34.8528 -2.77306 34.6905 -3.11199 34.7509C-6.23616 35.3129 -9.41023 35.6734 -12.323 37.073C-9.5754 37.7442 -7.12738 35.575 -3.96621 36.4828C-5.9687 38.8873 -8.27833 40.1635 -10.9441 40.8748C-13.0663 41.4381 -15.4672 42.2522 -16.0049 44.3365C-16.7055 47.0792 -19.2168 48.0845 -20.3641 50.2603C-20.7831 51.0564 -21.6385 51.13 -22.4814 50.9572C-24.8223 50.4799 -27.168 50.0188 -29.509 49.5362C-30.1372 49.4091 -30.7528 49.1852 -30.7914 48.4109C-30.824 47.8023 -30.3176 47.5112 -29.9145 47.1597C-29.0986 46.4348 -27.7432 46.4822 -26.8986 44.9272C-29.6809 45.6587 -31.781 46.9809 -34.1598 47.5213C-36.0893 47.96 -36.8387 46.9814 -36.6253 45.5079C-36.3648 43.7172 -36.3688 41.8344 -35.4174 40.1364C-34.7615 38.9626 -34.1204 37.6771 -34.6057 36.0416L-34.6059 36.0363ZM423.7 24.1222C423.598 20.4027 426.324 16.18 429.091 15.0318C430.603 14.4048 431.594 14.6954 431.499 16.4962C431.224 21.7272 430.097 26.8337 429.072 31.9525C428.756 33.542 427.487 33.652 426.186 33.6347C424.661 33.6148 424.084 32.5497 424.211 31.3415C424.498 28.6671 424.176 26.0789 423.695 24.1224L423.7 24.1222ZM61.1073 52.8807C59.4517 51.3088 59.0241 50.9765 58.1952 51.7874C57.3098 52.6538 55.8601 53.3908 55.7931 54.7841C55.7054 56.6381 54.2723 57.5404 53.2295 58.4767C52.4758 59.1565 51.8354 57.5052 51.1378 56.9312C50.0339 56.0242 48.9117 55.2034 47.5365 54.7555C46.8625 54.5391 46.0367 54.2479 46.2811 53.3404C46.8316 51.3145 47.1325 49.0195 49.17 47.8815C52.2054 46.1886 55.4781 45.1612 58.9889 44.9758C60.223 44.9099 60.8345 45.3158 60.8794 46.5606C60.944 48.5001 61.0193 50.4392 61.1075 52.886L61.1073 52.8807ZM25.4603 36.2456C24.3149 35.5165 23.1912 35.985 22.1001 36.0244C21.1952 36.057 19.9073 37.291 19.5172 35.4863C19.1015 33.5648 17.905 31.2756 19.6619 29.7465C20.8347 28.7199 22.8992 28.0357 24.5162 29.5715C26.0448 31.0249 27.3828 36.4972 26.5593 37.4577C26.4468 37.5901 26.3136 37.7394 26.161 37.793C24.6717 38.3175 23.3036 39.2494 21.6326 39.1706C21.1254 39.1461 20.4227 39.3159 20.2762 38.6525C20.0965 37.8084 20.9084 37.7096 21.4558 37.5187C22.7452 37.0656 24.2813 37.3954 25.4659 36.2507L25.4603 36.2456ZM-2.92891 39.088C-6.10081 46.0121 -10.7585 50.604 -18.2581 51.7624C-14.5848 45.8847 -8.9895 42.4627 -2.92891 39.088ZM37.5724 37.0766C37.6992 37.0453 37.8313 37.0138 37.9581 36.9825C38.5897 40.4582 39.269 43.9269 39.837 47.4102C40.2894 50.2023 39.4251 51.5067 36.7653 52.3836C34.5848 53.1041 33.6578 52.3726 34.1911 50.1655C35.2482 45.7836 36.4345 41.4346 37.5669 37.0715L37.5724 37.0766ZM131.739 23.0092C134.306 25.4576 135.734 28.1022 137.347 30.569C137.973 31.52 138.749 32.9631 137.033 33.7043C135.181 34.5093 132.153 33.5968 132.007 32.2165C131.712 29.3492 131.373 26.4567 131.734 23.0094L131.739 23.0092ZM25.8408 57.1426C25.0717 56.951 24.892 56.8451 24.7331 56.8723C22.7992 57.1881 22.0845 55.9888 22.0544 54.4172C22.024 52.3909 23.6676 53.3373 24.635 53.265C25.5971 53.1928 26.5771 53.3233 27.5408 53.4437C28.3919 53.5468 29.1026 53.8956 29.0339 54.9465C28.9316 56.5443 28.9121 58.2194 27.5179 59.3128C26.7872 59.8901 26.2006 61.5054 25.0287 60.4885C23.9175 59.5282 23.8093 58.152 25.8408 57.1426ZM27.186 40.2061C28.4422 43.4132 26.1164 50.0073 23.6573 51.1284C22.8971 51.4767 22.1697 51.4067 21.8335 50.6538C21.1079 49.0057 20.3333 47.1827 22.4595 45.9933C24.6483 44.7643 26.1082 42.9785 27.1807 40.2063L27.186 40.2061ZM270.931 22.8636C270.788 22.4462 270.573 21.9457 270.972 21.6318C271.506 21.206 271.964 21.6602 272.36 21.983C274.754 23.9294 274.716 27.0174 275.831 29.5609C276.203 30.4141 276.926 31.72 275.23 32.1182C273.851 32.4407 273.04 31.5338 272.719 30.3257C272.06 27.8514 271.522 25.3512 270.931 22.8583L270.931 22.8636ZM12.7444 41.4276C13.1005 37.7076 14.0379 34.5872 14.8679 31.4439C15.0085 30.9093 15.3658 30.4684 15.9784 30.4624C16.6496 30.4542 16.8491 30.9606 16.9279 31.5194C17.1638 33.1853 17.4051 34.851 17.6144 36.5178C17.7047 37.2474 17.6348 38.2663 16.8959 38.3197C15.004 38.4681 14.4986 40.2677 12.7444 41.4276ZM52.8411 44.4539C52.008 44.409 50.8664 44.5251 51.5351 43.2653C52.3987 41.6454 53.5393 40.1706 54.6096 38.6663C55.0458 38.0514 55.7058 38.0276 56.1897 38.5879C57.2077 39.7708 58.8001 40.9224 58.7157 42.4233C58.6436 43.6776 56.6801 43.3205 55.5874 43.7611C54.7048 44.1139 53.7234 44.2402 52.8411 44.4539ZM7.90132 52.408C6.1963 51.0893 4.67061 50.7538 3.3941 52.747C3.30824 52.8785 3.06833 54.5026 2.29367 53.2681C1.79639 52.4836 0.181123 52.0284 0.735027 51.1311C1.82248 49.364 3.33377 47.8224 5.40777 47.1057C5.77631 46.9801 6.29756 46.9506 6.52005 47.5042C7.12279 48.9964 8.41131 50.2926 7.90132 52.408ZM-46.7683 25.2357C-45.1338 25.1875 -41.9156 26.9384 -42.2379 27.9022C-42.7433 29.4076 -43.9383 30.558 -45.3347 31.293C-46.0199 31.6548 -48.8983 28.244 -48.9111 27.1478C-48.9264 25.8378 -48.2235 25.2294 -46.7683 25.2357ZM253.366 27.9102C254.678 27.9325 255.656 27.8811 256.625 27.9853C257.54 28.0807 258.489 28.4049 258.429 29.5518C258.341 31.2347 258.135 32.9165 257.865 34.5792C257.778 35.1279 257.38 36.0677 256.643 35.2919C255.829 34.4386 254.447 34.1086 254.392 32.4309C254.341 31.0045 254.406 29.4294 253.36 27.9104L253.366 27.9102ZM5.71192 42.2375C3.10212 43.1714 3.10727 43.1659 2.6816 40.6724C2.64746 40.465 2.40817 40.1847 2.21463 40.1382C0.531706 39.7282 1.84034 38.9214 2.02334 38.3798C2.35572 37.3996 3.00451 37.8042 3.74277 38.029C5.25712 38.4933 5.24344 40.4784 6.91572 40.8888C7.81897 41.1077 8.92369 42.0361 8.80639 43.2172C8.68812 44.3716 7.37056 44.3388 6.52101 44.7225C6.1278 44.9025 5.72031 45.1312 5.18483 44.7653C5.33012 44.0647 5.48963 43.3154 5.71722 42.2373L5.71192 42.2375ZM284.918 43.6177C284.644 41.4879 284.314 39.4296 284.133 37.3605C284.042 36.326 283.41 34.4658 284.983 34.6178C286.245 34.7381 287.354 36.3831 288.535 37.3516C286.717 38.6636 288.592 39.393 289 40.3572C289.286 41.0263 289.581 41.8288 288.927 42.3231C287.91 43.0873 287.889 41.9005 287.514 41.4218C286.604 40.2617 285.926 40.5376 285.541 41.8193C285.364 42.398 285.474 43.0628 284.913 43.6233L284.918 43.6177ZM412.741 18.8951C412.215 21.8937 413.003 24.8556 412.447 27.7483C412.258 28.718 413.34 30.3586 411.593 30.5179C409.744 30.6862 409.841 28.7891 409.579 27.5895C409.311 26.3528 409.682 24.9807 410.346 24.0099C411.439 22.4031 412.009 20.6333 412.741 18.9005L412.741 18.8951ZM5.64701 31.7176C6.53259 29.9685 8.83822 27.8419 11.9266 25.992C12.4797 25.6618 13.0532 24.8654 13.7802 25.5186C14.3146 26.0022 13.897 26.6859 13.7581 27.2686C13.2257 29.5025 9.42074 31.5815 5.64682 31.7122L5.64701 31.7176ZM33.4842 59.2368C33.9162 57.0279 38.5294 52.8282 40.0439 52.8538C40.2093 52.8585 40.4334 52.8665 40.5331 52.9699C42.5561 54.9779 38.5121 55.894 39.6521 57.9498C39.9997 58.5739 38.4264 58.989 38.0938 58.6319C36.4638 56.8826 35.1666 58.1544 33.4789 59.237L33.4842 59.2368ZM46.6109 56.8698C48.1615 58.4882 49.6529 59.499 50.4627 61.1174C51.1922 62.5782 50.0545 62.9509 49.1794 63.512C48.0281 64.249 47.5502 63.5601 47.3017 62.5794C46.872 60.8617 46.4899 59.1316 46.1341 57.3952C45.9401 56.45 46.2147 55.6376 47.3425 56.0249C49.2906 56.6929 50.9502 57.7885 52.1124 60.309C49.9791 59.086 49.6178 56.4564 46.6107 56.8644L46.6109 56.8698ZM132.222 40.6715C132.082 37.6916 132.363 37.5049 135.083 38.8726C135.783 39.2218 136.542 39.5903 137.047 40.1552C137.464 40.6163 138.074 41.5678 137.456 42.0127C136.193 42.9142 134.729 44.0047 133.308 44.0613C132.053 44.1119 132.581 42.2152 132.257 41.1999C132.203 41.036 132.239 40.8475 132.227 40.6713L132.222 40.6715ZM115.436 34.8308C114.666 34.7462 114.319 35.176 113.914 35.4901C112.001 36.9713 111.644 36.8184 111.182 34.3636C111.051 33.6676 110.893 32.9832 110.777 32.2866C110.689 31.7709 110.88 31.4591 111.448 31.4012C113.886 31.1528 117.887 36.1332 117.224 38.6018C117.107 39.034 116.975 39.5148 116.448 39.5338C115.735 39.5596 115.617 38.9593 115.582 38.4363C115.502 37.241 115.485 36.0433 115.441 34.8252L115.436 34.8308ZM11.5615 46.9052C15.3486 50.54 15.4955 51.658 12.9016 54.3621C11.8384 55.4703 11.158 55.3718 10.6411 53.8979C9.8032 51.4995 10.9536 49.4092 11.5615 46.9052Z" fill="#002548"/>
</svg>
