<svg width="150" height="150" viewBox="0 0 150 150" fill="none" xmlns="http://www.w3.org/2000/svg">
<g id="Mask group">
<mask id="mask0_223_440" style="mask-type:alpha" maskUnits="userSpaceOnUse" x="10" y="10" width="130" height="130">
<path id="Polygon 3" d="M42.524 18.75C62.6202 7.14746 87.3798 7.14746 107.476 18.75C127.572 30.3525 139.952 51.7949 139.952 75C139.952 98.2051 127.572 119.647 107.476 131.25C87.3798 142.853 62.6202 142.853 42.524 131.25C22.4279 119.647 10.0481 98.2051 10.0481 75C10.0481 51.7949 22.4279 30.3525 42.524 18.75Z" fill="#D9D9D9"/>
</mask>
<g mask="url(#mask0_223_440)">
<path id="Polygon 4" d="M72.5 1.44337C74.047 0.550211 75.953 0.550212 77.5 1.44338L137.452 36.0566C138.999 36.9498 139.952 38.6004 139.952 40.3868V109.613C139.952 111.4 138.999 113.05 137.452 113.943L77.5 148.557C75.953 149.45 74.047 149.45 72.5 148.557L12.5481 113.943C11.0011 113.05 10.0481 111.4 10.0481 109.613V40.3867C10.0481 38.6004 11.0011 36.9498 12.5481 36.0566L72.5 1.44337Z" fill="#2C3D68"/>
<path id="Union" fill-rule="evenodd" clip-rule="evenodd" d="M74.1093 97.5C86.7945 97.5 97.078 87.2165 97.078 74.5312C97.078 61.846 86.7945 51.5625 74.1093 51.5625C61.424 51.5625 51.1405 61.846 51.1405 74.5312C51.1405 87.2165 61.424 97.5 74.1093 97.5ZM114.428 129.317C116.621 134.668 117.75 140.402 117.75 146.194L74.1094 157.219L30.4688 146.194C30.4688 140.403 31.5975 134.668 33.7907 129.317C35.9838 123.967 39.1984 119.105 43.2508 115.01C47.3032 110.915 52.1141 107.667 57.4088 105.451C62.7036 103.234 68.3784 102.094 74.1094 102.094C79.8403 102.094 85.5152 103.234 90.8099 105.451C96.1046 107.667 100.916 110.915 104.968 115.01C109.02 119.105 112.235 123.967 114.428 129.317Z" fill="#CEE2E5"/>
</g>
</g>
</svg>
