<svg width="81" height="79" viewBox="0 0 81 79" fill="none" xmlns="http://www.w3.org/2000/svg">
<g id="OBJECTS" clip-path="url(#clip0_223_71)">
<g id="Group">
<path id="Vector" fill-rule="evenodd" clip-rule="evenodd" d="M34.5107 16.0339C34.5107 16.0339 36.232 8.73305 40.3893 5.87983C41.1123 5.38471 41.8437 4.84763 42.4304 4.19307C42.6529 3.94411 42.8586 3.68396 43.0616 3.42102C43.0755 3.40144 43.0894 3.3371 43.1061 3.35948C43.4788 3.81543 43.1896 5.40429 43.184 5.96654C43.1173 11.7709 40.1668 15.2339 34.5107 16.0367V16.0339Z" fill="#207773"/>
<g id="Clip path group">
<mask id="mask0_223_71" style="mask-type:luminance" maskUnits="userSpaceOnUse" x="34" y="3" width="10" height="14">
<g id="clippath">
<path id="Vector_2" d="M34.5107 16.0341C34.5107 16.0341 36.232 8.73322 40.3893 5.87999C41.1123 5.38487 41.8437 4.8478 42.4304 4.19323C42.6529 3.94428 42.8586 3.68413 43.0616 3.42119C43.0755 3.40161 43.0894 3.33727 43.1061 3.35965C43.4788 3.8156 43.1896 5.40446 43.184 5.96671C43.1173 11.7711 40.1668 15.2341 34.5107 16.0369V16.0341Z" fill="white"/>
</g>
</mask>
<g mask="url(#mask0_223_71)">
<g id="Group_2">
<g id="Group_3">
<path id="Vector_3" fill-rule="evenodd" clip-rule="evenodd" d="M43.1146 1.972C43.1591 2.19858 43.1952 2.42516 43.2175 2.65454C43.2314 2.7916 43.2258 2.93426 43.2258 3.07413C43.2091 5.08817 42.6279 7.16095 41.7909 9.04911C41.2848 10.1876 40.6619 11.3177 39.7359 12.2492C39.1047 12.8842 38.3622 13.4352 37.6309 13.9835C37.6309 13.9835 37.5169 14.0674 37.4334 14.1262C36.7716 14.6157 36.1459 15.1528 35.4396 15.5975C35.2617 15.7094 35.0809 15.8101 34.8918 15.9052H34.8863C34.7055 15.964 34.5275 16.0199 34.3468 16.0675L34.2939 16.0591L34.3162 16.0255C34.3746 15.9975 34.3801 15.992 34.4107 15.9752C34.5387 15.9052 34.6582 15.8241 34.7722 15.7374C34.7722 15.7374 34.9474 15.6395 35.0837 15.5528C35.6982 15.1668 36.2433 14.7024 36.7994 14.252C37.909 13.3597 39.1909 12.5681 40.0891 11.4268C41.1736 10.0477 41.841 8.45329 42.3304 6.88682C42.7614 5.50496 43.0645 4.09234 43.0173 2.68531C43.0117 2.45593 43.0173 2.22935 42.9922 2.00557L43.0033 1.96361C43.0033 1.96361 43.0395 1.93843 43.0451 1.94123L43.0923 1.94682C43.0923 1.94682 43.109 1.9692 43.1174 1.98039L43.1146 1.972Z" fill="#11534B"/>
<path id="Vector_4" fill-rule="evenodd" clip-rule="evenodd" d="M41.8934 3.03255C41.9323 3.0913 41.974 3.15004 42.0157 3.21158C42.0352 3.23955 42.063 3.27871 42.063 3.27871C42.102 3.33466 42.1409 3.39061 42.1798 3.44655L42.2132 3.4969C42.2549 3.55844 42.2938 3.61998 42.3355 3.68432C42.3355 3.68432 42.3967 3.79341 42.444 3.86894C42.4913 3.95286 42.5385 4.03398 42.583 4.1179L42.6303 4.20461C42.7582 4.44518 42.8917 4.68574 43.0168 4.92911C43.0307 4.95988 43.0391 4.98505 43.0391 4.98505C42.9417 5.05219 42.8889 5.06897 42.8333 5.08575C42.7916 5.02701 42.7721 4.99344 42.7415 4.94589V4.9403C42.697 4.87036 42.6386 4.77526 42.6386 4.77526C42.5608 4.63539 42.4801 4.49833 42.4023 4.35846L42.38 4.3221C42.3411 4.25217 42.2994 4.18223 42.2632 4.10951L42.2299 4.05636C42.1965 3.99202 42.1631 3.92489 42.127 3.86055L42.1047 3.81579C42.0714 3.74586 42.0352 3.67593 42.0018 3.606C42.0018 3.606 41.9184 3.42138 41.8545 3.28151C41.8239 3.21717 41.7933 3.15284 41.7627 3.0885V3.03815L41.7933 3.00178L41.8461 2.99619C41.86 3.00458 41.8739 3.01577 41.8906 3.02416L41.8934 3.03255Z" fill="#11534B"/>
<path id="Vector_5" fill-rule="evenodd" clip-rule="evenodd" d="M41.2653 3.69274C41.2987 3.7347 41.3321 3.77666 41.3654 3.82142C41.4433 3.91653 41.5156 4.01443 41.5851 4.11513L41.5962 4.12912C41.6797 4.255 41.7631 4.38647 41.8437 4.51794C42.0134 4.79487 42.1663 5.0774 42.3165 5.36272L42.322 5.37391C42.4499 5.63405 42.5695 5.8942 42.678 6.15994V6.17113L42.6585 6.21868L42.6029 6.24386L42.55 6.22987C42.5195 6.17393 42.475 6.09281 42.475 6.09281C42.4611 6.07043 42.4499 6.04525 42.4388 6.02288C42.3443 5.84385 42.2525 5.66482 42.1552 5.4886C42.1552 5.4886 42.1218 5.42426 42.0912 5.37111C41.8882 4.98229 41.6713 4.60186 41.435 4.22702C41.435 4.22702 41.3182 4.02282 41.2403 3.89694C41.2125 3.84939 41.1875 3.80463 41.1569 3.75988C41.1569 3.75988 41.1374 3.70953 41.1791 3.68435C41.1791 3.68435 41.2375 3.66757 41.2626 3.69834L41.2653 3.69274Z" fill="#11534B"/>
<path id="Vector_6" fill-rule="evenodd" clip-rule="evenodd" d="M40.0007 4.73012C40.0897 4.91194 40.1732 5.08537 40.2621 5.2588C40.2621 5.2588 40.2983 5.33713 40.3205 5.39307C40.4067 5.59727 40.4985 5.79868 40.5847 6.00288L40.5986 6.03365C40.6626 6.18191 40.7265 6.33016 40.7877 6.47562L40.7933 6.4952C40.8489 6.62667 40.8989 6.75535 40.9546 6.88962L40.974 6.93997C41.0435 7.11899 41.1103 7.29802 41.177 7.47704L41.1826 7.49383C41.3745 8.02531 41.5524 8.55959 41.6942 9.09107L41.6998 9.10786L41.6637 9.13863L41.6025 9.15821L41.5552 9.15261C41.5469 9.13583 41.5441 9.11905 41.5357 9.10226C41.291 8.41134 41.0074 7.7316 40.7154 7.05745C40.7154 7.05745 40.682 6.97913 40.657 6.92318C40.5513 6.67143 40.4485 6.42247 40.3456 6.17351L40.3317 6.13995C40.2288 5.88819 40.1314 5.63644 40.0341 5.38468L40.0258 5.3651C39.9674 5.17209 39.909 4.98187 39.8506 4.78606L39.8561 4.73292L39.9006 4.69375H39.959C39.959 4.69375 39.9868 4.71893 39.998 4.73292L40.0007 4.73012Z" fill="#11534B"/>
<path id="Vector_7" fill-rule="evenodd" clip-rule="evenodd" d="M40.754 4.9735C40.7624 4.98749 40.7707 5.00707 40.7818 5.02106L40.8096 5.06861C40.932 5.2868 41.0571 5.50499 41.1795 5.72597C41.1795 5.72597 41.2073 5.77912 41.2295 5.82108C41.4242 6.19312 41.6105 6.57075 41.769 6.96516C41.8497 7.16657 41.9164 7.37077 41.9776 7.57777C42.0248 7.73721 42.0582 7.89945 42.0888 8.06449L42.0777 8.09526C42.0777 8.09526 42.0693 8.11205 42.0582 8.14282C42.0582 8.14282 42.0443 8.20716 41.9887 8.14562C41.9887 8.14562 41.9776 8.13163 41.947 8.10645C41.9414 8.09247 41.9386 8.07848 41.9359 8.0617C41.7857 7.50224 41.5716 6.95957 41.3213 6.42809C41.2295 6.23507 41.1406 6.03927 41.046 5.84905C41.046 5.84905 40.957 5.65884 40.8875 5.50778C40.8124 5.34274 40.7401 5.1805 40.665 5.01826V4.98469L40.6901 4.95952H40.7262C40.7262 4.95952 40.7429 4.97071 40.754 4.9791V4.9735Z" fill="#11534B"/>
<path id="Vector_8" fill-rule="evenodd" clip-rule="evenodd" d="M41.1731 4.47319L41.2287 4.54592C41.3038 4.64662 41.3733 4.74453 41.4456 4.84523L41.4734 4.88159L41.4929 4.90957C41.7682 5.34314 42.0296 5.78511 42.2159 6.25785C42.3077 6.48443 42.3689 6.71661 42.4078 6.95997C42.4078 6.95997 42.4078 7.03829 42.4078 7.12501L42.38 7.16697L42.3466 7.14739C42.3299 7.09424 42.3271 7.08864 42.3132 7.06347C42.3021 7.0355 42.2854 6.99633 42.2854 6.99633C42.2799 6.98235 42.2771 6.97116 42.2743 6.95717C42.2215 6.75857 42.1575 6.56276 42.0797 6.36974C41.885 5.9026 41.6347 5.43825 41.3622 4.99348C41.3622 4.99348 41.3372 4.94873 41.3177 4.91236L41.2927 4.8732C41.226 4.75292 41.1592 4.63264 41.0925 4.51515L41.0869 4.48158L41.1092 4.45641C41.1092 4.45641 41.1537 4.44522 41.1731 4.47319Z" fill="#11534B"/>
<path id="Vector_9" fill-rule="evenodd" clip-rule="evenodd" d="M43.9934 3.90751C43.9239 4.10332 43.846 4.29913 43.7598 4.49494C43.7598 4.49494 43.6903 4.6376 43.643 4.73271C43.4817 5.046 43.2982 5.3537 43.1007 5.65581C43.059 5.71735 43.0006 5.80686 43.0006 5.80686C42.9561 5.86561 42.92 5.90197 42.92 5.90197C42.9033 5.91316 42.8699 5.94113 42.8699 5.94113C42.8533 5.95232 42.8199 5.98029 42.8199 5.98029L42.7754 5.99148V5.93834C42.7837 5.89638 42.781 5.89638 42.781 5.89638L42.7893 5.86561C42.7976 5.83484 42.7976 5.82644 42.7976 5.82644C42.8199 5.79288 42.8505 5.73973 42.8505 5.73973C42.8672 5.71735 42.8811 5.69218 42.895 5.6698C43.2537 5.11034 43.5957 4.52851 43.896 3.9215L43.9127 3.88793L43.9683 3.85996C43.9767 3.87674 43.985 3.89353 43.9934 3.90751Z" fill="#11534B"/>
<path id="Vector_10" fill-rule="evenodd" clip-rule="evenodd" d="M44.0352 5.14149C44.0102 5.18904 43.9852 5.23939 43.9546 5.28975C43.8879 5.41283 43.8128 5.5387 43.7321 5.65899L43.7266 5.66738C43.4874 5.99466 43.2038 6.30516 42.884 6.58768C42.884 6.58768 42.8006 6.65761 42.7366 6.70797L42.6282 6.78629L42.5503 6.81426C42.5336 6.81986 42.4947 6.83384 42.4947 6.83384H42.4502L42.4669 6.78069C42.478 6.76391 42.4975 6.73314 42.4975 6.73314C42.5086 6.71915 42.5308 6.67999 42.5308 6.67999C42.9174 6.35271 43.2761 6.01144 43.5875 5.61703C43.5875 5.61703 43.6737 5.51353 43.7377 5.42681C43.8156 5.32331 43.8934 5.21702 43.9629 5.10513L44.0213 5.08554C44.0269 5.10233 44.0325 5.11911 44.038 5.1359L44.0352 5.14149Z" fill="#11534B"/>
<path id="Vector_11" fill-rule="evenodd" clip-rule="evenodd" d="M43.9154 3.35135C43.9182 3.38212 43.9154 3.4017 43.9099 3.41849C43.8626 3.57234 43.807 3.72059 43.7375 3.86885V3.87444C43.579 4.17375 43.3788 4.46467 43.1424 4.72482C43.0756 4.79754 43.0423 4.83111 43.0423 4.83111L42.9783 4.83671L42.931 4.80594L42.9199 4.78356C42.9199 4.73041 42.9338 4.736 42.9449 4.71922C43.2147 4.39474 43.4538 4.06186 43.6568 3.69262C43.6624 3.68423 43.668 3.67304 43.6735 3.66185C43.7291 3.56395 43.7792 3.46324 43.8237 3.36534C43.8237 3.36534 43.8487 3.32338 43.8876 3.33177C43.8876 3.33177 43.9043 3.34016 43.9154 3.35135Z" fill="#11534B"/>
<path id="Vector_12" fill-rule="evenodd" clip-rule="evenodd" d="M44.2491 5.33457C44.0712 5.68983 43.8765 6.03669 43.6374 6.37796C43.3148 6.83951 42.9116 7.2619 42.4083 7.62554C42.3471 7.6703 42.2859 7.69268 42.2859 7.69268C42.2553 7.69827 42.2275 7.70387 42.1969 7.71226C42.1969 7.71226 42.1191 7.73464 42.1691 7.66191C42.1691 7.66191 42.2053 7.58358 42.2943 7.51085C43.0479 6.89545 43.7125 6.10382 44.1852 5.3094L44.2325 5.28982C44.2325 5.28982 44.2436 5.31779 44.2464 5.32898L44.2491 5.33457Z" fill="#11534B"/>
<path id="Vector_13" fill-rule="evenodd" clip-rule="evenodd" d="M39.0689 5.61123C39.1579 5.72592 39.2469 5.84341 39.3359 5.95809L39.3526 5.97767C39.9532 6.85043 40.5233 7.73716 40.9766 8.66866C41.0822 8.88684 41.1796 9.10783 41.2685 9.33441C41.2685 9.33441 41.2704 9.34 41.2741 9.35119C41.2908 9.39595 41.3075 9.4407 41.3242 9.48546V9.52462C41.3186 9.58896 41.3186 9.57218 41.3242 9.61973L41.3047 9.6533L41.2658 9.63931C41.2658 9.63931 41.2157 9.58057 41.174 9.54141C41.1657 9.51903 41.1545 9.49665 41.1434 9.47707C40.6151 8.29941 39.9505 7.17211 39.208 6.07558L39.1496 5.98327C39.0856 5.87977 39.0217 5.77907 38.9577 5.67557L38.9521 5.63081L38.98 5.59445L39.0272 5.58606C39.0411 5.59165 39.0606 5.59724 39.0689 5.61123Z" fill="#11534B"/>
<path id="Vector_14" fill-rule="evenodd" clip-rule="evenodd" d="M38.2514 5.75662C38.3098 5.82376 38.3655 5.8881 38.4239 5.95523C38.5657 6.12027 38.7019 6.2909 38.8354 6.46154L38.841 6.46713C39.1886 6.94826 39.5056 7.44618 39.7892 7.94409L39.8031 7.96647C39.9922 8.30774 40.1702 8.6546 40.337 9.00426L40.3482 9.02944C40.5039 9.36791 40.6513 9.70638 40.7931 10.0504L40.8042 10.0756C40.8404 10.1707 40.8793 10.2658 40.9154 10.3637L40.9321 10.4001L40.9432 10.4281L40.9266 10.4924L40.9071 10.5288C40.8598 10.5148 40.8626 10.512 40.8237 10.4896L40.8098 10.484C40.7597 10.3721 40.7041 10.263 40.6513 10.1539C40.6513 10.1539 40.4872 9.80988 40.3565 9.54693C40.0145 8.85601 39.653 8.16508 39.2609 7.50492C39.0773 7.18883 38.8827 6.87833 38.6769 6.57623C38.6769 6.57623 38.5685 6.4028 38.4683 6.25454C38.3682 6.10628 38.2681 5.95803 38.1625 5.81257C38.1625 5.81257 38.143 5.77061 38.1791 5.74823C38.1791 5.74823 38.2292 5.72865 38.2542 5.75662H38.2514Z" fill="#11534B"/>
<path id="Vector_15" fill-rule="evenodd" clip-rule="evenodd" d="M37.7506 6.694C38.3345 7.63669 39.0659 8.52062 39.6415 9.48569C39.7722 9.70387 39.8973 9.92486 40.003 10.1542C40.0058 10.1626 40.0086 10.1682 40.0114 10.1738C40.1671 10.5207 40.2867 10.8759 40.3673 11.2452L40.359 11.2899C40.3552 11.3048 40.3525 11.3198 40.3506 11.3347L40.3284 11.3683L40.2922 11.3515C40.2922 11.3515 40.2839 11.3319 40.2366 11.2843C40.206 11.178 40.1699 11.0717 40.1309 10.9682C40.0364 10.7137 39.9252 10.4675 39.7972 10.2214C39.3162 9.28988 38.6682 8.43671 38.0676 7.5164C37.9091 7.27584 37.7756 7.02408 37.6421 6.77233L37.6338 6.75275V6.70799L37.6644 6.67442L37.7144 6.66883C37.7144 6.66883 37.7395 6.68561 37.7506 6.694Z" fill="#11534B"/>
<path id="Vector_16" fill-rule="evenodd" clip-rule="evenodd" d="M37.2674 7.07419C37.4231 7.32874 37.5733 7.58889 37.7207 7.84904L37.729 7.86302C37.7763 7.94414 37.8208 8.02806 37.8653 8.10918L37.8764 8.13436C38.1628 8.68822 38.452 9.23648 38.7551 9.77916L38.7663 9.79594C38.9331 10.1036 39.1 10.4113 39.2501 10.7246C39.3224 10.8813 39.3892 11.0351 39.4531 11.1918L39.4615 11.2086C39.5532 11.4463 39.6366 11.6925 39.7034 11.9387C39.7034 11.9387 39.7117 12.0589 39.7256 12.1736L39.7006 12.2044L39.6645 12.1876C39.6645 12.1876 39.5949 12.0701 39.5588 11.9582C39.2501 11.0659 38.7051 10.2323 38.2129 9.31201C38.0294 8.97074 37.8597 8.62668 37.6873 8.28261L37.6623 8.23226C37.4899 7.86302 37.3203 7.49658 37.1367 7.13573V7.08538L37.1729 7.04901L37.2285 7.04062C37.2424 7.04901 37.2563 7.0602 37.2702 7.07139L37.2674 7.07419Z" fill="#11534B"/>
<path id="Vector_17" fill-rule="evenodd" clip-rule="evenodd" d="M37.0224 8.03917C37.1253 8.26295 37.2394 8.47554 37.3617 8.68534C37.3617 8.68534 37.4868 8.92311 37.5925 9.11612C37.6704 9.25878 37.751 9.40144 37.8317 9.5469L37.84 9.56368C38.0263 9.91054 38.1987 10.263 38.3405 10.6294C38.4824 10.9987 38.5797 11.3931 38.6687 11.7875L38.6742 11.8127C38.7437 12.126 38.8021 12.4449 38.8633 12.761V12.8449L38.8717 12.9288L38.8466 12.9596L38.8105 12.9428L38.7771 12.8645L38.7437 12.7945C38.5602 12.0868 38.3739 11.3791 38.1042 10.7134C37.8344 10.0532 37.4896 9.43221 37.1782 8.78884L37.1698 8.77485C37.0697 8.54827 36.978 8.32169 36.8945 8.08672V8.04196C36.8945 8.04196 36.9335 8.01119 36.9362 8.0084H36.9863C36.9863 8.0084 37.0085 8.02798 37.0224 8.03917Z" fill="#11534B"/>
<path id="Vector_18" fill-rule="evenodd" clip-rule="evenodd" d="M36.413 9.37102C36.6688 10.0424 37.0136 10.599 37.314 11.22C37.4919 11.5837 37.6504 11.9585 37.7728 12.3417C37.8507 12.5935 37.9091 12.848 37.9647 13.1026L37.9702 13.1306L37.9786 13.1669C37.9869 13.2089 37.9925 13.2536 38.0008 13.2928L38.0092 13.3487C37.9897 13.4383 37.9953 13.4383 37.9841 13.5278L37.9619 13.5613L37.9257 13.5446L37.859 13.4466L37.8201 13.3991C37.8089 13.3655 37.7978 13.3292 37.7867 13.2956L37.7645 13.2229C37.6894 12.9571 37.6115 12.6914 37.5253 12.4284C37.5253 12.4284 37.4641 12.2354 37.4085 12.0788C37.1833 11.4522 36.8551 10.8648 36.5854 10.2494C36.5854 10.2494 36.552 10.1682 36.5298 10.1123C36.438 9.88292 36.3629 9.64795 36.3018 9.41018L36.3073 9.37102C36.3073 9.37102 36.3407 9.34584 36.3435 9.34304H36.3852C36.3852 9.34304 36.4046 9.36262 36.4158 9.37102H36.413Z" fill="#11534B"/>
<path id="Vector_19" fill-rule="evenodd" clip-rule="evenodd" d="M35.8903 9.70372C36.0571 10.5149 36.3436 11.287 36.6161 12.0618L36.63 12.0954C36.7329 12.3975 36.8358 12.7024 36.9275 13.0073C36.9748 13.1696 37.011 13.3346 37.0388 13.4996V13.5192C37.0471 13.5444 37.0527 13.5724 37.0554 13.6003C37.0916 13.8129 37.1222 14.0283 37.1695 14.2381L37.15 14.2857L37.125 14.3164L37.0499 14.2745C36.9275 13.8325 36.8497 13.3793 36.7051 12.9486C36.4548 12.2241 36.1851 11.5052 35.9821 10.7527V10.7471C35.8986 10.4002 35.8347 10.0478 35.793 9.68974L35.8319 9.64219C35.8319 9.64219 35.8792 9.65337 35.8875 9.69813L35.8903 9.70372Z" fill="#11534B"/>
<path id="Vector_20" fill-rule="evenodd" clip-rule="evenodd" d="M35.4006 11.2198C35.4479 11.4045 35.5063 11.5807 35.5702 11.7541C35.5702 11.7541 35.6258 11.9275 35.6787 12.0674C35.7426 12.2492 35.8149 12.4283 35.8817 12.6073L35.89 12.6241C36.004 12.9318 36.118 13.2395 36.1987 13.5556V13.5695C36.2738 13.8912 36.3266 14.2213 36.36 14.5346V14.585L36.3627 14.6353C36.36 14.6885 36.3627 14.6885 36.3572 14.7416V14.7836C36.3572 14.8134 36.3572 14.8432 36.3572 14.8731L36.3294 14.9122L36.2932 14.8843L36.2821 14.8479C36.2728 14.8199 36.2626 14.792 36.2515 14.764L36.2348 14.7108L36.2015 14.6185C36.2015 14.6185 36.182 14.5262 36.1625 14.4311C36.1625 14.4311 36.1208 14.2269 36.0902 14.0786C36.0596 13.9304 36.0263 13.7849 35.9873 13.6395C35.9873 13.6395 35.9595 13.5248 35.9289 13.4241C35.7732 12.8842 35.5508 12.3667 35.3978 11.8296V11.8129C35.3505 11.6254 35.3172 11.438 35.2949 11.2478L35.306 11.2114C35.306 11.2114 35.3366 11.1919 35.3422 11.1891L35.3811 11.1975L35.4062 11.2254L35.4006 11.2198Z" fill="#11534B"/>
<path id="Vector_21" fill-rule="evenodd" clip-rule="evenodd" d="M35.0982 12.2184C35.1232 12.347 35.151 12.4785 35.176 12.6044C35.176 12.6044 35.1899 12.6855 35.201 12.7526L35.2066 12.7666C35.2789 13.3457 35.3429 13.9303 35.4402 14.5009C35.4875 14.7835 35.5403 15.0632 35.6154 15.3373L35.5876 15.3457L35.4902 15.3765L35.4624 15.3849C35.329 15.0128 35.2372 14.6268 35.1649 14.2296V14.224C35.126 13.9779 35.0982 13.7317 35.0676 13.4855V13.4743C35.0481 13.2617 35.0314 13.0492 35.0147 12.8366L35.0092 12.8002C35.0092 12.7415 35.0036 12.6659 35.0036 12.6659C35.0036 12.6408 35.0036 12.6128 35.0036 12.5876C35.0036 12.5512 35.0008 12.5149 35.0036 12.4785V12.4394V12.389C35.0036 12.3414 35.0008 12.2911 34.998 12.2407C34.998 12.2407 35.0036 12.196 35.0453 12.1876L35.0815 12.196C35.0815 12.196 35.0954 12.2128 35.1009 12.224L35.0982 12.2184Z" fill="#11534B"/>
<path id="Vector_22" fill-rule="evenodd" clip-rule="evenodd" d="M44.291 6.61551L44.3022 6.65188L44.2799 6.69663C44.2243 6.75538 44.1464 6.8309 44.1464 6.8309C44.0908 6.88964 44.0324 6.94279 43.9768 7.00154L43.9685 7.00713C43.9156 7.05468 43.86 7.09944 43.81 7.1442L43.7988 7.15259C43.7321 7.20574 43.6654 7.26168 43.5986 7.31203L43.5875 7.32322C43.454 7.42672 43.3178 7.53022 43.1843 7.63092C43.0008 7.76519 42.8117 7.89946 42.6226 8.02814C42.6226 8.02814 42.478 8.12045 42.3528 8.20157L42.3417 8.20716C42.2805 8.24353 42.2194 8.27709 42.1554 8.31346L42.1081 8.32745C42.033 8.34143 42.0303 8.34423 42.0303 8.34423L41.9886 8.35262L41.9441 8.36381L41.9023 8.35821L41.9274 8.30507C41.9413 8.29108 41.9691 8.25472 41.9691 8.25472C41.9913 8.22674 41.9969 8.22115 42.0247 8.18199C42.0247 8.18199 42.1637 8.08128 42.2778 8.00296C42.8089 7.64211 43.315 7.25329 43.8239 6.86727C43.8934 6.82251 43.9657 6.77496 44.038 6.72461C44.038 6.72461 44.0602 6.71342 44.127 6.66586C44.1715 6.63509 44.1993 6.61551 44.1993 6.61551L44.2493 6.59873C44.2493 6.59873 44.291 6.60712 44.2938 6.60992L44.291 6.61551Z" fill="#11534B"/>
<path id="Vector_23" fill-rule="evenodd" clip-rule="evenodd" d="M44.5467 6.91509L44.5579 6.94307L44.5412 6.97663C44.3882 7.12489 44.2325 7.27314 44.0768 7.4214C44.0768 7.4214 44.0017 7.48853 43.9489 7.53609C43.4205 8.01163 42.8143 8.43401 42.2137 8.83682C42.0997 8.91235 41.9856 8.98508 41.8688 9.05781L41.8549 9.069C41.7771 9.11655 41.6992 9.1641 41.6186 9.20886L41.5685 9.19208L41.5352 9.15291V9.10536C41.6047 9.05501 41.677 9.00746 41.7465 8.9571C41.7465 8.9571 41.9411 8.82004 42.0774 8.72493C42.6502 8.32492 43.1953 7.90533 43.7487 7.46895C43.7487 7.46895 43.896 7.35986 44.0017 7.27874C44.1602 7.16125 44.3187 7.04097 44.4689 6.91789L44.5106 6.9039C44.5106 6.9039 44.544 6.9123 44.544 6.91509H44.5467Z" fill="#11534B"/>
<path id="Vector_24" fill-rule="evenodd" clip-rule="evenodd" d="M44.3528 8.06158L44.3612 8.09514L44.3389 8.12591C43.9635 8.38886 43.577 8.64061 43.1821 8.88677L43.1654 8.89796C42.5842 9.25042 41.9864 9.59169 41.3802 9.96932L41.3245 10.0029L41.2495 10.0476C41.2133 10.0448 41.2105 10.042 41.1744 10.0448H41.1299C41.1354 10.0187 41.1419 9.99543 41.1494 9.97491L41.1577 9.93575C41.2077 9.89939 41.28 9.84904 41.28 9.84904C41.4691 9.72316 41.6638 9.60008 41.8585 9.477L41.8835 9.46301C42.2644 9.23364 42.6482 9.01265 43.0347 8.78887C43.0347 8.78887 43.3072 8.63502 43.513 8.51753C43.7744 8.36928 44.0302 8.21822 44.2833 8.05878L44.3222 8.05039C44.3222 8.05039 44.35 8.06158 44.3528 8.06437V8.06158Z" fill="#11534B"/>
<path id="Vector_25" fill-rule="evenodd" clip-rule="evenodd" d="M44.3667 8.64335C43.7132 9.06015 43.0486 9.46575 42.3812 9.86296L42.3005 9.91052L41.9335 10.1259L41.914 10.1371C41.8084 10.1958 41.7027 10.2574 41.5942 10.3189L41.5386 10.3497L41.5025 10.3721C41.3829 10.4392 41.2633 10.5063 41.1437 10.5735C41.1437 10.5735 41.0325 10.635 40.9185 10.6994L40.8601 10.7273L40.7878 10.7385L40.7461 10.7301C40.76 10.6826 40.7656 10.6826 40.7961 10.6378L40.8017 10.6266C40.8712 10.5847 40.9435 10.5399 41.013 10.4979L41.0575 10.47C41.1716 10.4 41.2856 10.3329 41.4024 10.2658L41.4218 10.2546C41.6777 10.1035 41.9335 9.95528 42.1893 9.80982C42.1893 9.80982 42.3172 9.73709 42.4146 9.68394C43.0597 9.32868 43.7021 8.97063 44.3333 8.5958L44.3834 8.60139C44.3806 8.61538 44.375 8.62937 44.3722 8.64615L44.3667 8.64335Z" fill="#11534B"/>
<path id="Vector_26" fill-rule="evenodd" clip-rule="evenodd" d="M44.6664 9.21414L44.672 9.25051L44.647 9.28408C44.2771 9.51345 43.8962 9.72884 43.5152 9.93304C43.3567 10.0198 43.1954 10.1037 43.0341 10.1876L43.0147 10.196C42.8117 10.2995 42.6059 10.3974 42.4001 10.5009L42.3501 10.5261L42.2833 10.5596C41.7967 10.7862 41.3128 11.0296 40.8484 11.2394C40.6427 11.3317 40.4313 11.41 40.2089 11.452C40.2089 11.452 40.2144 11.452 40.1783 11.4212L40.1699 11.3708L40.1838 11.3317C40.1838 11.3317 40.1949 11.3289 40.2033 11.3261C40.715 11.1834 41.1543 10.8729 41.6604 10.6296C41.8245 10.5512 41.9858 10.4701 42.1498 10.3946C42.1498 10.3946 42.2917 10.3275 42.3973 10.2771C42.5475 10.2072 42.6921 10.14 42.8395 10.0673L42.8867 10.0449C42.8867 10.0449 43.1509 9.92185 43.3317 9.83794C43.7571 9.63653 44.177 9.42953 44.5886 9.20575L44.6359 9.19736C44.6359 9.19736 44.6692 9.21414 44.6692 9.21694L44.6664 9.21414Z" fill="#11534B"/>
<path id="Vector_27" fill-rule="evenodd" clip-rule="evenodd" d="M44.6272 10.305C44.2574 10.4924 43.8848 10.6715 43.5038 10.8393L43.4899 10.8449C43.2702 10.9344 43.0478 11.0239 42.8253 11.1078L42.7947 11.1218C41.9855 11.4295 41.1707 11.7456 40.3615 12.0058H40.356C40.2531 12.0393 40.1502 12.0673 40.0445 12.0953C40.0112 12.1037 39.9778 12.1121 39.9472 12.1177C39.7915 12.154 39.6385 12.1792 39.4828 12.196L39.4772 12.1568C39.4735 12.127 39.4717 12.0971 39.4717 12.0673C39.4717 12.0673 39.4911 12.0617 39.4995 12.0617C39.7692 12.0086 40.0306 11.9302 40.2892 11.8379C40.2892 11.8379 40.4811 11.7764 40.6424 11.7176C41.5823 11.3848 42.5278 11.0491 43.3926 10.7134C43.3926 10.7134 43.6568 10.6127 43.8292 10.5484C44.0878 10.4505 44.3436 10.347 44.5967 10.2379L44.6495 10.2491C44.6439 10.2659 44.6356 10.2826 44.63 10.2994L44.6272 10.305Z" fill="#11534B"/>
<path id="Vector_28" fill-rule="evenodd" clip-rule="evenodd" d="M42.6469 12.2351L42.6386 12.2771L42.5996 12.3078C42.2298 12.4281 41.8544 12.5288 41.4817 12.6127H41.4706C40.8171 12.747 40.1553 12.8337 39.4935 12.912L39.4601 12.9176C39.3739 12.9288 39.2849 12.9372 39.1987 12.9484H39.1876C39.0819 12.9596 38.9373 12.9736 38.9373 12.9736L38.9012 12.9596L38.84 12.9428L38.8066 12.9204L38.8344 12.8897L38.8928 12.8589L38.9262 12.8337C38.993 12.8225 39.0625 12.8141 39.132 12.8029L39.1793 12.7946C39.2599 12.7862 39.3433 12.775 39.4268 12.7638C39.4268 12.7638 39.563 12.747 39.6631 12.733C40.4612 12.6351 41.2454 12.5288 42.0629 12.3358C42.2298 12.2938 42.3966 12.2519 42.5635 12.2071H42.6163C42.6163 12.2071 42.6358 12.2295 42.6469 12.2407V12.2351Z" fill="#11534B"/>
<path id="Vector_29" fill-rule="evenodd" clip-rule="evenodd" d="M42.9874 12.8087L42.979 12.8478L42.9429 12.873C41.6053 13.2506 40.2122 13.3849 38.7912 13.4968C38.6327 13.5108 38.4742 13.5192 38.3184 13.5276L38.2434 13.508L38.1683 13.4968L38.1377 13.4716L38.1683 13.4437L38.2461 13.4185L38.3157 13.3877C38.4686 13.3737 38.6188 13.3597 38.7745 13.3458H38.7967C39.7088 13.2702 40.6265 13.1947 41.5414 13.0492C42.0085 12.9793 42.4729 12.887 42.9262 12.7751H42.9707C42.9707 12.7751 42.9874 12.7975 42.9957 12.8087H42.9874Z" fill="#11534B"/>
<path id="Vector_30" fill-rule="evenodd" clip-rule="evenodd" d="M41.997 13.5164L41.9859 13.5528C41.933 13.5864 41.8885 13.592 41.844 13.6004C41.3352 13.7234 40.8151 13.8241 40.2896 13.8997C39.6973 13.9836 39.105 14.0227 38.5071 14.0339H38.496C38.179 14.0339 37.8647 14.0311 37.5505 14.0088H37.5283C37.5116 13.9081 37.5283 13.9276 37.5505 13.8829C38.1317 13.8913 38.7212 13.8801 39.3107 13.8353C40.2228 13.7654 41.1155 13.6423 41.9275 13.4801L41.9719 13.4857L41.997 13.5136V13.5164Z" fill="#11534B"/>
<path id="Vector_31" fill-rule="evenodd" clip-rule="evenodd" d="M41.491 14.1066L41.4798 14.1457L41.4381 14.1681C41.0071 14.2492 40.5761 14.3191 40.1423 14.3751C39.3108 14.4842 38.4961 14.5233 37.6841 14.501C37.4032 14.4926 37.1224 14.4702 36.8582 14.4366L36.8359 14.3891L36.8471 14.3359L36.8888 14.2968C36.9138 14.2968 36.9388 14.2968 36.9611 14.2996C37.2113 14.3136 37.4588 14.3247 37.7091 14.3275C38.4961 14.3387 39.2914 14.308 40.1034 14.2212C40.5483 14.1821 40.9904 14.1261 41.4326 14.0618L41.4771 14.0702C41.4771 14.0702 41.491 14.0898 41.4965 14.1038L41.491 14.1066Z" fill="#11534B"/>
<path id="Vector_32" fill-rule="evenodd" clip-rule="evenodd" d="M39.7249 14.7585L39.711 14.7949L39.672 14.8144C39.597 14.8284 39.5247 14.8424 39.4496 14.8564C39.1103 14.9179 38.7711 14.9739 38.429 15.0214C37.8228 15.1026 37.1999 15.1389 36.5881 15.111C36.5881 15.111 36.4102 15.097 36.324 15.0858C36.2572 15.0774 36.1905 15.0662 36.1238 15.0578L36.0987 15.0522C36.0848 15.027 36.0765 15.0158 36.0681 15.0075L36.0459 14.9767L36.0987 14.9459L36.1349 14.9179C36.5715 14.9571 37.0164 14.9627 37.4641 14.9431C38.2093 14.9095 38.9463 14.8144 39.6665 14.7193L39.7082 14.7277C39.7082 14.7277 39.7221 14.7473 39.7304 14.7585H39.7249Z" fill="#11534B"/>
<path id="Vector_33" fill-rule="evenodd" clip-rule="evenodd" d="M39.6356 15.4882L39.6161 15.5358C39.5438 15.5721 39.491 15.5721 39.4354 15.5805C38.3091 15.7344 37.1746 15.8267 36.065 15.6756C35.9455 15.6589 35.8287 15.6365 35.7119 15.6113C35.6813 15.6057 35.5284 15.5693 35.4561 15.547C35.4561 15.547 35.4561 15.5078 35.4644 15.4854C35.4783 15.4379 35.4922 15.4239 35.52 15.3819C35.5367 15.3847 35.5534 15.3875 35.5701 15.3903C35.7286 15.4211 35.8871 15.4519 36.0484 15.4742C36.0484 15.4742 36.1151 15.4854 36.1818 15.4938C37.2608 15.6533 38.4009 15.5749 39.5216 15.4379C39.5327 15.4379 39.5549 15.4351 39.5549 15.4351L39.6078 15.4463C39.6078 15.4463 39.6244 15.4714 39.6328 15.4854L39.6356 15.4882Z" fill="#11534B"/>
</g>
</g>
</g>
</g>
</g>
<g id="Group_4">
<path id="Vector_34" fill-rule="evenodd" clip-rule="evenodd" d="M33.9771 28.0958C33.9493 28.093 33.9437 28.093 33.9159 28.0819C33.7602 28.0343 33.6768 27.8329 33.5628 27.6651C32.798 26.5322 31.7469 25.6063 30.5984 24.8566C28.9884 23.7992 27.2309 22.9572 25.7849 21.6146C25.746 21.5782 25.707 21.5418 25.6709 21.5055C25.5402 21.3824 25.4707 21.125 25.6459 20.9908C25.7793 20.8901 25.9629 20.9348 26.0936 21.0579C27.762 22.6467 29.9422 23.5307 31.8136 24.9545C32.7563 25.6706 33.5822 26.535 34.219 27.5364C34.3163 27.693 34.3525 27.9448 34.1578 28.0539C34.105 28.0847 34.041 28.0958 33.9799 28.093L33.9771 28.0958Z" fill="black"/>
<path id="Vector_35" fill-rule="evenodd" clip-rule="evenodd" d="M34.4615 50.4852C34.4365 50.4684 34.4059 50.4516 34.3837 50.4292C34.2947 50.3397 34.2891 50.2139 34.3169 50.0097C34.4921 48.7285 34.5922 47.4362 34.6868 46.1438C34.9371 42.7395 35.115 39.3269 35.0566 35.8946C35.0399 35.0358 35.0066 34.1883 34.8926 33.3267C33.9582 26.3279 30.3905 19.9054 29.039 12.9457C28.6998 11.2058 28.5023 9.42955 28.4912 7.65608V7.60013L28.5051 7.50503C28.544 7.4295 28.5468 7.40153 28.6163 7.35118C28.7943 7.21691 29.103 7.3316 29.1058 7.62531C29.1058 7.65049 29.1058 7.68126 29.1058 7.70643C29.1252 10.1149 29.5062 12.5401 30.1124 14.901C30.7854 17.5389 31.7225 20.1068 32.629 22.6691C33.8609 26.1545 35.0427 29.6902 35.5155 33.3519C35.7046 34.8092 35.6906 36.2834 35.6767 37.7548C35.6406 41.1255 35.4654 44.5018 35.1679 47.853C35.1011 48.6278 35.026 49.4026 34.9148 50.1719C34.8842 50.3817 34.7841 50.4852 34.6534 50.5076C34.5895 50.5188 34.5255 50.4992 34.4671 50.4796L34.4615 50.4852Z" fill="black"/>
<path id="Vector_36" fill-rule="evenodd" clip-rule="evenodd" d="M29.0889 12.1149C30.432 10.8841 30.6823 9.15254 31.5805 7.58327C32.3174 6.29373 33.7606 4.68809 33.5159 2.99014C33.3324 1.6978 32.4954 1.89081 31.6945 1.37332C31.2663 1.09639 31.0243 0.503364 30.5599 0.187272C29.8314 -0.305049 29.2307 0.299163 29.0194 0.587282C28.6635 1.06841 28.238 3.91045 28.3381 6.78885C28.3993 8.46441 29.0917 12.1149 29.0917 12.1149H29.0889Z" fill="#FCD97D"/>
<path id="Vector_37" fill-rule="evenodd" clip-rule="evenodd" d="M29.2162 12.1625C29.3969 10.2268 28.4849 8.78057 28.1373 6.94835C27.8481 5.44062 27.8647 3.16084 26.6245 2.12305C25.6818 1.33142 25.2119 2.12305 24.322 2.37201C23.8437 2.50627 23.3015 2.26571 22.7731 2.39998C21.9472 2.61257 21.9027 3.51609 21.9333 3.88813C21.9862 4.51192 23.4655 6.898 25.3426 8.89805C26.4382 10.0617 29.2162 12.1597 29.2162 12.1597V12.1625Z" fill="#FCD97D"/>
<path id="Vector_38" fill-rule="evenodd" clip-rule="evenodd" d="M29.2329 12.1012C28.382 10.392 26.8943 9.77942 25.668 8.49547C24.6558 7.4381 23.4934 5.54714 21.9501 5.4856C20.7766 5.43805 20.8016 6.38912 20.2065 7.16676C19.8867 7.58356 19.3222 7.73181 18.9635 8.18218C18.4018 8.88429 18.8328 9.65914 19.0497 9.94726C19.414 10.4284 21.8472 11.4466 24.4027 11.8942C25.8932 12.1515 29.2329 12.1012 29.2329 12.1012Z" fill="#FCD97D"/>
<path id="Vector_39" fill-rule="evenodd" clip-rule="evenodd" d="M27.1676 22.4451C27.1008 20.6409 26.058 19.5611 25.5019 17.989C25.043 16.6939 24.7789 14.6183 23.4719 13.9973C22.4792 13.5218 22.1288 14.361 21.3112 14.8169C20.8719 15.0603 20.3268 14.982 19.843 15.2393C19.0838 15.6449 19.1534 16.4785 19.2257 16.8086C19.3508 17.3625 21.0498 19.1471 23.0826 20.4814C24.2672 21.2563 27.1676 22.4451 27.1676 22.4451Z" fill="#FCD97D"/>
<path id="Vector_40" fill-rule="evenodd" clip-rule="evenodd" d="M27.1701 22.437C25.9827 23.6762 24.342 24.0315 22.8098 24.107C19.7343 24.258 18.4079 24.2748 18.1048 23.3042C17.9407 22.7839 17.4958 22.4146 17.3094 21.8468C17.0147 20.9601 17.5903 20.4174 17.8545 20.2384C18.2966 19.939 20.6547 19.995 22.9711 20.6356C24.3198 21.0104 27.1729 22.437 27.1729 22.437H27.1701Z" fill="#FCD97D"/>
<path id="Vector_41" fill-rule="evenodd" clip-rule="evenodd" d="M37.6762 30.247C38.6606 29.1421 40.2345 27.1924 41.9197 26.8931C42.5787 26.7756 43.6382 26.9071 43.6215 27.9169C43.6159 28.3588 43.4519 28.7728 43.4797 29.2232C43.513 29.7379 43.8912 30.4568 43.602 30.9435C43.057 31.8638 41.7751 31.0834 40.9937 31.2149C38.3297 31.6624 37.6456 32.3981 36.0605 33.5702C36.0605 33.5702 36.3303 31.7575 37.6762 30.2498V30.247Z" fill="#FCD97D"/>
<path id="Vector_42" fill-rule="evenodd" clip-rule="evenodd" d="M36.3582 29.1502C36.6223 27.6173 36.9533 25.013 38.199 23.7178C38.6857 23.2115 39.6284 22.6689 40.115 23.5248C40.3291 23.8997 40.4014 24.3472 40.6489 24.7053C40.9326 25.1165 41.6027 25.4829 41.6055 26.0704C41.6111 27.1781 40.1651 27.3151 39.5839 27.9082C37.604 29.9278 37.4037 30.9684 36.678 32.9293C36.678 32.9293 35.9994 31.2425 36.361 29.1502H36.3582Z" fill="#FCD97D"/>
<path id="Vector_43" fill-rule="evenodd" clip-rule="evenodd" d="M31.8497 3.50468C31.8135 3.4879 31.8413 3.4823 31.8024 3.4823C31.7273 3.4823 31.6717 3.55223 31.6077 3.60538C31.3936 3.77881 31.2045 4.06134 31.0238 4.39421C30.7707 4.85576 30.5511 5.4376 30.3647 6.06139C30.1979 6.62085 30.0644 7.21667 29.9643 7.79291C29.778 8.87265 29.7085 9.87688 29.6974 10.4419C29.6946 10.5286 29.7585 10.6014 29.842 10.607C29.9282 10.6126 30.0005 10.5482 30.006 10.4615C30.0672 9.91324 30.2619 8.94818 30.4927 7.8992C30.6178 7.34254 30.7513 6.76351 30.8959 6.21244C31.0516 5.60823 31.2184 5.04318 31.402 4.57324C31.5271 4.25155 31.6578 3.98581 31.7913 3.77322C31.8302 3.71168 31.883 3.66692 31.8969 3.60258C31.9053 3.56342 31.8942 3.5914 31.883 3.54944C31.897 3.53825 31.8997 3.52146 31.8886 3.50748C31.8803 3.49349 31.8608 3.49349 31.8469 3.50188L31.8497 3.50468Z" fill="#FF8B13"/>
<path id="Vector_44" fill-rule="evenodd" clip-rule="evenodd" d="M30.315 3.72561C30.2706 3.72561 30.2733 3.70883 30.2316 3.72561C30.1955 3.7424 30.1788 3.78995 30.1565 3.82352C29.8924 4.18996 29.7033 4.70746 29.5809 5.26971C29.3918 6.16204 29.3835 7.16067 29.3334 7.80125C29.3279 7.87118 29.3779 7.93551 29.4502 7.94111C29.5197 7.9467 29.5837 7.89635 29.5893 7.82362C29.656 7.19144 29.7505 6.22078 29.9146 5.33405C30.0147 4.80256 30.1287 4.30465 30.3317 3.93261C30.3484 3.89904 30.379 3.87107 30.3873 3.83471C30.3929 3.78995 30.3734 3.79834 30.3623 3.75638C30.3734 3.7424 30.3707 3.72561 30.3595 3.71442C30.3456 3.70323 30.3262 3.70603 30.3178 3.72002L30.315 3.72561Z" fill="#FF8B13"/>
<path id="Vector_45" fill-rule="evenodd" clip-rule="evenodd" d="M21.7889 8.22406C21.7944 8.26043 21.7889 8.27162 21.8055 8.30518C21.9001 8.47022 22.1031 8.54016 22.2866 8.62407C22.7065 8.81149 23.2154 8.88142 23.5852 9.07444C24.5502 9.53039 25.4067 10.1458 26.3215 10.6689C26.7247 10.8983 27.1391 11.0885 27.5618 11.2815C27.6341 11.3206 27.7258 11.2927 27.7648 11.2227C27.8037 11.15 27.7759 11.0605 27.7036 11.0213C27.3977 10.8199 27.1141 10.5962 26.8109 10.3948C26.3549 10.0898 25.8822 9.81012 25.4094 9.53039C24.8811 9.2171 24.3361 8.92898 23.7688 8.67442C23.6409 8.62128 23.5018 8.57932 23.3544 8.54575C23.0541 8.47302 22.726 8.41987 22.4201 8.34714C22.2338 8.30239 22.0753 8.21287 21.9029 8.17651C21.8667 8.16812 21.8556 8.1821 21.8222 8.1821C21.8111 8.17092 21.7916 8.17371 21.7805 8.1877C21.7694 8.20169 21.7722 8.21847 21.7833 8.22966L21.7889 8.22406Z" fill="#FF8B13"/>
<path id="Vector_46" fill-rule="evenodd" clip-rule="evenodd" d="M23.9917 7.58602C24 7.55525 24.0389 7.55525 24.0278 7.54126C24 7.4965 24.089 7.59441 24.0528 7.59721C24.025 7.59721 24.0056 7.61119 23.9833 7.64196C23.975 7.65595 23.9917 7.67553 24.0083 7.68952C24.0695 7.74546 24.1529 7.807 24.1724 7.82378C24.4616 8.04477 24.7369 8.27694 25.0205 8.49793C25.4488 8.8336 25.8798 9.16368 26.3192 9.48257C26.4471 9.57488 26.5722 9.66719 26.7057 9.74831C26.9143 9.87139 27.1256 9.9637 27.3397 10.07C27.3814 10.1008 27.4426 10.0924 27.4732 10.0504C27.5066 10.0085 27.4954 9.94692 27.4537 9.91615C27.2702 9.72314 27.1089 9.52453 26.9143 9.34271C26.7252 9.16648 26.5138 9.01263 26.3108 8.85039C26.0049 8.60702 25.6991 8.36925 25.3793 8.14267C25.0595 7.9161 24.7286 7.7091 24.3921 7.5021C24.3504 7.48252 24.1418 7.34825 24.0361 7.35664C24.0028 7.35664 23.975 7.35384 23.9555 7.36783C23.9388 7.37902 23.9082 7.37342 23.9055 7.393C23.8888 7.46294 23.8498 7.40419 23.886 7.47412C23.8888 7.48531 23.8776 7.49371 23.886 7.50769C23.8971 7.53567 23.8915 7.56084 23.936 7.6C23.9388 7.61679 23.9583 7.62518 23.9722 7.62238C23.9889 7.61958 23.9972 7.6028 23.9944 7.58602H23.9917Z" fill="#FF8B13"/>
<path id="Vector_47" fill-rule="evenodd" clip-rule="evenodd" d="M24.7925 5.1386C24.9065 5.30643 24.9955 5.47147 25.1095 5.63092C25.2736 5.86309 25.4571 6.07569 25.6156 6.30786C25.7157 6.46171 25.8103 6.62115 25.9076 6.7834C25.9716 6.88969 26.0411 6.99039 26.105 7.09949C26.1412 7.18061 26.2385 7.21697 26.322 7.18061C26.4026 7.14425 26.4415 7.04634 26.4026 6.96242C26.3442 6.80298 26.2858 6.64633 26.2052 6.50087C26.0856 6.27989 25.9382 6.07848 25.7769 5.88547C25.6462 5.72603 25.5127 5.56658 25.3542 5.43511C25.193 5.30084 25.0178 5.20573 24.8342 5.09384C24.8231 5.08265 24.8036 5.08265 24.7925 5.09384C24.7814 5.10503 24.7814 5.12461 24.7925 5.1358V5.1386Z" fill="#FF8B13"/>
<path id="Vector_48" fill-rule="evenodd" clip-rule="evenodd" d="M23.043 15.3067C22.9985 15.357 22.9818 15.3347 22.9623 15.399C22.9345 15.4941 22.9846 15.5976 23.004 15.6983C23.1041 16.3249 23.2654 17.0018 23.4962 17.6816C23.6408 18.1068 23.816 18.5319 24.0079 18.9459C24.336 19.6509 24.7087 20.339 25.1564 20.9152C25.4873 21.3404 25.8627 21.6929 26.2381 21.9922C26.2854 22.0369 26.3577 22.0341 26.4021 21.9866C26.4439 21.939 26.4439 21.8663 26.3966 21.8215C26.0907 21.4775 25.8265 21.0663 25.5512 20.6327C25.2954 20.2355 25.0396 19.8187 24.806 19.3795C24.4751 18.7585 24.1859 18.104 23.93 17.4578C23.7493 17.0046 23.5852 16.5599 23.4462 16.1291C23.36 15.8661 23.3683 15.5696 23.2154 15.3654C23.1737 15.3123 23.157 15.3319 23.1014 15.2983C23.1014 15.2815 23.0847 15.2703 23.0652 15.2731C23.0485 15.2759 23.0402 15.2927 23.043 15.3067Z" fill="#FF8B13"/>
<path id="Vector_49" fill-rule="evenodd" clip-rule="evenodd" d="M22.2503 16.8451C22.1892 16.8926 22.2114 16.8255 22.1836 16.8982C22.1669 16.9402 22.1975 16.9877 22.2086 17.0325C22.3198 17.4996 22.559 17.9584 22.8426 18.4003C23.0623 18.7444 23.3098 19.0829 23.5712 19.399C23.8437 19.7263 24.1329 20.02 24.3721 20.3165C24.4082 20.364 24.4722 20.3752 24.5194 20.3417C24.5667 20.3081 24.5806 20.241 24.5445 20.1934C24.3582 19.8829 24.1552 19.5528 23.916 19.2283C23.5851 18.778 23.2208 18.3276 22.9233 17.8633C22.7258 17.5528 22.5534 17.2395 22.4311 16.9206C22.42 16.8898 22.4227 16.8507 22.3949 16.8339C22.3171 16.7779 22.406 16.8339 22.3115 16.8339C22.3087 16.8171 22.292 16.8087 22.2754 16.8115C22.2587 16.8143 22.2503 16.8311 22.2531 16.8479L22.2503 16.8451Z" fill="#FF8B13"/>
<path id="Vector_50" fill-rule="evenodd" clip-rule="evenodd" d="M21.3548 21.581C21.4021 21.6118 21.4243 21.6454 21.4799 21.6677C21.6412 21.7349 21.8164 21.7461 21.9805 21.7936C22.4727 21.9307 22.9482 22.1349 23.4432 22.2831C23.7546 22.3755 24.0716 22.4342 24.3998 22.4594C24.4526 22.4678 24.4999 22.4314 24.5054 22.3783C24.5138 22.3251 24.4776 22.2776 24.4248 22.2692C24.0633 22.1964 23.7296 22.0594 23.3903 21.9307C23.04 21.7992 22.6896 21.6677 22.3309 21.5754C22.0444 21.5027 21.7441 21.3796 21.4577 21.4607C21.4104 21.4747 21.3965 21.4971 21.3548 21.5251C21.3381 21.5251 21.327 21.5363 21.3242 21.5531C21.3242 21.5698 21.3353 21.5838 21.352 21.5838L21.3548 21.581Z" fill="#FF8B13"/>
<path id="Vector_51" fill-rule="evenodd" clip-rule="evenodd" d="M23.7825 24.0534C22.8565 23.8436 21.8527 24.2324 20.3427 22.9597C19.1164 21.9247 18.6826 23.1527 17.2449 21.7428C17.2255 21.7233 17.5675 23.4072 18.6047 23.9611C20.4039 24.9233 23.7825 24.0534 23.7825 24.0534Z" fill="#FF8B13"/>
</g>
<g id="Group_5">
<path id="Vector_52" fill-rule="evenodd" clip-rule="evenodd" d="M48.5984 55.1961C48.629 55.1793 48.6651 55.1626 48.6929 55.1402C48.7986 55.0507 48.8069 54.9248 48.7736 54.7206C48.565 53.4394 48.4454 52.1471 48.3314 50.8548C48.0339 47.4505 47.8198 44.0378 47.8893 40.6055C47.9088 39.7468 47.9505 38.8992 48.0867 38.0376C49.2046 31.0388 53.4675 24.6163 55.0859 17.6567C55.4919 15.9168 55.7283 14.1405 55.7422 12.367V12.3111L55.7255 12.216C55.6783 12.1404 55.6755 12.1125 55.5921 12.0621C55.3807 11.9278 55.0081 12.0425 55.0053 12.3362C55.0053 12.3614 55.0053 12.3922 55.0053 12.4174C54.9803 14.8258 54.527 17.2511 53.8012 19.612C52.9948 22.2498 51.8769 24.8177 50.7924 27.38C49.3186 30.8654 47.9088 34.4012 47.3415 38.0628C47.1162 39.5202 47.1301 40.9944 47.1496 42.4657C47.1941 45.8364 47.3999 49.2128 47.7586 52.5639C47.8392 53.3387 47.9282 54.1136 48.0589 54.8828C48.0951 55.0926 48.2146 55.1961 48.3731 55.2185C48.4482 55.2297 48.5233 55.2101 48.5984 55.1905V55.1961Z" fill="black"/>
<path id="Vector_53" fill-rule="evenodd" clip-rule="evenodd" d="M51.5352 6.81728C50.7482 6.19629 49.3578 5.88859 49.0158 7.22568C48.5736 8.9516 50.612 11.444 50.612 11.444C50.612 11.444 50.1976 11.2761 49.9891 11.195C49.4857 10.9992 48.9796 10.8398 48.4541 10.7139C47.5142 10.4873 44.4303 10.23 44.6694 12.1741C44.8557 13.6734 46.5965 14.1545 47.7672 14.3252C48.1565 14.3811 48.5431 14.465 48.9351 14.4818C49.127 14.4902 49.5135 14.4734 49.5135 14.4734C49.5135 14.4734 47.9452 15.4161 47.2555 15.9336C46.3045 16.6497 44.2384 18.8568 46.4908 19.5057C47.5308 19.8078 48.949 19.0722 49.8639 18.5854C50.1921 18.4092 50.5285 18.247 50.8511 18.0623C51.0207 17.9644 51.3516 17.7546 51.3516 17.7546C51.3516 17.7546 48.3957 21.889 51.1486 22.359C52.9311 22.6639 54.3382 20.3757 55.3059 19.0917C55.3977 18.9687 55.3337 19.4022 55.3421 19.5561C55.3671 20.0316 55.3615 20.5044 55.4199 20.9743C55.5423 21.9561 56.2514 24.0485 57.5695 23.2317C58.5511 22.6219 58.704 21.2456 58.6929 20.1603C58.6901 19.8414 58.6595 19.5449 58.5956 19.2344C58.5622 19.0582 58.3592 18.5966 58.4955 18.7029C59.6912 19.6512 61.9436 21.7799 63.4035 19.7127C64.2823 18.4707 63.1783 17.3826 62.2412 16.7308C61.888 16.4875 60.6033 15.9056 60.6033 15.9056C60.6033 15.9056 65.6309 14.1601 64.3546 12.3223C63.4592 11.0356 61.507 11.7797 60.3781 12.2776C59.8747 12.4986 59.3937 12.7867 58.9265 13.0804C58.9042 13.0944 58.8431 13.1503 58.857 13.1251C59.2935 12.2412 63.2061 9.09706 61.1734 7.74038C59.9137 6.8984 58.1979 8.63551 57.4721 9.56141C57.2246 9.8775 56.8937 10.4286 56.6824 10.7726C56.5767 10.9489 57.4304 8.67188 57.4471 7.38793C57.4721 5.57249 55.4283 4.47316 54.2381 6.13475C53.3677 7.35436 53.2175 9.21175 53.4039 10.5265C53.4039 10.5265 52.8699 7.86346 51.5324 6.81169L51.5352 6.81728Z" fill="#FF8B13"/>
<path id="Vector_54" d="M57.8568 15.794C58.2506 14.5631 57.1512 13.106 55.4013 12.5395C53.6514 11.973 51.9135 12.5116 51.5197 13.7425C51.1259 14.9734 52.2252 16.4305 53.9752 16.997C55.7251 17.5635 57.463 17.0249 57.8568 15.794Z" fill="white"/>
<g id="Group_6">
<path id="Vector_55" fill-rule="evenodd" clip-rule="evenodd" d="M54.8665 13.1227C54.8776 13.1619 54.8498 13.1423 54.8804 13.1703C54.9221 13.215 54.9889 13.2234 55.0501 13.2262C55.1057 13.2262 55.1335 13.1954 55.1863 13.1842C55.2225 13.1954 55.2614 13.1758 55.2725 13.1395C55.2836 13.1031 55.2642 13.064 55.228 13.0528C55.1863 13.008 55.1613 12.9688 55.1057 12.9465C55.0473 12.9241 54.975 12.9101 54.9166 12.9381C54.8804 12.9577 54.9138 12.9465 54.8888 12.98C54.8498 12.9744 54.8137 12.9996 54.8081 13.0388C54.7998 13.0779 54.8276 13.1143 54.8665 13.1227Z" fill="black"/>
<path id="Vector_56" fill-rule="evenodd" clip-rule="evenodd" d="M53.7653 13.2681C53.7848 13.366 53.7125 13.31 53.7876 13.3744C53.8765 13.4527 54.0211 13.38 54.1379 13.3939C54.188 13.4051 54.238 13.3772 54.2492 13.3268C54.2631 13.2765 54.2325 13.2261 54.1824 13.2149C54.0684 13.1674 53.9544 13.0471 53.8404 13.0918C53.7486 13.1254 53.8348 13.1002 53.7848 13.1841C53.7598 13.1786 53.7375 13.1953 53.7347 13.2205C53.7319 13.2457 53.7459 13.2681 53.7709 13.2709L53.7653 13.2681Z" fill="black"/>
<path id="Vector_57" fill-rule="evenodd" clip-rule="evenodd" d="M54.5857 13.976C54.6329 14.0543 54.5912 14.0683 54.6719 14.1131C54.7553 14.1634 54.8693 14.1578 54.9611 14.1326C55.0111 14.1187 55.0028 14.0963 55.0445 14.0627C55.089 14.0711 55.1307 14.0431 55.139 13.9984C55.1474 13.9536 55.1168 13.9117 55.0751 13.9033C55.0445 13.8557 55.0556 13.8389 55.0083 13.8082C54.9194 13.7494 54.7942 13.727 54.6941 13.7634C54.6107 13.797 54.6496 13.8165 54.5912 13.8865C54.5662 13.8865 54.5467 13.9033 54.5439 13.9256C54.5439 13.9508 54.5606 13.9704 54.5829 13.9732L54.5857 13.976Z" fill="black"/>
<path id="Vector_58" fill-rule="evenodd" clip-rule="evenodd" d="M53.1872 14.1413C53.2122 14.186 53.1872 14.186 53.2289 14.2168C53.2818 14.2587 53.3541 14.2671 53.4236 14.2699C53.5543 14.2755 53.6711 14.228 53.799 14.2056C53.8324 14.2056 53.8629 14.1804 53.8657 14.1469C53.8657 14.1133 53.8435 14.0825 53.8073 14.0797C53.6822 14.0406 53.5765 13.9762 53.4458 13.9622C53.3791 13.9566 53.3068 13.951 53.2484 13.9846C53.2011 14.0098 53.2261 14.0126 53.1928 14.0517C53.1678 14.0517 53.1483 14.0685 53.1455 14.0909C53.1455 14.1161 53.1622 14.1357 53.1844 14.1385L53.1872 14.1413Z" fill="black"/>
<path id="Vector_59" fill-rule="evenodd" clip-rule="evenodd" d="M52.5142 13.3327C52.5448 13.3998 52.4836 13.3719 52.5476 13.4082C52.6227 13.4502 52.7144 13.3914 52.8034 13.397C52.8535 13.4054 52.898 13.3747 52.9063 13.3243C52.9147 13.2768 52.8813 13.2292 52.834 13.2208C52.7478 13.1928 52.6644 13.1621 52.5726 13.1621C52.5615 13.1621 52.5476 13.1593 52.5392 13.1649C52.4836 13.2096 52.5337 13.1733 52.5114 13.2432C52.4864 13.2432 52.4697 13.2656 52.4697 13.2879C52.4697 13.3131 52.492 13.3299 52.517 13.3299L52.5142 13.3327Z" fill="black"/>
<path id="Vector_60" fill-rule="evenodd" clip-rule="evenodd" d="M51.9777 14.7397C52.0166 14.7985 52 14.8181 52.0611 14.8516C52.1724 14.9104 52.3114 14.8572 52.4365 14.8572C52.5088 14.8572 52.57 14.8013 52.5728 14.7257C52.5728 14.653 52.5172 14.5915 52.4421 14.5887C52.3225 14.5831 52.2002 14.5243 52.0862 14.5607C52.0222 14.5803 52.0389 14.6083 51.9861 14.653C51.961 14.6502 51.9416 14.667 51.9388 14.6894C51.936 14.7146 51.9527 14.7341 51.9777 14.7397Z" fill="black"/>
<path id="Vector_61" fill-rule="evenodd" clip-rule="evenodd" d="M52.5285 15.6596C52.4562 15.7491 52.4812 15.6177 52.4729 15.7323C52.4673 15.8191 52.5591 15.8806 52.6231 15.9393C52.6898 16.0037 52.7704 16.0624 52.8622 16.0876C52.9095 16.1016 52.9428 16.0932 52.9901 16.0932C53.0318 16.1184 53.0847 16.1016 53.1097 16.0596C53.1319 16.0177 53.118 15.9645 53.0763 15.9393C53.043 15.8946 53.0291 15.8526 52.9901 15.8135C52.9178 15.7407 52.8316 15.6876 52.7565 15.6205C52.7343 15.6009 52.7148 15.5757 52.687 15.5729C52.5758 15.5561 52.7093 15.5673 52.6008 15.6065C52.5869 15.5869 52.5591 15.5813 52.5396 15.5953C52.5202 15.6093 52.5146 15.6372 52.5285 15.6568V15.6596Z" fill="black"/>
<path id="Vector_62" fill-rule="evenodd" clip-rule="evenodd" d="M53.3618 15.2152C53.3618 15.2404 53.3507 15.232 53.3618 15.2543C53.3952 15.3103 53.4702 15.3215 53.5314 15.3439C53.6037 15.3718 53.676 15.383 53.7539 15.3914C53.7984 15.4082 53.8484 15.3858 53.8651 15.3411C53.8818 15.2963 53.8596 15.246 53.8151 15.2292C53.7845 15.2012 53.7706 15.1732 53.74 15.148C53.676 15.0977 53.6121 15.0334 53.5314 15.0138C53.5092 15.0082 53.5008 15.0194 53.4786 15.0222C53.4257 14.9914 53.3562 15.0082 53.3229 15.0613C53.2923 15.1145 53.309 15.1844 53.3618 15.218V15.2152Z" fill="black"/>
<path id="Vector_63" fill-rule="evenodd" clip-rule="evenodd" d="M55.0032 14.8543C54.9642 15.0249 54.9114 14.8207 54.9781 14.9857C54.9976 15.0305 55.0588 15.0445 55.1033 15.0613C55.2423 15.1116 55.3925 15.106 55.5287 15.0976C55.5899 15.106 55.6455 15.0613 55.6539 14.9997C55.6622 14.9382 55.6177 14.8822 55.5566 14.8738C55.4843 14.8431 55.4314 14.7927 55.3563 14.7563C55.2896 14.7256 55.2201 14.6668 55.1506 14.678C55.0199 14.6976 55.1422 14.6948 55.0449 14.7787C55.0226 14.7675 54.9976 14.7787 54.9865 14.7983C54.9754 14.8207 54.9865 14.8459 55.006 14.8571L55.0032 14.8543Z" fill="black"/>
<path id="Vector_64" fill-rule="evenodd" clip-rule="evenodd" d="M55.926 13.6598C55.926 13.7437 55.8759 13.6989 55.9287 13.7661C56.0122 13.8724 56.1818 13.836 56.3097 13.8779C56.3514 13.8975 56.4015 13.8779 56.4237 13.8388C56.4432 13.7968 56.4237 13.7465 56.3848 13.7241C56.2708 13.6486 56.1762 13.4947 56.04 13.5087C55.9566 13.5171 56.0261 13.5227 55.9621 13.5814C55.9399 13.573 55.9148 13.5814 55.9065 13.6038C55.8982 13.6262 55.9065 13.6514 55.9287 13.6598H55.926Z" fill="black"/>
<path id="Vector_65" fill-rule="evenodd" clip-rule="evenodd" d="M57.2554 14.7257C57.1747 14.8432 57.2053 14.6809 57.1914 14.8208C57.1914 14.8488 57.2109 14.8711 57.2276 14.8935C57.2693 14.9523 57.3277 14.997 57.3888 15.039C57.4556 15.0809 57.5168 15.1005 57.5891 15.1369C57.6196 15.1704 57.6725 15.1704 57.7031 15.1369C57.7337 15.1033 57.7364 15.053 57.7031 15.0194C57.678 14.9606 57.6641 14.9075 57.6308 14.8543C57.5891 14.7844 57.5446 14.7145 57.4834 14.6557C57.4639 14.639 57.4472 14.6194 57.4222 14.6166C57.2832 14.6054 57.4472 14.6082 57.3193 14.6641C57.3026 14.6446 57.2748 14.6418 57.2581 14.6585C57.2387 14.6725 57.2359 14.7005 57.2526 14.7201L57.2554 14.7257Z" fill="black"/>
<path id="Vector_66" fill-rule="evenodd" clip-rule="evenodd" d="M56.427 15.1535C56.427 15.2207 56.4048 15.1647 56.4242 15.2291C56.4326 15.257 56.4437 15.2738 56.4687 15.2934C56.516 15.3326 56.5827 15.3521 56.6411 15.3689C56.7106 15.3885 56.7718 15.3857 56.8413 15.3941C56.883 15.4137 56.9331 15.3969 56.9526 15.3549C56.972 15.313 56.9553 15.2654 56.9136 15.243C56.8636 15.1927 56.8274 15.1423 56.769 15.1004C56.7162 15.0612 56.6606 15.0221 56.5966 15.0109C56.566 15.0053 56.5466 15.0053 56.5188 15.0193C56.4576 15.0472 56.5132 15.0249 56.4631 15.0724C56.4409 15.0612 56.4159 15.0724 56.4048 15.0948C56.3936 15.1172 56.4048 15.1423 56.427 15.1535Z" fill="black"/>
<path id="Vector_67" fill-rule="evenodd" clip-rule="evenodd" d="M54.7194 16.088C54.7528 16.1299 54.7334 16.1411 54.7834 16.1663C54.8807 16.2139 55.0003 16.1943 55.1115 16.1887C55.1894 16.1831 55.2561 16.1579 55.334 16.1467C55.3841 16.1495 55.4258 16.1132 55.4313 16.0628C55.4341 16.0125 55.398 15.9705 55.3479 15.9649C55.2422 15.9397 55.1421 15.9034 55.0337 15.8978C54.9363 15.8922 54.8223 15.8698 54.7473 15.9285C54.6972 15.9677 54.7417 15.9397 54.7194 16.0013C54.6972 16.0013 54.6777 16.0236 54.6777 16.046C54.6777 16.0684 54.7 16.088 54.7222 16.088H54.7194Z" fill="black"/>
<path id="Vector_68" fill-rule="evenodd" clip-rule="evenodd" d="M55.4148 16.7983C55.4426 16.8655 55.3981 16.8347 55.4509 16.8794C55.4954 16.9158 55.5538 16.9074 55.6094 16.9102C55.7012 16.9158 55.7957 16.9074 55.8819 16.8766C55.9459 16.8543 55.9932 16.8207 56.0516 16.7871C56.0961 16.7787 56.1266 16.734 56.1183 16.6892C56.11 16.6445 56.0655 16.6137 56.021 16.6221C55.957 16.6137 55.907 16.5913 55.8458 16.5885C55.7624 16.5829 55.6817 16.5885 55.5983 16.5969C55.5482 16.6025 55.4954 16.5969 55.4565 16.6277C55.4009 16.6696 55.4481 16.6445 55.4175 16.7088C55.3925 16.7088 55.373 16.7256 55.373 16.7508C55.373 16.7759 55.3925 16.7955 55.4148 16.7955V16.7983Z" fill="black"/>
<path id="Vector_69" fill-rule="evenodd" clip-rule="evenodd" d="M56.8244 16.1967C56.8717 16.275 56.7883 16.2051 56.8633 16.2582C56.88 16.2694 56.8939 16.2722 56.9162 16.2694C57.008 16.2582 57.0775 16.1911 57.1581 16.1435C57.2082 16.124 57.2332 16.068 57.2137 16.0177C57.1943 15.9673 57.1359 15.9421 57.0858 15.9617C57.0024 15.9813 56.9134 15.9645 56.8355 16.0037C56.8189 16.0121 56.8077 16.0233 56.7994 16.04C56.766 16.124 56.7994 16.0233 56.7994 16.1128C56.7771 16.1184 56.7632 16.1435 56.7688 16.1659C56.7744 16.1883 56.7994 16.2023 56.8216 16.1967H56.8244Z" fill="black"/>
<path id="Vector_70" fill-rule="evenodd" clip-rule="evenodd" d="M53.6934 16.4709C53.699 16.4989 53.6851 16.4849 53.7018 16.5073C53.7324 16.5492 53.7935 16.5548 53.8436 16.5688C53.9687 16.6052 54.1022 16.608 54.2301 16.6191C54.2802 16.6247 54.3247 16.5884 54.3302 16.538C54.3358 16.4877 54.2996 16.4429 54.2496 16.4373C54.1272 16.4205 54.0104 16.387 53.8881 16.3674C53.8408 16.359 53.7907 16.3394 53.7463 16.3562C53.7212 16.3646 53.7407 16.3646 53.7212 16.3842C53.699 16.3786 53.674 16.3898 53.6684 16.4149C53.6628 16.4401 53.674 16.4625 53.699 16.4681L53.6934 16.4709Z" fill="black"/>
</g>
</g>
<g id="Clip path group_2">
<mask id="mask1_223_71" style="mask-type:luminance" maskUnits="userSpaceOnUse" x="-8" y="32" width="96" height="42">
<g id="clippath-1">
<path id="Vector_71" d="M87.7354 32.9912H-7.08496V74H87.7354V32.9912Z" fill="white"/>
</g>
</mask>
<g mask="url(#mask1_223_71)">
<g id="Group_7">
<g id="Group_8">
<g id="Group_9">
<path id="Vector_72" d="M40.8071 4.9031C40.8071 -5.24401 28.7775 -8.06156 24.2202 -0.511979C20.675 -2.31482 15.8631 1.08069 17.3844 4.9031C12.6998 3.99347 5.22743 9.17868 8.26667 17.0632C2.8215 18.0779 2.69419 26.189 6.74542 27.8802C3.20018 29.5714 4.08812 36.1063 9.15135 35.8797C5.10012 38.694 6.87273 48.0464 13.7086 48.273C9.65734 51.2022 13.2026 56.8373 17.3811 54.4696C13.5845 59.09 17.7598 65.6052 25.1049 64.0355C25.6142 73.8476 40.8071 75.5191 40.8071 64.0355V4.9031Z" fill="#D4747A"/>
<g id="Clip path group_3">
<mask id="mask2_223_71" style="mask-type:luminance" maskUnits="userSpaceOnUse" x="3" y="-5" width="38" height="78">
<g id="clippath-2">
<path id="Vector_73" d="M40.8061 4.90245C40.8061 -5.24466 28.7765 -8.06221 24.2193 -0.512625C20.674 -2.31546 15.8622 1.08004 17.3834 4.90245C12.6989 3.99282 5.22645 9.17803 8.26569 17.0626C2.82052 18.0773 2.69321 26.1884 6.74444 27.8796C3.1992 29.5708 4.08715 36.1056 9.15037 35.8791C5.09914 38.6933 6.87176 48.0457 13.7076 48.2723C9.65636 51.2015 13.2016 56.8366 17.3801 54.469C13.5835 59.0894 17.7588 65.6045 25.1039 64.0348C25.6132 73.847 40.8061 75.5185 40.8061 64.0348V4.90245Z" fill="white"/>
</g>
</mask>
<g mask="url(#mask2_223_71)">
<g id="Group_10">
<g id="Group_11">
<path id="Vector_74" fill-rule="evenodd" clip-rule="evenodd" d="M25.072 68.5767C25.0296 68.5406 25.0263 68.5012 25.0002 68.4585C24.9545 68.383 24.9219 68.2943 24.9121 68.186C24.8827 67.9167 24.9251 67.6014 24.899 67.4142C24.7391 66.6163 24.8174 65.7658 25.0361 64.9185C25.343 63.7363 25.9698 62.587 26.8055 61.6544C27.5596 60.817 28.4802 60.1766 29.4987 59.8647C30.1679 59.6611 30.8632 59.6249 31.6141 59.7202C31.7153 59.7333 31.8165 59.7497 31.9209 59.7464C32.0613 59.7399 32.1397 59.6939 32.28 59.6709C32.3519 59.7005 32.4335 59.6643 32.4628 59.5888C32.4922 59.5166 32.4563 59.4312 32.3845 59.4049C32.2898 59.2834 32.2409 59.2013 32.1233 59.1094C32.0254 59.0338 31.9112 58.9977 31.8002 58.955C30.9416 58.6398 30.0504 58.689 29.231 58.9025C28.0231 59.2177 26.9328 60.0026 26.084 61.014C25.3365 61.9007 24.7684 62.9745 24.4779 64.0844C24.1678 65.2568 24.1645 66.4586 24.5106 67.516C24.5856 67.7164 24.602 68.1071 24.7195 68.3633C24.7684 68.4684 24.8207 68.5767 24.9121 68.6129C24.9643 68.6326 25.0002 68.6293 25.059 68.6161C25.0688 68.6194 25.0851 68.6129 25.0884 68.5997C25.0916 68.5866 25.0851 68.5734 25.072 68.5702V68.5767Z" fill="#FEEAE5"/>
<path id="Vector_75" fill-rule="evenodd" clip-rule="evenodd" d="M31.013 64.298C31.0848 64.4261 31.2088 64.5049 31.3655 64.564C31.6724 64.6789 32.0805 64.656 32.3351 64.6757C32.5375 64.6822 32.7399 64.6888 32.9488 64.6757C33.7617 64.6165 34.5876 64.3801 35.3319 64.0189C36.3014 63.5526 37.1241 62.8236 37.6236 61.8318C38.4136 60.2425 38.629 58.6826 38.4136 57.2837C38.1589 55.6516 37.32 54.2396 36.1415 53.261C34.5288 51.9179 32.2567 51.3301 30.0108 52.1904C29.2273 52.4893 28.4667 52.9818 27.7289 53.655C27.6799 53.6944 27.6734 53.7667 27.7093 53.816C27.7485 53.8652 27.8203 53.8718 27.8693 53.8357C28.643 53.2938 29.4232 52.9556 30.1871 52.7323C32.2502 52.1313 34.222 52.6272 35.6322 53.8619C36.6377 54.7453 37.3396 55.9899 37.555 57.4183C37.7411 58.6629 37.5648 60.0487 36.8727 61.464C36.5528 62.134 36.0468 62.6495 35.4527 63.0501C34.7149 63.5493 33.8302 63.8383 32.9651 64.0287C32.7399 64.078 32.5179 64.1371 32.2927 64.1765C32.0903 64.2225 31.7997 64.3112 31.5222 64.3407C31.3362 64.3604 31.1697 64.367 31.0424 64.275C31.0326 64.2652 31.0195 64.2652 31.0064 64.275C30.9967 64.2849 30.9967 64.298 31.0064 64.3079L31.013 64.298Z" fill="#FEEAE5"/>
<path id="Vector_76" fill-rule="evenodd" clip-rule="evenodd" d="M11.4786 48.21C11.4786 48.21 11.4851 48.2265 11.4721 48.2593C11.459 48.2593 11.4459 48.2659 11.4459 48.279C11.4427 48.2921 11.4525 48.3053 11.4655 48.3053C11.4655 48.3414 11.459 48.3512 11.4525 48.3512L11.4655 48.3677C11.4655 48.3677 11.4949 48.3808 11.508 48.3874C11.6777 48.4563 11.8409 48.5187 12.0205 48.5614C12.4645 48.6665 12.9346 48.6796 13.4112 48.6632C14.9194 48.614 16.5092 48.1082 17.9553 47.3135C18.889 46.8013 19.7541 46.1478 20.5114 45.4155C23.0871 42.923 24.3472 39.429 22.3265 36.2141C21.8956 35.5278 21.2329 34.9695 20.4853 34.5525C19.7573 34.1486 18.951 33.876 18.2002 33.7381C14.8541 33.1306 13.0847 35.2552 12.7158 37.3799C12.4841 38.7197 12.8072 40.0661 13.6364 40.7294C14.1979 41.1793 14.9912 41.3566 15.9705 40.9724C16.3525 40.8214 16.7573 40.5816 17.1947 40.2467C17.2469 40.2138 17.26 40.1416 17.2241 40.0924C17.1882 40.0398 17.1196 40.0267 17.0707 40.0595C16.6202 40.3157 16.2121 40.4766 15.8399 40.5816C15.0336 40.8049 14.4264 40.6736 13.9955 40.2959C13.3296 39.7147 13.0978 38.6015 13.3034 37.4883C13.6429 35.6591 15.1936 33.853 18.0761 34.408C18.7551 34.5393 19.4831 34.7955 20.1393 35.1698C20.7791 35.5344 21.3471 36.0105 21.7095 36.6016C23.505 39.5013 22.2743 42.6012 19.9565 44.8342C19.2448 45.5206 18.4287 46.1182 17.5669 46.6207C16.2284 47.4022 14.7757 47.9211 13.3655 48.0951C12.9215 48.1509 12.4873 48.1641 12.0597 48.1739C11.8834 48.1772 11.7169 48.1969 11.5406 48.2002C11.5276 48.2002 11.508 48.1936 11.4949 48.2002L11.4753 48.2133L11.4786 48.21Z" fill="#FEEAE5"/>
<path id="Vector_77" fill-rule="evenodd" clip-rule="evenodd" d="M41.1984 33.8107C41.2702 33.7483 41.2278 33.8534 41.2572 33.7614C41.2604 33.745 41.2474 33.7319 41.2441 33.7155C41.1788 33.502 41.1102 33.305 41.0221 33.1244C40.7479 32.576 40.3594 32.1885 39.8959 31.8896C39.3017 31.5054 38.5574 31.3084 37.6564 31.177C36.553 31.0325 35.5476 31.1015 34.6564 31.3445C32.1296 32.0374 30.4843 34.0603 29.8804 36.2276C29.2863 38.3457 29.665 40.6378 31.1634 41.9678C32.0382 42.7461 33.3016 43.1828 34.9404 43.0679C35.022 43.0679 35.0873 42.9989 35.084 42.9168C35.084 42.8347 35.0155 42.769 34.9338 42.7723C33.4485 42.7296 32.3712 42.2239 31.6236 41.4752C30.3864 40.2405 30.0926 38.2866 30.628 36.4476C31.1895 34.5331 32.6422 32.773 34.8718 32.1294C35.6749 31.8962 36.5726 31.7977 37.5748 31.8929C38.3811 31.9586 39.0438 32.1064 39.6021 32.3953C40.0199 32.6121 40.3725 32.9142 40.6989 33.328C40.8164 33.4757 40.9372 33.6235 41.0515 33.8008C41.0613 33.814 41.0613 33.8337 41.0776 33.8402C41.1625 33.8797 41.058 33.8402 41.1527 33.8271C41.1592 33.8402 41.1723 33.8435 41.1821 33.8402C41.1951 33.8337 41.2017 33.8205 41.1951 33.8074L41.1984 33.8107Z" fill="#FEEAE5"/>
<path id="Vector_78" fill-rule="evenodd" clip-rule="evenodd" d="M36.4512 37.1565C36.4512 37.1565 36.448 37.1664 36.4512 37.1729C36.4545 37.1894 36.4512 37.1729 36.4512 37.1565C36.4741 37.1171 36.6406 37.1631 36.6928 37.1631C36.9279 37.1565 37.1694 37.2124 37.4241 37.2747C37.6624 37.3339 37.9072 37.4127 38.152 37.5112C38.929 37.8199 39.6929 38.2927 40.225 38.6605C40.9007 39.0743 41.3284 39.8197 41.5961 40.6506C41.7952 41.2745 41.8964 41.9477 41.929 42.6012C41.9486 43.0215 41.9486 43.4287 41.9193 43.8162C41.8964 44.1052 41.8736 44.3777 41.8148 44.6306C41.7919 44.6864 41.8213 44.7521 41.8768 44.7718C41.9323 44.7948 41.9943 44.7652 42.0172 44.7094C42.151 44.4664 42.2718 44.2037 42.3698 43.9081C42.5003 43.5075 42.5787 43.0708 42.6211 42.6143C42.6636 42.1283 42.6407 41.6291 42.5754 41.1398C42.4677 40.3616 42.2163 39.6161 41.8344 39.0021C41.5438 38.5357 41.1717 38.1483 40.7212 37.8658C40.1205 37.5178 39.2554 37.0646 38.3903 36.815C38.0998 36.7296 37.8125 36.6607 37.5318 36.6377C37.2086 36.6114 36.905 36.6377 36.6275 36.7099C36.5198 36.746 36.2652 36.8183 36.2097 36.9102C36.1901 36.9431 36.1542 36.9628 36.1672 36.9923C36.1901 37.0449 36.1313 37.0153 36.1803 37.0416C36.2488 37.0777 36.1411 37.081 36.2227 37.0941C36.2619 37.1007 36.2227 37.1073 36.2652 37.1204C36.2945 37.1303 36.3141 37.1631 36.3762 37.1697C36.3892 37.1762 36.4023 37.1697 36.4088 37.1598C36.4153 37.1467 36.4088 37.1335 36.399 37.127C36.3794 37.1007 36.3892 37.0646 36.3729 37.0646C36.3598 37.0646 36.4023 37.0514 36.3957 37.058C36.3762 37.0777 36.4382 37.0514 36.4186 37.0613C36.3794 37.0777 36.4904 37.0777 36.448 37.0843C36.4186 37.0909 36.4937 37.0941 36.4643 37.1073C36.4545 37.1106 36.4545 37.1401 36.4545 37.1598L36.4512 37.1565Z" fill="#FEEAE5"/>
<path id="Vector_79" fill-rule="evenodd" clip-rule="evenodd" d="M28.2382 44.7459C27.9052 44.5685 27.5788 44.4438 27.236 44.3912C27.1479 44.3781 27.0565 44.3748 26.965 44.3715C25.9335 44.3387 24.9247 44.7426 24.0499 45.4486C22.966 46.3287 22.101 47.6816 21.5884 49.1298C20.5112 52.174 21.04 55.6778 24.3763 56.7681C24.9737 56.929 25.6364 57.1063 26.2893 57.1424C26.5145 57.1556 26.7398 57.1588 26.9553 57.1194C27.1772 57.0833 27.3894 57.0111 27.5951 56.9126C27.6506 56.8929 27.68 56.8337 27.6604 56.7812C27.6408 56.7254 27.5853 56.6958 27.5265 56.7155C27.3274 56.7549 27.1315 56.7549 26.9291 56.7484C26.7333 56.7451 26.5341 56.7287 26.335 56.6958C25.7245 56.5907 25.1239 56.3477 24.582 56.1343C23.4329 55.7435 22.6853 55.0243 22.2577 54.1311C21.5982 52.7585 21.6929 50.9918 22.2544 49.3663C22.6396 48.253 23.2533 47.2121 24.0009 46.3977C24.3404 46.0233 24.706 45.6949 25.0978 45.4322C25.7507 44.9954 26.4591 44.759 27.2164 44.7295C27.5461 44.7163 27.8726 44.7163 28.2219 44.7886C28.2349 44.7918 28.248 44.7886 28.2513 44.7754C28.2545 44.7623 28.2513 44.7492 28.2382 44.7459Z" fill="#FEEAE5"/>
<path id="Vector_80" fill-rule="evenodd" clip-rule="evenodd" d="M20.2173 34.9997C20.1944 34.9274 20.1944 34.8716 20.165 34.8027C20.0671 34.5695 19.9398 34.3725 19.8451 34.1557C19.5546 33.4891 19.4501 32.8159 19.5056 32.1296C19.5415 31.6764 19.6329 31.2233 19.7896 30.7767C20.2597 29.404 21.2521 28.12 22.3326 27.2432C22.5416 27.0659 22.7995 26.7999 23.0802 26.6094C23.2043 26.5241 23.3348 26.4485 23.4687 26.4452C23.8604 26.4354 24.1249 26.5438 24.3011 26.7506C24.7484 27.2728 24.7843 28.2021 24.9965 29.0625C25.2446 30.0739 25.6722 31 26.7495 31.4104C27.2588 31.6042 27.817 31.637 28.3687 31.5549C28.891 31.4761 29.4035 31.2955 29.8475 31.0591C30.7126 30.6026 31.372 29.8309 31.865 28.9246C32.5505 27.6603 32.9161 26.1234 33.1153 24.8854C33.7584 20.8561 30.9835 18.032 27.6407 16.9779C25.2087 16.2095 22.4763 16.3737 20.6286 17.6839C20.2825 17.9302 19.9594 18.2126 19.6917 18.5443C19.3065 19.0172 19.0225 19.582 18.8331 20.2223C18.7972 20.3209 18.8462 20.4292 18.9408 20.4653C19.0388 20.5015 19.1465 20.4522 19.1824 20.3537C19.4305 19.8053 19.7733 19.3554 20.1552 18.9581C20.4197 18.6888 20.7004 18.4458 21.0105 18.2389C22.7309 17.0895 25.2054 16.968 27.4187 17.6872C30.3992 18.6559 32.9161 21.155 32.3155 24.7508C32.1261 25.9067 31.7833 27.3385 31.1337 28.5174C30.7191 29.2726 30.1772 29.9229 29.4558 30.2972C29.0901 30.4877 28.669 30.6354 28.2446 30.6978C27.8431 30.757 27.4318 30.7372 27.0596 30.5928C26.1064 30.225 25.9236 29.2562 25.744 28.3532C25.5743 27.5026 25.4111 26.6817 24.9769 26.1694C24.6472 25.7819 24.1771 25.5291 23.4491 25.5455C23.2141 25.552 22.9823 25.6243 22.757 25.7491C22.3816 25.956 22.0323 26.3139 21.7548 26.5438C20.3478 27.7588 19.0943 29.624 18.8494 31.5024C18.8233 31.7158 18.8037 31.9293 18.807 32.1395C18.8201 32.9768 19.0257 33.8175 19.5807 34.5235C19.6917 34.6647 19.8125 34.7994 19.9594 34.9143C20.0116 34.9537 20.054 34.9964 20.1193 35.0161C20.1454 35.026 20.152 35.0194 20.1781 35.0227C20.1879 35.0325 20.2009 35.0325 20.214 35.0227C20.2238 35.0128 20.2238 34.9997 20.214 34.9898L20.2173 34.9997Z" fill="#FEEAE5"/>
</g>
</g>
</g>
</g>
</g>
<g id="Group_12">
<path id="Vector_81" d="M42.2803 4.90322C42.2803 -5.2439 54.3099 -8.06145 58.8671 -0.511862C62.4124 -2.3147 67.2242 1.08081 65.703 4.90322C70.3875 3.99359 77.8599 9.1788 74.8207 17.0633C80.2659 18.078 80.3932 26.1892 76.342 27.8804C79.8872 29.5715 78.9992 36.1064 73.936 35.8798C77.9873 38.6941 76.2146 48.0465 69.3788 48.2731C73.43 51.2023 69.8848 56.8374 65.7062 54.4697C69.5028 59.0901 65.3276 65.6053 57.9825 64.0356C57.4732 73.8478 42.2803 75.5192 42.2803 64.0356V4.90322Z" fill="#D4747A"/>
<g id="Clip path group_4">
<mask id="mask3_223_71" style="mask-type:luminance" maskUnits="userSpaceOnUse" x="42" y="-5" width="38" height="78">
<g id="clippath-3">
<path id="Vector_82" d="M42.2803 4.90286C42.2803 -5.24425 54.3099 -8.0618 58.8671 -0.512215C62.4124 -2.31505 67.2242 1.08045 65.703 4.90286C70.3875 3.99323 77.8599 9.17844 74.8207 17.063C80.2659 18.0777 80.3932 26.1888 76.342 27.88C79.8872 29.5712 78.9992 36.1061 73.936 35.8795C77.9873 38.6937 76.2146 48.0462 69.3788 48.2727C73.43 51.2019 69.8848 56.837 65.7062 54.4694C69.5028 59.0898 65.3276 65.6049 57.9825 64.0352C57.4732 73.8474 42.2803 75.5189 42.2803 64.0352V4.90286Z" fill="white"/>
</g>
</mask>
<g mask="url(#mask3_223_71)">
<g id="Group_13">
<g id="Group_14">
<path id="Vector_83" fill-rule="evenodd" clip-rule="evenodd" d="M58.0292 68.6161C58.0781 68.6226 58.1173 68.6193 58.163 68.5996C58.2511 68.5602 58.3001 68.4617 58.3425 68.3599C58.4535 68.1005 58.4601 67.7064 58.5286 67.5061C58.7963 66.6589 58.8322 65.7263 58.669 64.7871C58.509 63.861 58.1467 62.9383 57.6407 62.1042C57.4252 61.7495 57.1771 61.4146 56.9127 61.1026C56.0705 60.1207 55.0062 59.349 53.8278 59.0338C53.028 58.8203 52.1629 58.7776 51.3174 59.06C51.2064 59.0962 51.0954 59.1323 50.9942 59.198C50.8832 59.2702 50.8179 59.349 50.72 59.4442C50.6645 59.4639 50.6416 59.5263 50.6612 59.5789C50.6841 59.6314 50.7428 59.6577 50.7983 59.638C50.9256 59.638 51.0203 59.6675 51.1443 59.661C51.2521 59.6577 51.3533 59.6347 51.4577 59.6183C52.2216 59.4968 52.9431 59.5296 53.6319 59.7365C54.6765 60.0485 55.62 60.7085 56.3839 61.5689C57.2294 62.5179 57.8561 63.6968 58.1532 64.8987C58.3621 65.7558 58.4242 66.6228 58.2479 67.4273C58.212 67.6112 58.2479 67.9264 58.212 68.1924C58.1989 68.3041 58.1597 68.3993 58.1075 68.4748C58.0814 68.5143 58.0651 68.5537 58.0226 68.5799C58.0128 68.5799 58.0096 68.5931 58.0128 68.6029C58.0128 68.6128 58.0226 68.6161 58.0357 68.6161H58.0292Z" fill="#FEEAE5"/>
<path id="Vector_84" fill-rule="evenodd" clip-rule="evenodd" d="M52.0455 64.2715C51.9214 64.37 51.7484 64.3798 51.5623 64.37C51.2849 64.3536 50.9878 64.2747 50.7854 64.2386C50.5961 64.2091 50.4067 64.1697 50.2174 64.1303C49.4796 63.9858 48.732 63.7723 48.0596 63.4177C47.2369 62.9875 46.5252 62.3701 46.1107 61.5097C45.4055 60.0714 45.2227 58.6626 45.4153 57.3984C45.634 55.9436 46.3555 54.6793 47.3871 53.7795C48.8234 52.5284 50.8344 52.0227 52.9269 52.6565C53.6908 52.8896 54.471 53.2508 55.2382 53.8058C55.2741 53.8354 55.3263 53.8288 55.3557 53.7927C55.3818 53.7566 55.3785 53.704 55.3426 53.6745C54.6016 53.021 53.8377 52.5481 53.0575 52.2591C50.8344 51.4382 48.6015 52.0095 47.0182 53.3395C45.8658 54.305 45.0432 55.694 44.7918 57.2998C44.5763 58.6791 44.7918 60.2159 45.5655 61.7823C46.0552 62.7543 46.8582 63.4636 47.8049 63.9267C48.5394 64.2846 49.3523 64.5178 50.1554 64.59C50.361 64.6097 50.5602 64.6097 50.7625 64.6097C51.0107 64.5998 51.4122 64.636 51.719 64.5375C51.8725 64.4882 51.9933 64.416 52.0716 64.2977C52.0781 64.2912 52.0781 64.2813 52.0716 64.2747C52.0651 64.2682 52.052 64.2682 52.0488 64.2747L52.0455 64.2715Z" fill="#FEEAE5"/>
<path id="Vector_85" fill-rule="evenodd" clip-rule="evenodd" d="M71.6196 48.2662C71.5935 48.2071 71.6555 48.2564 71.6 48.2235C71.587 48.217 71.5706 48.2235 71.5543 48.2235C71.3813 48.2301 71.2148 48.2235 71.0385 48.2235C70.6076 48.2268 70.1669 48.2235 69.7229 48.171C68.2996 48.0134 66.8273 47.4945 65.4758 46.713C64.6042 46.2072 63.7816 45.603 63.0634 44.9101C60.7129 42.641 59.4757 39.4885 61.3005 36.5461C61.6727 35.9419 62.2538 35.4559 62.9067 35.0848C63.5726 34.7072 64.3137 34.4478 64.9992 34.3164C67.9438 33.7516 69.5205 35.6037 69.8666 37.4722C70.0755 38.615 69.8307 39.761 69.1451 40.3521C68.6979 40.7396 68.0646 40.8743 67.2354 40.6313C66.8665 40.5229 66.4552 40.3488 66.0079 40.0829C65.972 40.0566 65.9198 40.0697 65.8969 40.1058C65.8708 40.1452 65.8839 40.1945 65.9198 40.2208C66.3572 40.5459 66.762 40.7757 67.144 40.9202C68.1005 41.2815 68.8709 41.114 69.4128 40.6739C70.2159 40.0205 70.5293 38.7036 70.3007 37.3967C69.9351 35.3114 68.1984 33.2294 64.9111 33.8304C64.1733 33.965 63.3735 34.2376 62.6586 34.6382C61.9241 35.0487 61.2777 35.5971 60.8533 36.267C58.8587 39.4392 60.1155 42.8807 62.6586 45.337C63.4094 46.0628 64.268 46.7097 65.1918 47.222C66.6217 48.0166 68.1919 48.5224 69.6903 48.588C70.1604 48.6077 70.6239 48.5979 71.0679 48.5092C71.2442 48.4731 71.4139 48.4206 71.5804 48.3615C71.5967 48.3549 71.6163 48.3615 71.6261 48.345C71.6653 48.2925 71.6261 48.3615 71.6261 48.2991C71.6359 48.2991 71.6424 48.2892 71.6392 48.2794C71.6392 48.2695 71.6294 48.2629 71.6196 48.2662Z" fill="#FEEAE5"/>
<path id="Vector_86" fill-rule="evenodd" clip-rule="evenodd" d="M41.9281 33.8269C41.9836 33.8302 41.9379 33.8565 41.9836 33.8302C41.9967 33.8236 42 33.8039 42.0065 33.7908C42.1142 33.6102 42.2285 33.4526 42.3427 33.3015C42.6659 32.8713 43.0185 32.5561 43.4429 32.3295C44.0076 32.0274 44.6834 31.873 45.4995 31.8008C46.5147 31.6957 47.4288 31.7942 48.2417 32.0274C50.5137 32.6776 51.9926 34.4739 52.5573 36.4212C53.1025 38.2995 52.7956 40.2961 51.5257 41.544C50.7586 42.296 49.6584 42.7919 48.1535 42.8148C48.0948 42.8148 48.0458 42.8608 48.0425 42.9199C48.0425 42.979 48.0882 43.0283 48.147 43.0316C49.7662 43.1235 51.0034 42.6769 51.862 41.9052C53.3245 40.5884 53.6934 38.3422 53.1057 36.2603C52.5051 34.1258 50.8859 32.139 48.3984 31.4527C47.5169 31.2097 46.5278 31.1375 45.4375 31.2754C44.5495 31.3969 43.8183 31.5873 43.2274 31.9584C42.7736 32.2441 42.3884 32.6218 42.1077 33.1537C42.0163 33.3278 41.9379 33.5215 41.8694 33.7284C41.8628 33.7448 41.8498 33.758 41.8531 33.7744C41.8661 33.8269 41.8531 33.7744 41.8955 33.8138C41.889 33.8236 41.8955 33.8335 41.902 33.8368C41.9118 33.8401 41.9216 33.8368 41.9249 33.8269H41.9281Z" fill="#FEEAE5"/>
<path id="Vector_87" fill-rule="evenodd" clip-rule="evenodd" d="M46.7082 37.1596C46.7637 37.1464 46.7833 37.1202 46.8061 37.107C46.8322 37.0939 46.8159 37.0906 46.842 37.0841C46.8616 37.0775 46.8388 37.0742 46.8583 37.0643C46.9106 37.0414 46.8616 37.0578 46.8812 37.002C46.8877 36.979 46.8616 36.9625 46.8453 36.9363C46.7865 36.8542 46.5547 36.7885 46.4503 36.7622C46.1793 36.6966 45.8823 36.6834 45.5689 36.713C45.2946 36.7425 45.0106 36.8115 44.7266 36.8969C43.8746 37.1563 43.0226 37.6128 42.4284 37.9608C41.9975 38.2367 41.6352 38.611 41.3544 39.0576C40.9757 39.6586 40.7309 40.3876 40.6166 41.1495C40.5448 41.6289 40.522 42.1248 40.5546 42.6042C40.584 43.0541 40.6558 43.4876 40.7733 43.8882C40.8582 44.1805 40.9692 44.4465 41.0933 44.6927C41.1063 44.7354 41.1553 44.7551 41.1977 44.7387C41.2369 44.7223 41.2597 44.6763 41.2434 44.6336C41.1781 44.3808 41.139 44.1082 41.1063 43.8192C41.0639 43.4317 41.0508 43.018 41.0639 42.5944C41.0835 41.9277 41.1814 41.2414 41.3805 40.6076C41.6482 39.744 42.0955 38.9756 42.7941 38.5421C43.336 38.1776 44.1162 37.708 44.9029 37.4059C45.1543 37.3106 45.4024 37.2351 45.6472 37.1793C45.9116 37.1202 46.163 37.0742 46.4013 37.0906C46.4633 37.0906 46.6788 37.0479 46.6625 37.1202C46.6559 37.1464 46.6886 37.0742 46.6755 37.0643C46.6494 37.0446 46.7343 37.0808 46.7147 37.0512C46.7114 37.0446 46.7376 37.0611 46.7278 37.0611C46.7082 37.0611 46.7147 37.0972 46.6919 37.1202C46.6821 37.1235 46.6788 37.1366 46.6853 37.1432C46.6886 37.153 46.6984 37.153 46.7082 37.1497V37.1596Z" fill="#FEEAE5"/>
<path id="Vector_88" fill-rule="evenodd" clip-rule="evenodd" d="M54.8632 44.7852C55.2093 44.6998 55.539 44.6801 55.8687 44.6867C56.6391 44.6965 57.3638 44.9297 58.0298 45.3697C58.4281 45.6324 58.8035 45.9641 59.1528 46.3384C59.9101 47.1594 60.5304 48.2102 60.9221 49.3366C61.4967 50.9851 61.5848 52.7814 60.9156 54.1737C60.4782 55.0866 59.711 55.8222 58.5325 56.2196C57.9841 56.4264 57.3704 56.6629 56.7567 56.7548C56.5543 56.7844 56.3551 56.7975 56.1527 56.7975C55.9471 56.7975 55.7479 56.7877 55.5488 56.7417C55.5096 56.7286 55.4639 56.7515 55.4541 56.7909C55.4411 56.8303 55.4607 56.873 55.4998 56.8895C55.7022 56.9781 55.9144 57.0405 56.1331 57.0734C56.3486 57.1029 56.5706 57.0996 56.7926 57.0865C57.4389 57.0438 58.0951 56.8566 58.686 56.6891C61.9668 55.612 62.4695 52.164 61.4118 49.1658C60.9058 47.7308 60.0505 46.3975 58.983 45.5175C58.1277 44.8147 57.1386 44.3845 56.1233 44.4239C55.7773 44.4371 55.4313 44.5028 55.0918 44.6407C55.0102 44.6735 54.9351 44.7129 54.8567 44.7556C54.8469 44.7556 54.8437 44.7687 54.8469 44.7786C54.8502 44.7885 54.86 44.7917 54.8698 44.7885L54.8632 44.7852Z" fill="#FEEAE5"/>
<path id="Vector_89" fill-rule="evenodd" clip-rule="evenodd" d="M62.9028 35.0284C62.9257 35.0218 62.9354 35.0251 62.955 35.0152C63.0138 34.989 63.0562 34.9463 63.1019 34.9036C63.2423 34.7821 63.3566 34.6442 63.461 34.5029C64.1139 33.613 64.2706 32.5589 64.14 31.5245C63.9083 29.6691 62.6482 27.8334 61.2542 26.6447C60.9833 26.4181 60.6405 26.0667 60.2716 25.8631C60.066 25.7482 59.8505 25.6792 59.635 25.6727C58.9495 25.6562 58.5055 25.8894 58.1987 26.2539C57.6894 26.8548 57.5849 27.9024 57.3466 28.8876C57.1606 29.656 56.8831 30.3948 56.0637 30.7101C55.6752 30.8612 55.2443 30.8809 54.8199 30.8185C54.3792 30.7528 53.9483 30.6017 53.5729 30.408C52.8318 30.0205 52.2769 29.3539 51.8492 28.5789C51.1963 27.3901 50.8503 25.9419 50.6577 24.7762C50.0538 21.1212 52.6066 18.5795 55.6328 17.6009C57.8755 16.8752 60.3826 17 62.1226 18.1723C62.436 18.3858 62.7233 18.6321 62.9877 18.9112C63.3696 19.3151 63.7059 19.7814 63.9442 20.343C63.9703 20.4152 64.0486 20.4513 64.1205 20.4251C64.1923 20.3988 64.2282 20.32 64.1988 20.2477C63.9997 19.6205 63.7059 19.0721 63.3239 18.6091C63.0562 18.284 62.7396 18.0081 62.3968 17.7684C60.5622 16.4779 57.869 16.3202 55.4663 17.0821C52.1724 18.1264 49.4335 20.9078 50.0701 24.878C50.2692 26.1061 50.6316 27.6266 51.3106 28.881C51.7937 29.7709 52.4368 30.5229 53.2856 30.9695C53.7198 31.1994 54.2193 31.3767 54.7285 31.4522C55.2606 31.5311 55.7993 31.5015 56.2889 31.3143C57.3271 30.917 57.7318 30.0238 57.9702 29.0485C58.1856 28.1684 58.2346 27.2194 58.6916 26.6874C58.8907 26.4542 59.1813 26.3294 59.6155 26.3393C59.7722 26.3426 59.9223 26.4247 60.0692 26.5232C60.3532 26.7136 60.6144 26.9829 60.8266 27.1635C61.9202 28.0567 62.9191 29.3637 63.3925 30.7561C63.5459 31.2125 63.6406 31.6755 63.67 32.1386C63.7157 32.838 63.6014 33.5244 63.288 34.1975C63.1868 34.411 63.0562 34.608 62.942 34.8346C62.9126 34.897 62.8995 34.9528 62.8702 35.0152C62.8636 35.0218 62.8636 35.0349 62.8702 35.0382C62.8767 35.0448 62.8897 35.0448 62.893 35.0382L62.9028 35.0284Z" fill="#FEEAE5"/>
</g>
</g>
</g>
</g>
</g>
</g>
</g>
</g>
</g>
</g>
<defs>
<clipPath id="clip0_223_71">
<rect width="81" height="79" fill="white"/>
</clipPath>
</defs>
</svg>
