<svg width="393" height="198" viewBox="0 0 393 198" fill="none" xmlns="http://www.w3.org/2000/svg">
<path d="M-55.9788 160.315C-53.9928 134.195 -50.1115 59.1474 -48.1255 33.0278C-47.8056 33.1754 -47.4864 33.3337 -47.1608 33.4765C-44.2556 34.7482 -44.2144 34.628 -44.0243 31.4256C-43.835 28.2339 -43.3328 25.0714 -43.3768 21.8566C-43.391 20.7779 -42.8919 19.9044 -41.5348 19.2677C-41.7809 22.5034 -42.0058 25.3921 -42.2202 28.2817C-42.3621 30.1474 -42.5039 32.013 -42.5923 33.8774C-42.6906 36.0842 -40.6596 36.63 -39.3936 36.6994C-38.1542 36.7669 -38.7337 34.975 -38.8356 34.0666C-39.4059 29.2033 -40.1061 24.3624 -40.7679 19.5083C-40.9398 18.2568 -41.0717 17.0405 -42.7092 16.7283C-43.9994 16.4855 -43.4067 15.0133 -43.1085 14.9555C-40.8257 14.5072 -41.8908 12.85 -41.9744 11.7713C-42.1696 9.20986 -42.3803 6.57214 -45.3109 4.51038C-41.8568 4.81589 -40.9648 6.71194 -40.6554 8.89608C-40.4684 10.2292 -40.1869 11.5159 -39.792 12.7844C-39.6455 13.2459 -39.2045 13.4885 -38.7194 13.2895C-38.0794 13.0218 -38.4216 12.6044 -38.6097 12.1987C-38.9271 11.5259 -39.8347 11.0977 -39.3327 9.62393C-36.3469 12.3654 -33.8072 15.2124 -31.4092 18.0968C-27.8461 14.9311 -32.6057 12.6177 -32.2753 9.04537C-27.0805 15.8204 -24.2289 22.9265 -22.6005 30.5937L-21.8819 21.1427C-22.7344 20.5525 -23.0693 22.0764 -23.9775 21.305C-23.8529 19.8777 -22.6491 19.1489 -21.6467 18.3995C-20.4576 17.5141 -20.2863 16.4549 -21.0124 15.3971C-23.5363 11.7096 -24.1467 6.74149 -28.5374 4.49364C-28.0887 3.50911 -27.4342 4.24512 -27.0137 3.91253C-27.0963 2.96265 -28.2834 2.41668 -27.8204 0.682639C-21.9391 7.56342 -19.025 15.4624 -16.4182 23.96C-15.6848 22.1822 -15.827 20.6112 -14.2549 19.6746C-13.8506 21.5228 -15.2794 23.103 -14.8161 24.4571C-14.2527 26.1084 -12.0756 26.3489 -10.7192 27.4064C-9.00428 28.7377 -8.94065 25.8635 -7.62443 25.9046C-7.1064 26.6785 -7.54965 27.3096 -7.87813 27.9066C-8.37883 28.8014 -8.10274 29.3853 -7.30952 29.912C-6.28786 30.5956 -6.00811 29.7965 -5.45414 29.1846C-4.27639 27.8855 -3.84804 26.2561 -3.16553 24.7264C-2.94075 24.2288 -2.58114 23.082 -2.11561 23.4927C-0.629507 24.812 -0.74609 23.184 -1.00324 22.8428C-2.26079 21.187 -0.4653 21.3879 -0.0151433 21.3685C2.96601 21.2198 4.16353 19.5202 4.40575 16.7561C4.48973 15.7921 4.76571 14.8319 5.02413 13.8919C5.86832 10.868 6.10169 7.65817 7.86148 4.88612C7.05887 13.1942 4.35856 21.1702 3.55063 29.4779C6.17917 23.0779 7.75966 16.2712 11.2328 10.2143C11.6882 12.1629 10.317 13.6885 10.1792 15.5706C11.5389 15.1807 12.1989 13.6654 13.969 13.7785C12.6632 16.1294 9.84051 16.8637 8.99635 19.255C9.80737 20.1799 11.069 19.1821 12.0519 20.5864C7.28817 20.2242 7.6945 24.0831 6.62461 26.7736C6.12985 28.012 5.73846 29.2957 5.33725 30.568C5.16071 31.1336 4.81345 31.7667 5.74718 32.2719C7.56801 30.4535 7.39675 27.5775 8.92167 25.506C9.98842 26.4396 8.23169 28.1879 10.0893 28.4846C11.1711 28.658 12.2482 28.4021 12.8934 27.3628C13.2162 26.8405 13.501 26.2563 13.6424 25.6612C13.8865 24.629 14.4195 23.8707 15.3715 23.4337C17.3309 22.5319 17.939 20.9268 17.9452 18.8793C17.9503 17.2659 18.1229 15.6277 19.6805 14.1806C19.9601 17.1774 18.7141 19.8652 19.6523 22.3492C24.1705 21.8671 25.6811 17.7357 28.7549 15.455C28.3216 16.3764 27.8941 17.2928 27.2384 18.6798C29.4593 17.7121 31.1941 16.8843 32.9821 16.1999C34.6603 15.5555 36.1509 14.2856 38.3012 14.106C38.0924 14.6745 38.0884 14.7975 38.0324 14.8308C36.0694 15.8503 34.092 16.8473 32.1383 17.8836C31.6875 18.1227 30.8957 18.6308 30.9452 18.7525C31.8695 21.2086 29.9253 20.2941 29.0348 20.3444C25.4622 20.5445 24.4201 21.3231 23.189 24.8698C24.4177 26.7647 26.738 22.7324 27.793 25.7882C28.9665 25.0357 28.043 22.4993 30.343 22.6688C30.5875 24.3708 28.9897 26.1365 30.4996 27.7043C31.6286 28.8731 33.0218 29.9387 34.7441 29.3459C36.5873 28.7086 37.2779 27.0026 37.7033 25.2014C38.0268 23.8267 37.4192 22.2632 38.3971 20.8525C39.3679 21.8538 38.3066 23.1671 39.5957 24.1979C39.8738 22.155 41.7838 21.8338 42.7986 20.5706C43.099 20.2021 44.143 20.0295 43.8705 20.6628C43.4883 21.5452 45.5479 22.1361 44.1163 22.4883C42.2383 22.9513 41.9544 25.0689 40.2562 25.626C39.7469 25.791 39.2739 26.4628 39.6416 27.177C39.7483 27.3888 40.0311 27.6033 40.2583 27.6367C41.2465 27.7762 41.0427 27.0851 41.1554 26.445C41.3513 25.3447 42.3358 25.4625 43.0676 25.6736C44.2071 26.0015 43.2503 26.5721 43.1313 27.0831C42.7434 28.7424 42.2615 31.0058 43.5558 31.828C44.9775 32.7296 44.6763 33.2482 43.8575 34.3225C45.4264 34.0612 45.734 32.7549 46.6251 32.2758C48.7143 31.1426 47.2937 33.5276 48.0427 33.7937C49.5406 32.4278 50.8602 28.4911 49.8303 27.7051C48.0431 26.3414 48.895 25.8861 50.2246 25.1884C51.1092 24.7249 51.2136 23.7731 51.2772 22.8665C51.4015 21.0907 51.4732 19.3054 51.6502 17.5389C52.0335 13.6918 52.0218 9.77179 53.6479 5.45623C54.1969 11.5831 52.011 16.9391 52.9805 22.6637C55.5465 19.5454 54.9524 15.3452 57.0168 11.5884C57.564 13.3832 57.0794 14.4883 56.9122 15.5639C56.6261 17.4294 56.654 18.3268 59.1116 17.7578C61.7542 17.1438 64.4405 16.3776 67.2213 16.5462C67.7266 16.5739 68.6233 15.9504 68.6391 17.0775C68.6516 18.1078 67.8905 18.0714 67.1098 17.9423C65.1377 17.6048 63.3116 18.0181 61.5948 18.9599C63.3531 19.0882 64.9468 20.0457 66.807 19.2543C68.314 18.6129 69.5467 20.3151 68.9708 21.9172C68.3758 23.5608 67.7755 25.204 67.2536 26.8692C66.9091 27.9582 67.1049 28.8255 68.491 28.9309C69.7974 29.0302 71.758 29.308 71.8601 27.895C71.9687 26.4664 72.5939 25.4095 72.9596 24.1827C73.2388 23.2497 73.3582 22.031 74.5052 21.9091C76.088 21.7453 74.3809 23.7547 75.6351 23.9787C75.7295 23.9323 75.812 23.901 75.8851 23.853C77.3788 22.8943 76.1171 18.4825 80.0391 20.5017C80.1883 20.5773 80.6157 20.1541 80.8938 19.9394C82.229 18.8882 82.8862 17.5496 82.9706 15.8082C83.0266 14.5793 82.7394 13.1582 83.9406 12.1129C85.2735 13.3401 84.2977 14.9333 84.7772 16.2136C87.4837 15.1112 90.1817 14.2602 92.627 12.9396C94.7383 11.7973 94.2533 12.9078 94.7684 14.2819C95.115 15.2036 93.4219 16.8173 95.2998 16.8475C98.1748 16.8999 97.6015 17.9071 96.4113 19.5108C95.7508 20.3988 95.2927 21.4363 94.4664 22.8907C96.6539 21.4486 98.03 19.9288 99.2496 18.2201C100.798 16.0485 102.357 13.8831 103.956 11.7529C104.342 11.2408 105.371 10.354 105.524 11.2127C105.791 12.6967 107.235 14.5703 105.002 15.9071C104.336 16.3068 103.835 16.9925 103.294 17.5786C98.0328 23.2637 94.1392 29.7927 91.461 37.0574C91.1983 37.7719 90.9998 38.486 91.6982 38.9948C92.3309 39.4557 92.7443 38.8652 93.2907 38.5637C94.0605 38.1343 95.0447 37.0618 95.7555 37.6198C97.096 38.6761 97.7077 37.586 98.4696 37.0488C99.0058 36.6714 99.1658 35.8311 100.115 35.9891C101.74 36.2573 101.959 35.0623 102.236 33.8771C102.395 33.1922 102.115 32.2327 103.337 31.827C104.001 33.4216 103.609 35.0055 103.444 36.5317C103.206 38.6902 104.097 39.1923 106.082 38.866C107.748 38.5906 108.269 37.4937 108.518 36.124C108.919 33.9349 109.178 31.7243 109.59 29.536C110.128 26.6817 110.261 23.7324 111.455 20.7458C113.381 24.1466 116.118 20.6124 118.356 21.7959C117.63 22.6361 116.782 22.5501 116.027 22.7232C111.987 23.6546 111.647 24.0522 111.069 28.1472C110.661 31.0542 110.2 33.9518 109.713 36.8475C109.595 37.5462 109.131 38.3098 110.266 38.4979C111.146 38.6453 112.113 38.7188 112.565 37.6863C112.772 37.2141 112.959 36.5849 112.817 36.1292C111.828 32.9176 115.06 31.0134 114.728 27.3639C116.26 30.0538 116.095 29.8322 117.911 28.4959C121.193 26.0755 123.838 23.2582 125.286 19.3901C125.34 19.2388 125.669 19.1941 126.257 18.9118C123.664 27.014 120.817 34.6787 119.633 43.2901C120.902 41.285 121.197 39.2326 123.117 38.1454C123.438 40.6682 121.332 42.2398 121.11 44.5283C122.956 44.3363 123.1 42.9372 123.541 41.8448C125.32 37.4819 127.048 33.099 128.837 28.7423C129.309 27.588 129.875 26.1941 131.088 25.9004C132.634 25.5246 132.917 24.3935 133.412 23.2945C135.167 19.4016 136.895 15.4959 138.644 11.5972C138.856 11.1254 139.073 10.4503 139.705 10.6484C140.326 10.8404 140.669 11.5259 140.487 12.1662C140.269 12.9216 139.908 13.6662 139.478 14.3252C136.847 18.3713 134.839 22.7275 132.99 27.1655C132.708 27.8464 132.023 28.4967 132.766 29.3359C133.98 28.4095 135.122 27.4401 136.359 26.6175C138.024 25.511 139.646 24.5566 141.826 25.8107C143.499 26.7744 145.064 26.6413 145.53 24.0979C145.779 22.7229 146.626 21.4792 147.539 20.3637C147.874 19.9603 148.228 19.3117 148.773 19.5193C151.762 20.6688 154.751 20.628 157.8 19.7982C158.657 19.5631 159.559 19.7765 160.404 20.1195C162.648 21.0193 165.31 21.4147 165.676 24.5467C165.701 24.7738 165.597 25.0179 165.567 25.2086C164.593 25.5045 164.391 24.1649 163.533 24.3409C163.394 26.3837 164.219 28.3176 163.622 30.406C161.368 28.7978 159.175 27.0816 155.617 26.9451C157.841 29.0979 160.39 29.9244 161.567 32.2174C161.855 32.7808 162.788 33.4414 162.087 34.0208C161.363 34.6145 161.008 33.676 160.518 33.1616C158.079 30.6064 155.098 29.2003 151.511 29.3136C150.932 29.3339 150.425 29.6814 150.259 30.1834C149.521 32.3684 148.968 34.5888 149.014 36.9996C150.503 36.6624 149.686 35.1956 150.707 34.8336C151.071 35.0972 151.387 35.4375 151.781 35.6015C154.446 36.721 156.475 39.6149 160.211 37.4809C162.249 36.317 160.459 38.7865 160.914 39.4752C162.165 39.1736 163.319 38.827 164.221 40.0216C164.645 38.7349 164.143 37.4743 165.211 36.4136C166.612 38.5735 167.2 40.9558 168.801 42.7341C169.713 42.4014 169.432 41.1791 170.502 40.8744C170.993 41.3728 170.866 42.8322 172.042 42.5356C173.273 42.2217 172.178 41.1787 172.463 40.5195C172.663 40.0576 172.647 39.4291 173.357 39.3598C174.328 43.3902 174.297 43.5112 172.629 46.9711C172.426 47.39 171.892 47.8802 172.316 48.4164C172.56 48.7191 172.938 48.5977 173.233 48.3091C175.593 46.0009 176.728 38.5117 175.066 35.5706C172.961 31.856 170.834 28.1557 168.336 24.6793C167.911 24.0894 167.112 23.5676 167.704 22.2508C171.419 26.4309 173.812 31.2773 176.489 36.0326C177.876 34.4439 177.281 32.3667 179.018 31.0887C179.17 33.4485 178.278 35.4127 177.936 37.4508C177.69 38.9332 177.954 40.2294 179.045 41.0629C179.984 41.783 180.471 42.5331 180.621 43.6543C180.686 44.1311 180.798 44.9759 181.431 44.7989C182.567 44.4831 182.654 44.8061 182.404 45.7789C182.17 46.6832 182.56 47.5171 183.436 47.6535C184.45 47.811 184.051 46.8102 184.155 46.282C184.299 45.5799 184.88 45.6669 185.34 45.4446C188.572 43.9049 189.754 41.0676 188.637 37.7015C188.481 37.2286 188.104 36.7066 188.738 36.2401C189.922 36.2658 189.481 37.9211 190.512 38.1282C191.066 36.5244 190.872 34.66 192.344 33.3458C192.857 34.264 191.779 35.0935 192.641 35.7596C193.405 35.4852 192.883 34.0623 194.065 34.1843C194.668 35.3132 193.518 36.3838 193.966 37.5223C195.645 37.0066 196.337 35.1398 198.412 34.4666C197.268 36.7976 196.014 38.4715 196.529 41.1056C197.386 45.5027 197.012 45.5761 198.934 47.277C196.822 43.728 197.528 40.3397 199.024 36.8239C199.824 34.9439 199.64 32.3672 198.701 30.8857C197.379 28.8069 198.618 28.6653 199.808 27.6995C200.066 29.3007 199.607 30.767 200.724 32.1655C202.226 30.178 202.889 27.4995 205.859 27.0176C204.327 29.3138 201.407 30.2766 203.221 34.1728C204.203 36.2848 205.253 38.9219 205.369 41.9599C206.273 40.8867 206.023 39.6722 206.95 39.1475C208.143 41.0879 205.456 42.9262 207.095 45.4635C207.66 41.6785 208.124 38.4647 208.629 35.2542C209.241 31.4245 212.145 29.2058 215.28 30.1251C216.194 30.393 217.196 33.0158 216.486 33.2942C211.937 35.0929 212.531 38.6658 213.149 42.4765C213.666 41.5829 213.12 40.3351 214.746 39.81C214.339 43.1245 213.263 46.5383 217.808 48.578C216.4 46.5141 216.519 44.8825 217.364 43.3223C217.755 42.5961 217.974 41.5459 219.126 41.5691C220.608 41.6067 219.823 42.941 220.204 43.6187C220.646 44.4136 220.302 45.3578 220.16 46.237C220.011 47.1478 219.937 48.2574 221.03 48.4156C222.129 48.5796 222.391 47.4468 222.538 46.568C223.032 43.5871 222.651 40.663 221.326 37.9942C220.34 35.9998 220.754 34.4229 221.819 32.7775C221.935 35.2579 222.484 37.5246 223.567 39.714C225.137 42.884 225.292 42.9494 227.826 40.397C228.664 39.5547 229.823 38.71 230.829 39.2582C231.706 39.7377 232.213 41.004 231.492 42.2627C231.061 43.0127 231.091 44.1033 231.977 44.2458C232.827 44.3801 233.629 43.519 233.672 42.5357C233.745 40.9383 233.643 39.3381 233.615 37.7383C233.599 36.756 233.385 35.6997 234.775 34.9207C234.8 35.9251 234.88 36.6282 234.822 37.3154C234.613 39.6478 234.385 42.295 235.534 44.1088C236.918 46.2835 239.098 47.8914 238.485 50.8901C239.697 50.4836 239.435 52.7262 240.474 52.135C241.3 51.6617 240.698 50.6563 240.465 49.9308C240.142 48.9144 239.616 47.9576 239.358 46.9301C239.152 46.121 238.335 45.0026 240.079 44.6795C241.141 44.4815 242.137 43.9567 242.276 45.7098C242.347 46.5998 243.059 47.2168 243.864 47.3049C244.955 47.4254 244.831 46.2472 245.236 45.6292C245.841 44.7048 245.846 43.2952 247.234 42.8216C247.683 44.1479 246.324 44.9506 246.96 46.4251C249.733 43.387 253.046 41.0547 253.835 36.7881C254.044 35.6566 254.334 34.5153 254.767 33.4492C255.05 32.7522 254.954 31.2759 256.241 31.7759C257.227 32.1564 256.509 33.1634 256.241 33.8775C255.926 34.7221 255.59 35.5597 255.058 36.9347C258.29 34.6606 259.978 32.5443 260.124 30.586C261.074 31.7091 262.267 31.8999 263.702 31.1583C263.06 33.1307 262.193 34.9091 261.934 36.7766C261.522 39.7369 259.594 42.9573 262.784 45.6124C262.425 46.3357 261.067 46.0019 261.1 47.0391C261.125 47.8292 262.359 46.9204 262.541 47.969C259.957 49.1504 260.629 51.4747 260.611 53.6822C260.591 55.5625 260.42 55.5602 263.577 57.8751C263.716 56.6794 263.085 55.3501 264.106 54.082C264.727 55.121 264.177 56.3123 265.151 56.9815C266.179 56.3251 265.321 54.8927 266.354 54.2261C268.185 53.0464 268.165 52.6106 266.493 51.3522C265.932 50.9289 264.916 50.9482 264.881 49.7178C266.655 49.8526 268.188 51.3256 270.23 50.0387C269.98 50.9418 269.873 51.368 269.745 51.7871C269.56 52.3896 269.262 53.1497 270.119 53.3328C270.865 53.4914 271.065 52.6917 271.29 52.1191C271.822 50.7441 271.604 49.532 270.61 48.411C270.158 47.8994 269.574 46.9382 270.856 46.9285C273.273 46.9031 272.918 45.2516 272.975 43.7977C273.034 42.108 272.992 40.416 273.066 38.7328C273.217 35.3452 272.541 31.8732 274.119 28.6102C275.144 33.819 273.657 39.1102 274.505 44.5413C275.429 43.1372 275.523 41.5413 276.512 40.6944C277.959 41.2601 275.496 42.7456 277.739 43.1734C281.14 43.8234 279.202 40.8614 280.233 39.7281C280.823 40.5397 281.317 41.2152 281.892 42.0148C282.533 39.2703 285.103 40.3825 286.543 39.3608C286.752 39.2105 287.172 39.934 286.996 40.1405C285.404 41.9763 287.702 45.1159 284.844 46.5284C284.455 46.724 284.377 47.3293 284.679 47.7221C285.272 48.491 285.505 47.608 285.894 47.407C286.589 47.0417 287.52 46.2493 287.979 46.4612C290.726 47.7048 289.689 45.6798 289.67 44.6007C289.59 39.3351 290.296 34.0489 289.024 28.7142C290.535 28.9416 290.557 29.9834 290.764 30.7712C291.18 32.3308 291.186 33.9289 291.085 35.5457C290.857 39.0991 290.993 42.6479 291.273 46.2076C291.426 48.1279 293.656 46.8982 294.029 48.3151C294.037 48.3479 294.588 47.918 294.567 47.5625C294.412 45.106 295.111 43.0146 297.01 41.3522C297.285 41.1104 297.287 40.5262 297.363 40.0923C297.948 36.6734 298.598 33.2594 299.083 29.8275C300.023 23.1597 303.601 20.0112 310.289 20.0747C310.828 20.0782 311.404 19.9398 311.656 20.5701C311.933 21.2721 311.628 21.7046 310.961 22.0506C310.455 22.3123 309.17 22.4184 310.071 23.4251C311.947 25.5246 309.779 25.3062 308.852 25.5467C307.79 25.8198 306.597 25.6272 305.563 26.8031C307.456 27.6172 309.565 27.2683 311.635 29.0555C309.516 28.8944 308.066 28.8645 306.639 28.6596C303.179 28.1552 299.44 30.4015 299.602 34.3865C299.65 35.5107 299.152 36.6523 299.011 37.7997C298.923 38.5329 298.372 39.5954 299.384 39.919C300.364 40.2347 300.917 39.3546 301.295 38.4665C301.97 36.8881 302.11 35.0544 303.425 33.6264C304.206 34.8116 303.445 35.6867 303.162 36.523C302.654 38.0123 302.636 38.8848 304.579 38.8985C307.125 38.9152 307.803 40.7468 307.985 42.8568C308.104 44.2384 308.11 45.6328 308.611 46.9898C310.44 46.0458 310.751 44.4879 310.633 42.6561C313.313 44.5058 312.947 47.2873 313.567 50.3046C315.299 46.2009 316.103 42.3804 318.007 38.8312C318.813 39.9647 318.176 40.758 317.94 41.5389C316.89 45.0244 315.902 48.536 314.664 51.9589C314.002 53.7744 315.133 54.7878 316.085 55.6108C316.977 56.381 318.96 56.5746 319.46 55.6155C320.472 53.6873 321.175 54.6307 322.277 55.9476C321.716 51.3102 321.166 47.2367 321.509 43.1453C322.768 44.2918 322.206 45.7074 322.516 46.9694C322.768 48.0073 322.73 48.1651 323.023 48.0963C324.925 47.6673 325.037 49.0054 325.197 50.2721C325.316 51.2408 325.294 52.231 325.44 53.1964C325.589 54.1782 324.719 55.6507 326.026 56.0289C327.139 56.3547 326.919 54.4616 327.857 54.0718C327.984 54.0171 328.166 54.0846 328.309 54.0955C328.903 55.0628 327.289 56.5485 328.98 57.1488C330.509 57.6886 331.143 56.3 331.993 55.4532C332.686 54.7661 333.311 53.9986 334.033 53.3459C335.226 52.2731 335.285 51.1517 334.524 49.7803C332.974 46.9818 331.475 44.1443 330.031 41.2895C329.501 40.2466 328.69 39.2467 328.818 37.8518C330.07 38.1078 330.241 39.0912 330.628 39.8283C332.242 42.8998 333.813 45.9894 335.372 49.0889C336.017 50.3764 336.689 50.5293 337.773 49.4805C338.586 48.6899 339.39 47.668 341.067 47.6775C340.357 49.1462 339.191 49.7224 338.346 50.5856C337.714 51.2292 336.892 51.8583 337.565 52.8477C339.531 55.7261 340.246 59.7318 344.381 60.4965C344.353 61.4326 342.903 60.62 343.221 61.6361C343.689 63.13 347.47 63.7123 348.547 62.604C351.201 59.8732 350.753 56.1398 351.812 52.8962C352.238 51.5829 351.391 49.1542 353.365 49.1917C355.258 49.2284 354.918 51.6741 355.239 53.13C356.327 58.0111 357.267 62.9292 358.261 67.8301C358.62 64.3081 358.438 60.8684 358.251 57.4336C358.105 54.7847 357.309 51.9792 357.912 49.5213C359.39 43.5057 359.054 38.0813 354.96 33.2021C354.764 32.9674 354.711 32.6149 354.495 32.0784C356.917 32.402 357.227 35.846 359.862 35.1886C359.269 36.3123 358.93 37.3963 359.455 38.7176C360.082 40.304 360.222 42.0463 359.945 43.7194C359.435 46.7742 360.776 48.6668 363.296 50.0111C364.866 47.7768 364.987 44.848 367.222 43.1308C367.585 42.8528 368.13 42.0846 368.402 42.9953C369.111 45.3385 371.097 44.5084 372.323 44.3335C374.018 44.0925 372.589 42.8687 372.458 42.0599C372.432 41.9078 372.484 41.6544 372.584 41.5923C375.676 39.7043 373.209 38.927 371.915 37.7456C370.192 36.1724 366.93 35.5223 368.155 31.8411C370.375 33.4895 371.284 36.6414 374.503 37.224C373.908 34.305 373.278 31.6301 371.786 29.2595C370.581 27.3397 368.908 26.1563 366.548 26.1484C364.834 26.1414 363.824 27.1905 363.557 28.666C363.207 30.607 365.182 29.2828 365.774 29.998C365.877 30.1184 365.906 30.3029 366.01 30.5574C364.794 31.0119 363.495 31.3098 362.399 31.9556C361.18 32.6725 361.331 34.6194 359.833 35.2186C359.996 32.5878 360.885 30.1677 362.1 27.8797C364.058 24.1952 367.742 23.5103 371.014 26.1341C372.369 27.2183 373.589 28.5871 373.909 30.2091C375.221 36.9086 379.288 41.3783 384.539 45.3857C386.861 47.1599 388.569 47.1075 390.516 45.8777C397.008 41.7713 403.811 41.4521 410.955 43.6574C418.152 45.8773 424.077 50.2201 429.81 54.9023C432.446 57.0542 432.369 56.9411 434.387 54.1458C436.184 51.65 434.017 50.5738 432.829 49.2772C431.339 47.652 430.85 49.6575 429.999 50.3112C429.823 50.448 429.546 50.4429 428.657 50.681C432.113 46.6064 428.676 44.7474 426.764 42.4843C424.873 40.2442 422.81 38.1519 420.85 35.9709C420.456 35.5335 419.777 34.9833 420.324 34.3869C420.97 33.6854 421.621 34.33 422.153 34.7833C422.483 35.0711 422.772 35.4201 423.033 35.7831C425.131 38.6822 427.838 41.0165 430.188 43.6775C431.575 45.2466 432.703 45.5951 434.655 44.3603C438.111 42.1837 439.748 42.6405 442.363 45.7613L432.646 197.568C431.319 197.527 429.988 197.538 428.666 197.437C268.45 185.261 108.23 173.079 -51.9845 160.892C-53.3069 160.791 -54.6208 160.579 -55.9387 160.419L-55.9788 160.315ZM425.832 54.6105C426.462 56.0201 427.064 57.4491 427.738 58.8407C428.029 59.4365 428.018 60.4222 428.932 60.4113C429.654 60.4018 430.232 59.8292 430.569 59.19C431.004 58.376 430.381 57.8622 429.868 57.3782C423.832 51.6116 417.242 46.7517 409.022 44.5666C403.048 42.9758 397.246 43.1351 391.879 46.5604C390.785 47.2599 388.81 47.6566 389.169 49.4049C389.586 51.431 391.745 51.4879 393.359 52.0342C393.677 52.1441 394.078 51.9977 394.414 52.0715C397.513 52.7575 400.671 53.2442 403.525 54.7587C400.753 55.32 398.393 53.055 395.199 53.8361C397.104 56.3185 399.361 57.6857 401.996 58.5026C404.094 59.15 406.461 60.0591 406.915 62.1631C407.506 64.9316 409.975 66.0361 411.035 68.2559C411.422 69.0681 412.273 69.1757 413.123 69.0365C415.481 68.6529 417.843 68.2856 420.201 67.8967C420.834 67.7947 421.458 67.5955 421.527 66.8234C421.584 66.2165 421.09 65.9055 420.701 65.5381C419.915 64.7814 418.558 64.7748 417.776 63.1873C420.527 64.0291 422.573 65.4339 424.929 66.0687C426.839 66.5839 427.627 65.6358 427.472 64.1551C427.283 62.3554 427.362 60.4742 426.479 58.7397C425.871 57.5407 425.281 56.2306 425.831 54.6158L425.832 54.6105ZM-31.6358 24.4489C-31.3856 20.7364 -33.9409 16.4085 -36.6602 15.1509C-38.1463 14.4643 -39.1482 14.7151 -39.1251 16.5183C-39.0586 21.756 -38.136 26.9034 -37.3155 32.059C-37.0633 33.6598 -35.7989 33.8203 -34.4982 33.8548C-32.9737 33.8957 -32.355 32.8544 -32.4338 31.6421C-32.6143 28.9584 -32.189 26.3852 -31.6305 24.4493L-31.6358 24.4489ZM329.524 67.6287C331.24 66.124 331.681 65.8091 332.477 66.6523C333.327 67.5533 334.746 68.3475 334.758 69.7423C334.772 71.5984 336.168 72.557 337.172 73.5341C337.898 74.2434 338.604 72.6189 339.324 72.0732C340.463 71.2108 341.617 70.4354 343.009 70.0426C343.691 69.8532 344.528 69.5952 344.32 68.6787C343.85 66.6325 343.641 64.3273 341.651 63.109C338.685 61.2966 335.456 60.1396 331.955 59.8145C330.725 59.6995 330.097 60.0807 330.003 61.3227C329.861 63.2581 329.709 65.1927 329.523 67.634L329.524 67.6287ZM365.805 52.4268C366.979 51.744 368.083 52.2569 369.171 52.3397C370.074 52.4083 371.312 53.6926 371.774 51.9049C372.266 50.0015 373.552 47.7618 371.858 46.1639C370.727 45.0914 368.691 44.3255 367.014 45.7956C365.429 47.187 363.874 52.6017 364.659 53.5942C364.766 53.731 364.893 53.8855 365.043 53.9451C366.51 54.5285 367.84 55.5142 369.513 55.502C370.021 55.4977 370.716 55.6954 370.889 55.0383C371.102 54.2021 370.295 54.071 369.756 53.8584C368.485 53.3544 366.937 53.6227 365.799 52.4317L365.805 52.4268ZM394.058 56.3979C396.952 63.4429 401.423 68.2167 408.871 69.6729C405.434 63.6536 399.98 60.0113 394.058 56.3979ZM353.669 52.7747C353.544 52.7384 353.413 52.7017 353.288 52.6653C352.518 56.1131 351.701 59.552 350.995 63.0099C350.432 65.7818 351.243 67.1195 353.866 68.1017C356.016 68.9085 356.972 68.2145 356.527 65.9879C355.645 61.5674 354.633 57.1746 353.675 52.7698L353.669 52.7747ZM260.138 34.9673C257.476 37.3115 255.944 39.8972 254.233 42.2977C253.57 43.223 252.736 44.634 254.422 45.443C256.24 46.3212 259.302 45.53 259.503 44.1566C259.912 41.3033 260.366 38.4266 260.143 34.9677L260.138 34.9673ZM364.592 73.2921C365.368 73.1313 365.552 73.0327 365.71 73.0661C367.63 73.4587 368.392 72.2889 368.484 70.7197C368.595 68.6962 366.915 69.5764 365.952 69.4656C364.993 69.3552 364.009 69.4465 363.041 69.5284C362.186 69.5975 361.462 69.9177 361.489 70.9706C361.528 72.5712 361.481 74.2457 362.83 75.3938C363.537 75.9998 364.059 77.6371 365.27 76.6677C366.419 75.7525 366.582 74.3816 364.592 73.2921ZM363.923 56.3154C362.54 59.47 364.601 66.1515 367.014 67.3696C367.759 67.748 368.489 67.707 368.855 66.9682C369.646 65.3502 370.492 63.5595 368.415 62.2864C366.277 60.9712 364.889 59.1286 363.928 56.3159L363.923 56.3154ZM121.062 29.277C121.221 28.8656 121.456 28.3741 121.07 28.0445C120.554 27.5978 120.078 28.0334 119.67 28.3401C117.2 30.1897 117.115 33.2767 115.9 35.7738C115.494 36.6115 114.719 37.8875 116.398 38.353C117.763 38.7302 118.61 37.8563 118.978 36.662C119.736 34.2158 120.373 31.7391 121.062 29.2717L121.062 29.277ZM378.304 58.1113C378.097 54.3801 377.284 51.2248 376.58 48.051C376.461 47.5111 376.122 47.0564 375.51 47.026C374.839 46.9911 374.62 47.4891 374.519 48.0444C374.217 49.6995 373.909 51.3542 373.634 53.0114C373.515 53.7368 373.544 54.7577 374.28 54.8404C376.164 55.0642 376.598 56.8824 378.304 58.1113ZM338.119 59.5379C338.953 59.5263 340.089 59.6877 339.471 58.4022C338.673 56.7492 337.592 55.2302 336.582 53.6844C336.171 53.0527 335.512 53.0026 335.007 53.5432C333.942 54.6846 332.305 55.7718 332.33 57.2749C332.352 58.5311 334.328 58.2525 335.402 58.7362C336.27 59.1239 337.246 59.2892 338.119 59.5379ZM382.706 69.2759C384.462 68.0262 386 67.7517 387.196 69.7942C387.277 69.929 387.452 71.5614 388.275 70.3587C388.803 69.5947 390.435 69.2041 389.918 68.2855C388.901 66.4765 387.453 64.8759 385.409 64.0771C385.046 63.9369 384.526 63.8867 384.282 64.4311C383.62 65.898 382.281 67.1419 382.706 69.2759ZM438.415 44.303C436.784 44.1897 433.498 45.811 433.782 46.7869C434.227 48.3112 435.375 49.5083 436.741 50.2984C437.411 50.6871 440.423 47.3937 440.48 46.299C440.547 44.9906 439.869 44.3546 438.415 44.303ZM138.412 35.0193C137.101 34.9893 136.125 34.899 135.153 34.9645C134.235 35.0234 133.273 35.3095 133.287 36.4579C133.309 38.143 133.448 39.8316 133.652 41.5038C133.716 42.0556 134.077 43.0105 134.844 42.2646C135.691 41.4444 137.085 41.1697 137.207 39.4955C137.315 38.0723 137.312 36.4958 138.418 35.0197L138.412 35.0193ZM385.299 59.2007C387.869 60.2379 387.865 60.2321 388.389 57.7575C388.432 57.5517 388.682 57.2812 388.877 57.2424C390.575 56.8997 389.3 56.0414 389.138 55.493C388.845 54.5003 388.181 54.8787 387.434 55.074C385.903 55.4775 385.837 57.4616 384.15 57.8051C383.239 57.9878 382.098 58.8715 382.168 60.0563C382.24 61.2145 383.558 61.2343 384.392 61.6515C384.777 61.847 385.175 62.0918 385.725 61.7475C385.608 61.0416 385.478 60.2866 385.294 59.2003L385.299 59.2007ZM106.259 49.4575C106.618 47.3402 107.03 45.2967 107.293 43.2365C107.425 42.2064 108.131 40.3729 106.553 40.462C105.288 40.532 104.114 42.1316 102.895 43.0522C104.66 44.4356 102.756 45.0897 102.31 46.0369C101.999 46.6941 101.672 47.4842 102.305 48.0041C103.291 48.8082 103.36 47.6232 103.753 47.1599C104.709 46.037 105.375 46.3396 105.709 47.6356C105.862 48.221 105.726 48.8808 106.264 49.4632L106.259 49.4575ZM-20.4768 19.6626C-20.0705 22.6797 -20.9769 25.6078 -20.536 28.5204C-20.3859 29.4968 -21.5328 31.0931 -19.7929 31.3219C-17.9524 31.5637 -17.9736 29.6642 -17.6643 28.476C-17.3468 27.251 -17.6634 25.8651 -18.2873 24.8687C-19.3157 23.2196 -19.8152 21.4285 -20.4772 19.6679L-20.4768 19.6626ZM385.783 48.6917C384.968 46.9087 382.749 44.692 379.736 42.7205C379.197 42.3685 378.656 41.55 377.903 42.1737C377.35 42.6356 377.74 43.3354 377.855 43.9232C378.298 46.1765 382.018 48.4054 385.783 48.6864L385.783 48.6917ZM356.872 75.0801C356.528 72.8559 352.086 68.4756 350.571 68.4409C350.406 68.4391 350.182 68.4381 350.078 68.5374C347.977 70.4632 351.981 71.5397 350.76 73.5485C350.388 74.1582 351.943 74.6357 352.29 74.2921C353.988 72.6091 355.234 73.9316 356.877 75.0805L356.872 75.0801ZM343.85 72.1921C342.236 73.7475 340.705 74.698 339.832 76.2829C339.044 77.7135 340.166 78.1312 341.019 78.7268C342.14 79.509 342.644 78.8397 342.932 77.8697C343.43 76.1705 343.88 74.4569 344.305 72.7361C344.537 71.7994 344.295 70.9768 343.152 71.3188C341.179 71.9086 339.477 72.9373 338.215 75.4094C340.396 74.2724 340.862 71.6593 343.85 72.1868L343.85 72.1921ZM258.952 52.5964C259.21 49.6244 258.937 49.4267 256.165 50.6849C255.452 51.006 254.678 51.3439 254.151 51.8882C253.716 52.3323 253.069 53.2588 253.669 53.728C254.895 54.679 256.313 55.827 257.731 55.9402C258.984 56.0408 258.531 54.1245 258.896 53.1229C258.956 52.9613 258.928 52.7715 258.947 52.596L258.952 52.5964ZM275.957 47.4289C276.73 47.3751 277.06 47.8183 277.451 48.1484C279.304 49.7046 279.667 49.566 280.226 47.1316C280.385 46.4414 280.57 45.7638 280.714 45.0724C280.822 44.5606 280.643 44.2414 280.078 44.1609C277.653 43.8156 273.456 48.6327 274.02 51.1257C274.12 51.5623 274.233 52.048 274.759 52.088C275.47 52.1421 275.612 51.547 275.667 51.0258C275.795 49.8346 275.86 48.6385 275.952 47.4232L275.957 47.4289ZM379.268 63.6317C375.339 67.1127 375.148 68.224 377.632 71.0292C378.65 72.1789 379.334 72.1076 379.909 70.6555C380.842 68.2924 379.776 66.1579 379.268 63.6317Z" fill="#001B35"/>
</svg>
