<svg width="98" height="69" viewBox="0 0 98 69" fill="none" xmlns="http://www.w3.org/2000/svg">
<g id="Layer_1" clip-path="url(#clip0_223_212)">
<g id="Group">
<path id="Vector" d="M83.6562 31.7798C83.6562 31.7798 87.5695 28.9704 92.3436 32.3168C97.1177 35.6633 92.8249 41.9405 92.3425 42.6319C91.8601 43.3233 85.0597 48.7356 76.6855 49.6113L83.6088 31.9022L83.6567 31.7803L83.6562 31.7798Z" fill="#FF424D"/>
<path id="Vector_2" d="M76.8799 26.3643C71.0806 25.6409 69.9842 33.1486 69.8707 33.982C69.7573 34.8154 71.1004 43.3625 76.6889 49.6118L83.6122 31.9027L83.66 31.7808C83.66 31.7808 82.6796 27.0877 76.8799 26.3643Z" fill="#EF3A4C"/>
<path id="Vector_3" d="M76.6792 49.6349C76.6755 49.6333 76.6724 49.6313 76.6698 49.6282C73.7145 46.3235 72.0191 42.4452 71.1172 39.7737C70.0853 36.7169 69.7892 34.3897 69.8454 33.9787C69.9464 33.2388 70.2825 31.3288 71.2208 29.5779C71.8021 28.493 72.515 27.6633 73.3398 27.1118C74.3551 26.4328 75.5468 26.1731 76.8827 26.3399C76.8962 26.3414 76.9056 26.3538 76.904 26.3672C76.9024 26.3807 76.8899 26.3905 76.8764 26.3884C71.3119 25.6944 70.0843 32.5949 69.8948 33.9849C69.8392 34.3928 70.1353 36.7086 71.1646 39.7577C72.0649 42.4246 73.7577 46.2967 76.7073 49.5951C76.7161 49.6054 76.7156 49.6209 76.7052 49.6297C76.6979 49.6359 76.688 49.6374 76.6797 49.6343L76.6792 49.6349Z" fill="#20111D"/>
<path id="Vector_4" d="M83.6474 31.8025C83.6433 31.8009 83.6391 31.7978 83.6365 31.7942C83.6287 31.7834 83.6308 31.7679 83.6422 31.7601C83.6521 31.7529 84.6434 31.0512 86.2057 30.7693C87.1231 30.6035 88.0557 30.6133 88.9773 30.7971C90.1289 31.0269 91.2665 31.5314 92.3582 32.2966C92.3692 32.3044 92.3723 32.3199 92.364 32.3307C92.3562 32.3415 92.3406 32.3446 92.3296 32.3364C89.8713 30.6133 87.6487 30.5591 86.2166 30.8168C84.6643 31.0961 83.6807 31.7921 83.6708 31.7994C83.6636 31.8045 83.6547 31.8051 83.6474 31.8025Z" fill="#20111D"/>
<path id="Vector_5" d="M92.5565 34.2401C92.5498 34.2375 92.544 34.2318 92.5419 34.2246C92.3229 33.5508 91.5803 33.1811 91.5725 33.1775C91.56 33.1713 91.5553 33.1568 91.561 33.1444C91.5673 33.1325 91.5818 33.1274 91.5943 33.133C91.6021 33.1367 92.3635 33.5157 92.5888 34.2091C92.5929 34.222 92.5857 34.236 92.5726 34.2401C92.5669 34.2416 92.5612 34.2416 92.556 34.2401H92.5565Z" fill="#20111D"/>
<path id="Vector_6" d="M92.5215 34.7875C92.5142 34.7844 92.508 34.7782 92.5064 34.7699C92.3565 34.0785 91.6551 33.636 91.6483 33.6314C91.6368 33.6241 91.6332 33.6092 91.6405 33.5973C91.6478 33.5859 91.6629 33.5823 91.6743 33.5896C91.6816 33.5942 92.4003 34.047 92.5548 34.7596C92.5574 34.773 92.5491 34.7859 92.5361 34.7885C92.5314 34.7895 92.5262 34.789 92.522 34.7875H92.5215Z" fill="#20111D"/>
<path id="Vector_7" d="M74.5162 45.3207C74.511 45.3186 74.5058 45.3145 74.5032 45.3088L73.7596 43.8765C73.7534 43.8646 73.758 43.8496 73.77 43.8434C73.782 43.8372 73.7971 43.8419 73.8033 43.8538L74.547 45.2861C74.5532 45.298 74.5485 45.313 74.5365 45.3192C74.5298 45.3223 74.5225 45.3228 74.5162 45.3202V45.3207Z" fill="#20111D"/>
<path id="Vector_8" d="M75.3404 46.1991C75.3357 46.197 75.331 46.1939 75.3284 46.1888L74.4188 44.7043C74.4115 44.6929 74.4151 44.6774 74.4271 44.6707C74.4386 44.6635 74.4542 44.6671 74.4609 44.679L75.3706 46.1635C75.3779 46.1748 75.3742 46.1903 75.3623 46.197C75.3555 46.2012 75.3472 46.2017 75.3404 46.1991Z" fill="#20111D"/>
</g>
<g id="Group_2">
<path id="Vector_9" d="M22.4366 36.7207H23.0215V35.908H22.4366V36.7207Z" fill="#FDEACF"/>
<path id="Vector_10" d="M5.71382 46.2359C5.88763 46.6794 6.55321 48.1087 8.12011 48.7417C8.61812 48.9431 9.1536 49.0433 9.72291 49.0433C10.3765 49.0433 11.0749 48.9105 11.8128 48.6457C12.1521 48.6606 12.9816 48.64 13.6534 48.1639C14.1103 47.8407 14.3997 47.3822 14.5178 46.7987C14.8841 46.8168 15.3587 46.7775 15.7693 46.5379C16.004 46.4011 16.2793 46.1579 16.4271 45.736C16.5749 46.1579 16.8502 46.4006 17.0849 46.5379C17.4955 46.7775 17.9701 46.8168 18.3364 46.7987C18.454 47.3827 18.7439 47.8407 19.2008 48.1639C19.8726 48.6395 20.7016 48.6601 21.0409 48.6457C21.7788 48.9105 22.4772 49.0433 23.1308 49.0433C23.7001 49.0433 24.2351 48.9426 24.7336 48.7417C26.3005 48.1092 26.9661 46.6794 27.1399 46.2359C29.4827 44.5056 29.6867 42.5739 29.4395 41.249C29.2272 40.1099 28.6579 39.2342 28.4122 38.8981C28.7697 36.7124 28.0781 35.233 27.4245 34.3702C26.9452 33.7367 26.4165 33.3344 26.0949 33.1253C26.3041 31.9744 25.9409 30.8921 25.0338 29.9807C24.5712 29.516 24.0696 29.2 23.7573 29.0281C23.7542 28.5277 23.4217 27.6231 21.3807 26.8331C20.2416 26.3916 19.3033 26.3049 18.5914 26.5749C18.2001 26.7236 17.9664 26.9472 17.8342 27.1228C17.0011 27.2684 16.5947 27.7945 16.4255 28.2835C16.2569 27.7945 15.85 27.2684 15.0168 27.1228C14.8847 26.9472 14.6515 26.7231 14.2597 26.5749C13.5483 26.3054 12.61 26.3921 11.4704 26.8331C9.42941 27.6231 9.09688 28.5283 9.09428 29.0281C8.78204 29.1995 8.28039 29.5155 7.81724 29.9807C6.91072 30.8921 6.54749 31.9744 6.75668 33.1253C6.43508 33.3344 5.90688 33.7367 5.42708 34.3702C4.77399 35.233 4.08239 36.7124 4.4399 38.8981C4.1948 39.2342 3.62497 40.1099 3.41265 41.249C3.16547 42.5739 3.36998 44.5056 5.71226 46.2359H5.71382ZM19.2533 45.7386L18.631 45.9023C18.4629 45.9452 17.9539 46.0175 17.6485 45.8372C17.4611 45.7268 17.3524 45.5135 17.3263 45.2037V28.8706C17.3263 28.8567 17.33 28.6098 17.4554 28.3713C17.5995 28.0971 17.8353 27.9587 18.198 27.9365L18.5565 27.9143L18.6377 27.6438C18.6533 27.6112 18.7491 27.4388 19.0218 27.3422C19.1373 27.3014 19.2934 27.2704 19.5016 27.2704C19.8383 27.2704 20.3113 27.352 20.9665 27.6055C22.9518 28.3744 22.7623 29.0875 22.7592 29.0942L22.5901 29.453L22.9955 29.6296C23.1037 29.6776 25.6776 30.842 25.0562 33.225L24.9771 33.528L25.2935 33.684C25.2982 33.6866 25.9638 34.0268 26.5581 34.7962C26.5763 34.8194 26.594 34.8437 26.6122 34.868C26.7334 35.0317 26.8422 35.201 26.939 35.3766C27.4927 36.3798 27.6462 37.5716 27.3959 38.9296L27.3647 39.0994L27.4818 39.2399C27.4885 39.2481 28.2332 40.1616 28.4575 41.4116C28.75 43.0428 28.0521 44.4751 26.3827 45.6689L26.2635 45.7541L26.2224 45.8822C26.2177 45.8966 25.7098 47.4111 24.2985 47.978C23.4737 48.309 22.474 48.2579 21.3276 47.8267L21.1965 47.7772L21.0544 47.7947C21.0503 47.7947 20.3373 47.8686 19.8351 47.5087C19.4917 47.2624 19.3043 46.8529 19.2788 46.2916L19.2539 45.7391L19.2533 45.7386ZM14.2201 45.9018L13.6024 45.7453L13.5748 46.2911C13.5493 46.8524 13.3625 47.2619 13.0185 47.5082C12.5164 47.8686 11.8034 47.7947 11.7961 47.7937L11.6541 47.7767L11.5261 47.8262C10.3791 48.2574 9.37945 48.3085 8.55515 47.9775C7.14385 47.4111 6.63543 45.8961 6.63075 45.8811L6.58964 45.7541L6.47099 45.6684C4.80157 44.4746 4.10373 43.0423 4.39619 41.4111C4.61996 40.161 5.36464 39.2476 5.37244 39.2388L5.48797 39.0989L5.45727 38.929C4.75266 35.1117 7.53154 33.6974 7.55965 33.6835L7.87656 33.5275L7.79746 33.2244C7.1756 30.8415 9.74945 29.6766 9.85977 29.6281L10.2995 29.4344L10.1002 29.1019C10.0815 29.0188 9.99403 28.3382 11.8877 27.605C12.9478 27.1945 13.5306 27.2353 13.8324 27.3417C14.1051 27.4383 14.2009 27.6107 14.2165 27.6432L14.3044 27.9339L14.6562 27.9355C15.0189 27.9577 15.2552 28.0961 15.3993 28.3703C15.5273 28.6145 15.5284 28.8675 15.5284 28.8701V45.2027C15.5019 45.5125 15.3936 45.7257 15.2063 45.8362C14.9008 46.0164 14.3919 45.9441 14.2217 45.9008L14.2201 45.9018Z" fill="#F7597F"/>
<path id="Vector_11" d="M16.8262 28.8747V45.2181C16.9474 46.7893 18.7787 46.3076 18.7787 46.3076C18.8776 48.4866 21.1241 48.2139 21.1241 48.2139C25.4699 49.8487 26.7048 45.9931 26.7048 45.9931C31.1 42.8501 27.8897 38.9945 27.8897 38.9945C28.6552 34.8457 25.5443 33.3163 25.5443 33.3163C26.2604 30.5714 23.2234 29.2516 23.2234 29.2516C23.2234 29.2516 23.7172 28.2039 21.1741 27.2192C18.6309 26.2346 18.1615 27.5125 18.1615 27.5125C16.8033 27.5967 16.8262 28.8747 16.8262 28.8747Z" fill="#FEBAC7"/>
<path id="Vector_12" d="M16.027 28.8745C16.027 28.8745 16.0499 27.5966 14.6917 27.5124C14.6917 27.5124 14.2223 26.2345 11.6792 27.2191C9.13601 28.2038 9.62986 29.2515 9.62986 29.2515C9.62986 29.2515 6.59286 30.5718 7.30892 33.3162C7.30892 33.3162 4.1975 34.8456 4.96299 38.9944C4.96299 38.9944 1.75322 42.85 6.14844 45.993C6.14844 45.993 7.38281 49.8486 11.7286 48.2138C11.7286 48.2138 13.9756 48.4864 14.0745 46.3069C14.0745 46.3069 15.9058 46.7887 16.027 45.2174V28.874V28.8745Z" fill="#FEBAC7"/>
<g id="Group_3" opacity="0.3">
<path id="Vector_13" d="M12.4859 30.6055C12.1898 30.668 11.926 30.6943 11.6918 30.6943C11.4306 30.6943 11.2063 30.6618 11.0148 30.6117C10.9534 30.6659 10.7728 30.8466 10.6567 31.1647C10.4699 31.678 10.5376 32.3172 10.8519 33.0143C11.1667 33.7119 11.6928 34.0872 12.4162 34.1291C12.9667 34.1611 13.432 33.9798 13.4367 33.9778C13.4897 33.9566 13.5501 33.9824 13.5714 34.0351C13.5928 34.0878 13.5668 34.1476 13.5137 34.1693C13.4949 34.1771 13.0807 34.3392 12.5499 34.3392C12.5046 34.3392 12.4583 34.3382 12.411 34.3356C11.8536 34.3051 11.098 34.0656 10.6619 33.0989C10.2331 32.1478 10.319 31.4771 10.4663 31.0816C10.5631 30.8229 10.6968 30.6447 10.792 30.5415C10.6604 30.4914 10.5485 30.433 10.4564 30.3752C10.0598 30.1258 9.91309 29.8217 9.90737 29.8088C9.88291 29.7571 9.90529 29.6962 9.95733 29.672C10.0088 29.6477 10.0708 29.6699 10.0958 29.721C10.0968 29.7236 10.2285 29.9916 10.5792 30.2079C11.046 30.496 11.6902 30.5642 12.4427 30.4046C13.1962 30.2451 13.6755 29.8124 13.8681 29.1195C14.0143 28.5918 13.9331 28.1028 13.9321 28.0976C13.9222 28.0413 13.9602 27.9881 14.0169 27.9788C14.0736 27.969 14.1272 28.0067 14.1371 28.063C14.1408 28.0847 14.2271 28.5964 14.0705 29.1675C13.9237 29.7019 13.5303 30.385 12.4864 30.6065L12.4859 30.6055Z" fill="white"/>
</g>
<g id="Group_4" opacity="0.3">
<path id="Vector_14" d="M6.87568 44.2C6.87828 44.201 7.16189 44.2986 7.56468 44.2067C8.10068 44.0843 8.60546 43.6816 9.02541 43.0418C9.36002 42.5322 9.44849 42.0215 9.29133 41.5191C9.28093 41.5067 9.2726 41.4917 9.26896 41.4747C9.26844 41.4721 9.26531 41.4572 9.26167 41.4319C9.22472 41.3317 9.17789 41.2325 9.12169 41.1329C8.8516 40.6584 8.44778 40.3687 8.44102 40.364C8.39418 40.331 8.38325 40.267 8.41656 40.2205C8.44986 40.174 8.51439 40.1632 8.56123 40.1962C8.57892 40.2086 8.98899 40.5009 9.28301 40.9981C9.29758 40.9279 9.31839 40.852 9.34754 40.772C9.47815 40.4172 9.81225 39.9097 10.6605 39.5079C11.198 39.2534 11.6555 39.2627 12.0203 39.3783C11.9974 39.32 11.9766 39.2534 11.962 39.178C11.9079 38.9023 11.9235 38.4525 12.3054 37.8768C12.6973 37.2866 13.2218 37.2092 13.5929 37.2484C13.9863 37.2902 14.2855 37.4668 14.298 37.4746C14.3469 37.504 14.3625 37.567 14.3334 37.616C14.3037 37.6646 14.2403 37.6806 14.1908 37.6512C14.1882 37.6496 13.9134 37.488 13.5643 37.4529C13.111 37.4069 12.7462 37.5882 12.4792 37.9904C11.8631 38.9188 12.2763 39.4475 12.3325 39.5121C12.4236 39.5616 12.5063 39.6164 12.5802 39.6721C13.0054 39.9928 13.226 40.4033 13.2354 40.4203C13.2619 40.4704 13.2427 40.5329 13.1917 40.5592C13.1412 40.5856 13.0782 40.5665 13.0512 40.5164C13.0491 40.5122 12.8394 40.1245 12.4491 39.8322C11.9375 39.4491 11.3656 39.4026 10.75 39.6943C10.1344 39.9856 9.71805 40.379 9.54685 40.8308C9.44797 41.0911 9.4563 41.3033 9.46566 41.3895C9.62751 41.8542 9.65092 42.4656 9.1987 43.1544C8.85004 43.6857 8.48577 44.0017 8.16052 44.1886C8.15584 44.2697 8.15584 44.5248 8.29999 44.831C8.5326 45.3251 9.03478 45.7315 9.75292 46.0051C10.4721 46.2793 11.1117 46.1771 11.6539 45.7005C12.065 45.3391 12.2659 44.8872 12.2695 44.8795C12.2924 44.8274 12.3533 44.8031 12.4059 44.8258C12.4584 44.8485 12.4829 44.9089 12.46 44.9611C12.4511 44.9812 12.2419 45.4568 11.7965 45.8502C11.5056 46.1074 11.0742 46.3599 10.5012 46.3599C10.253 46.3599 9.97877 46.3124 9.67798 46.1977C8.69809 45.8239 8.28178 45.2884 8.10536 44.9048C7.98984 44.6539 7.95809 44.4339 7.95237 44.294C7.82331 44.3508 7.7031 44.3874 7.59642 44.4112C7.45592 44.4422 7.32842 44.453 7.21862 44.453C6.97039 44.453 6.81375 44.3978 6.80439 44.3941C6.75079 44.3745 6.7232 44.3157 6.74246 44.2625C6.76171 44.2093 6.82104 44.1814 6.87516 44.2005L6.87568 44.2Z" fill="white"/>
</g>
<g id="Group_5" opacity="0.3">
<path id="Vector_15" d="M10.473 34.7714C10.4496 34.8101 10.3991 34.8225 10.3606 34.7992C10.3585 34.7982 10.1415 34.6702 9.86521 34.6423C9.50718 34.6061 9.21837 34.7492 9.00709 35.0672C8.49711 35.8356 8.87907 36.2579 8.8952 36.2755C8.92643 36.308 8.92539 36.3596 8.8926 36.3906C8.87647 36.4056 8.85617 36.4133 8.83588 36.4133C8.81402 36.4133 8.79269 36.4051 8.77655 36.388C8.77135 36.3824 8.64594 36.2502 8.59806 36.007C8.55539 35.7891 8.56736 35.4333 8.8697 34.9779C8.96025 34.8411 9.06017 34.7394 9.16321 34.6645C9.17361 34.5912 9.19391 34.3918 9.14135 34.1786C9.05548 33.8316 8.82339 33.6096 8.45027 33.5187C7.54999 33.2998 7.27679 33.798 7.26586 33.8192C7.24556 33.8595 7.19613 33.8755 7.15554 33.8554C7.11495 33.8352 7.09882 33.7862 7.11911 33.7459C7.12275 33.7392 7.20654 33.5776 7.42146 33.4516C7.614 33.3385 7.9559 33.2306 8.48982 33.3607C9.03675 33.4939 9.23398 33.861 9.30267 34.1455C9.34118 34.3051 9.3443 34.4548 9.33858 34.5622C9.5332 34.4745 9.72835 34.4641 9.88811 34.4807C10.1993 34.5137 10.4356 34.6536 10.4454 34.6593C10.4845 34.6825 10.4964 34.7326 10.4735 34.7708L10.473 34.7714Z" fill="white"/>
</g>
<g id="Group_6" opacity="0.3">
<path id="Vector_16" d="M13.7898 42.0516C14.2378 42.1606 14.3991 42.4621 14.4553 42.6955C14.4798 42.7962 14.4866 42.8928 14.4861 42.9718C14.6266 42.9212 14.7645 42.916 14.8795 42.9284C15.1319 42.9552 15.3244 43.0688 15.3322 43.074C15.3811 43.1034 15.3967 43.1664 15.3676 43.215C15.3379 43.2635 15.2744 43.2795 15.225 43.2501C15.1995 43.2351 14.5922 42.8845 14.218 43.4478C13.8376 44.021 14.115 44.3334 14.1259 44.3452C14.1655 44.3865 14.1639 44.4516 14.1223 44.4908C14.102 44.51 14.0765 44.5192 14.0505 44.5192C14.0229 44.5192 13.9958 44.5084 13.975 44.4872C13.9584 44.4697 13.5686 44.0504 14.0437 43.3342C14.114 43.2284 14.1905 43.1483 14.2701 43.0879C14.2899 42.9372 14.3185 42.3924 13.7388 42.2509C13.0669 42.0873 12.8635 42.4513 12.8557 42.4657C12.8296 42.5163 12.7672 42.537 12.7162 42.5112C12.6652 42.4854 12.6444 42.4234 12.6704 42.3728C12.6813 42.3511 12.9493 41.8461 13.7882 42.0506L13.7898 42.0516Z" fill="white"/>
</g>
<g id="Group_7" opacity="0.3">
<path id="Vector_17" d="M20.2192 30.6055C20.5153 30.668 20.7792 30.6943 21.0134 30.6943C21.2746 30.6943 21.4989 30.6618 21.6904 30.6117C21.7518 30.6659 21.9324 30.8466 22.0484 31.1647C22.2352 31.678 22.1676 32.3172 21.8533 33.0143C21.5384 33.7119 21.0123 34.0872 20.289 34.1291C19.7384 34.1611 19.2732 33.9798 19.2685 33.9778C19.2154 33.9566 19.155 33.9824 19.1337 34.0351C19.1124 34.0878 19.1384 34.1476 19.1915 34.1693C19.2102 34.1771 19.6244 34.3392 20.1552 34.3392C20.2005 34.3392 20.2468 34.3382 20.2942 34.3356C20.8515 34.3051 21.6071 34.0656 22.0432 33.0989C22.472 32.1478 22.3861 31.4771 22.2389 31.0816C22.1421 30.8229 22.0083 30.6447 21.9131 30.5415C22.0448 30.4914 22.1567 30.433 22.2488 30.3752C22.6453 30.1258 22.792 29.8217 22.7978 29.8088C22.8222 29.7571 22.7999 29.6962 22.7478 29.672C22.6963 29.6477 22.6344 29.6699 22.6094 29.721C22.6084 29.7236 22.4767 29.9916 22.1259 30.2079C21.6592 30.496 21.0149 30.5642 20.2624 30.4046C19.5089 30.2451 19.0296 29.8124 18.8371 29.1195C18.6908 28.5918 18.772 28.1028 18.7731 28.0976C18.783 28.0413 18.745 27.9881 18.6882 27.9788C18.6315 27.969 18.5779 28.0067 18.568 28.063C18.5644 28.0847 18.478 28.5964 18.6346 29.1675C18.7814 29.7019 19.1748 30.385 20.2187 30.6065L20.2192 30.6055Z" fill="white"/>
</g>
<g id="Group_8" opacity="0.3">
<path id="Vector_18" d="M20.245 44.9604C20.2539 44.9806 20.4631 45.4561 20.9085 45.8496C21.1994 46.1067 21.6308 46.3592 22.2038 46.3592C22.452 46.3592 22.7262 46.3117 23.0275 46.1971C24.0074 45.8233 24.4238 45.2878 24.6002 44.9042C24.7157 44.6532 24.7469 44.4332 24.7532 44.2933C24.8827 44.3501 25.0024 44.3868 25.1096 44.4105C25.2501 44.4415 25.3776 44.4524 25.4874 44.4524C25.7357 44.4524 25.8923 44.3971 25.9017 44.3935C25.9553 44.3739 25.9828 44.315 25.9636 44.2618C25.9443 44.2086 25.8845 44.1808 25.8309 44.1999C25.8283 44.2009 25.5442 44.2985 25.1419 44.2066C24.6059 44.0842 24.1011 43.6814 23.6812 43.0417C23.3465 42.5321 23.2581 42.0214 23.4152 41.519C23.4256 41.5066 23.434 41.4916 23.4376 41.4751C23.4381 41.4725 23.4413 41.4575 23.4449 41.4322C23.4818 41.3321 23.5287 41.2324 23.5849 41.1333C23.855 40.6587 24.2588 40.3691 24.2661 40.3644C24.3129 40.3314 24.3238 40.2674 24.2905 40.2209C24.2572 40.1744 24.1927 40.1636 24.1459 40.1966C24.1282 40.209 23.7181 40.5013 23.4241 40.9985C23.4095 40.9283 23.3892 40.8524 23.3596 40.7729C23.3044 40.6226 23.2128 40.445 23.0608 40.2596L23.0624 40.397L22.9073 40.3985C23.0182 40.5353 23.103 40.6799 23.1602 40.8317C23.2591 41.092 23.2508 41.3047 23.2414 41.3899C23.0796 41.8546 23.0562 42.466 23.5084 43.1548C23.8576 43.6861 24.2213 44.0021 24.5466 44.1885C24.5512 44.2701 24.5512 44.5246 24.4071 44.8314C24.1745 45.3255 23.6718 45.7319 22.9542 46.0055C22.2355 46.2797 21.5954 46.1775 21.0532 45.7009C20.6421 45.34 20.4412 44.8876 20.4376 44.8799C20.4147 44.8277 20.3538 44.8035 20.3012 44.8262C20.2487 44.8484 20.2242 44.9093 20.2466 44.9615L20.245 44.9604Z" fill="white"/>
</g>
<g id="Group_9" opacity="0.3">
<path id="Vector_19" d="M18.9167 42.0519C18.4686 42.1608 18.3073 42.4624 18.2511 42.6958C18.2267 42.7964 18.2199 42.893 18.2204 42.972C18.0799 42.9214 17.942 42.9162 17.827 42.9286C17.5746 42.9555 17.3821 43.0691 17.3743 43.0742C17.3253 43.1037 17.3097 43.1667 17.3389 43.2152C17.3685 43.2637 17.432 43.2797 17.4815 43.2503C17.507 43.2353 18.1143 42.8847 18.4884 43.4481C18.8688 44.0212 18.5915 44.3336 18.5805 44.3455C18.541 44.3868 18.5425 44.4519 18.5842 44.4911C18.6045 44.5102 18.63 44.5195 18.656 44.5195C18.6836 44.5195 18.7106 44.5086 18.7309 44.4875C18.7476 44.4699 19.1373 44.0506 18.6622 43.3345C18.592 43.2286 18.5155 43.1486 18.4359 43.0882C18.4161 42.9374 18.3875 42.3927 18.9672 42.2512C19.639 42.0875 19.8425 42.4515 19.8503 42.466C19.8763 42.5166 19.9387 42.5372 19.9897 42.5114C20.0407 42.4856 20.0616 42.4236 20.0355 42.373C20.0246 42.3513 19.7566 41.8464 18.9177 42.0508L18.9167 42.0519Z" fill="white"/>
</g>
<g id="Group_10" opacity="0.3">
<path id="Vector_20" d="M28.0182 42.161C27.9308 41.7117 27.6352 41.5367 27.4031 41.4696C27.3027 41.4407 27.2064 41.4288 27.1268 41.4252C27.1846 41.2889 27.1965 41.152 27.1898 41.0374C27.1752 40.7859 27.0701 40.5897 27.0659 40.5815C27.0389 40.5314 26.9759 40.5128 26.9254 40.5396C26.8749 40.5665 26.8562 40.629 26.8833 40.679C26.8843 40.6806 26.9712 40.8427 26.9827 41.0493C26.9978 41.3147 26.8807 41.5228 26.634 41.6668C26.0382 42.0154 25.7379 41.7252 25.7259 41.7138C25.6864 41.6725 25.6208 41.6709 25.5792 41.7102C25.5375 41.7494 25.536 41.8145 25.5755 41.8558C25.5865 41.8672 25.7623 42.0453 26.0912 42.0453C26.265 42.0453 26.482 41.9952 26.7396 41.8444C26.8494 41.7799 26.9343 41.7081 26.9988 41.6322C27.1518 41.6203 27.7013 41.6188 27.8148 42.2002C27.9464 42.874 27.5702 43.0579 27.5551 43.0646C27.5025 43.0878 27.4791 43.1487 27.5025 43.2004C27.5197 43.2386 27.5577 43.2618 27.5972 43.2618C27.6113 43.2618 27.6259 43.2587 27.6394 43.253C27.6618 43.2432 28.1832 43.0026 28.0188 42.161H28.0182Z" fill="white"/>
</g>
<path id="Vector_21" d="M8.11021 48.7654C6.53811 48.1303 5.86472 46.6902 5.69247 46.2518C3.34083 44.5117 3.14152 42.5687 3.3887 41.2443L3.4397 41.2536C3.19512 42.5646 3.39391 44.4895 5.72942 46.2152L5.73567 46.2198L5.73827 46.2265C5.90479 46.6515 6.56881 48.0874 8.12998 48.7179C8.62279 48.9167 9.1588 49.0179 9.7229 49.0179C10.3718 49.0179 11.0723 48.8847 11.8039 48.6219L11.8086 48.6203H11.8138C12.1396 48.6348 12.9701 48.6162 13.6378 48.1437L13.668 48.1855C12.9904 48.6652 12.1516 48.6859 11.8164 48.6719C11.0806 48.9358 10.376 49.0695 9.72238 49.0695C9.15099 49.0695 8.60874 48.9673 8.10969 48.7659L8.11021 48.7654ZM21.0362 48.6714C20.7016 48.6854 19.8627 48.6647 19.1846 48.185L19.2148 48.1432C19.883 48.6162 20.713 48.6342 21.0388 48.6198H21.044L21.0487 48.6213C21.7804 48.8842 22.4808 49.0174 23.1297 49.0174C23.6944 49.0174 24.2298 48.9167 24.7226 48.7174C26.2838 48.0869 26.9484 46.651 27.1144 46.226L27.117 46.2193L27.1232 46.2146C29.4587 44.4895 29.6575 42.5646 29.4129 41.2531C29.2006 40.115 28.6271 39.2372 28.3904 38.9125L28.3841 38.9037L28.3857 38.8934C28.7427 36.7113 28.0485 35.2376 27.4032 34.3851L27.4448 34.3541C28.0948 35.2128 28.7947 36.6968 28.4388 38.8908C28.6813 39.2248 29.2516 40.1047 29.4639 41.2432C29.7111 42.5677 29.5113 44.5107 27.1602 46.2508C26.9874 46.6892 26.3145 48.1293 24.7424 48.7644C24.2434 48.9657 23.7006 49.068 23.1297 49.068C22.4761 49.068 21.7715 48.9342 21.0357 48.6704L21.0362 48.6714ZM5.40782 34.3552C5.87253 33.7418 6.38043 33.3426 6.72961 33.1134C6.52562 31.9614 6.89562 30.8724 7.80058 29.9631C8.25123 29.5103 8.73728 29.1979 9.06981 29.0136C9.07449 28.7776 9.15411 28.4187 9.49965 28.0232C9.89723 27.5683 10.5576 27.1599 11.462 26.8098C12.6074 26.3663 13.5519 26.2795 14.2701 26.5516C14.6749 26.705 14.9112 26.9389 15.0387 27.1082L14.9971 27.1392C14.8737 26.9755 14.6448 26.7489 14.2519 26.6002C13.5467 26.3327 12.6142 26.4194 11.4813 26.8583C9.4346 27.6509 9.12445 28.5592 9.12133 29.0296V29.0445L9.1078 29.0518C8.77787 29.2335 8.28922 29.5454 7.837 29.9998C6.93985 30.9013 6.57558 31.9805 6.78321 33.1216L6.78633 33.1381L6.77176 33.1474C6.4257 33.3726 5.9152 33.7702 5.44841 34.3867L5.40678 34.3557L5.40782 34.3552ZM23.7454 29.0513L23.7318 29.044V29.0291C23.7292 28.5581 23.4185 27.6504 21.3718 26.8578C20.2384 26.4189 19.3064 26.3322 18.6013 26.5996C18.2084 26.7489 17.9789 26.975 17.8561 27.1387L17.8145 27.1077C17.942 26.9384 18.1782 26.7045 18.5831 26.5511C19.3007 26.279 20.2452 26.3657 21.3911 26.8093C22.2961 27.1594 22.9559 27.5678 23.3535 28.0227C23.699 28.4182 23.7792 28.7771 23.7839 29.013C24.1164 29.1974 24.6024 29.5098 25.0531 29.9626L25.0161 29.9988C24.5639 29.5444 24.0753 29.232 23.7454 29.0507V29.0513Z" fill="black"/>
<g id="Group_11" opacity="0.3">
<path id="Vector_22" d="M23.0211 36.3062C23.1486 36.2515 23.3406 36.1849 23.5633 36.1611C23.7647 36.14 24.0119 36.1529 24.2581 36.2639C24.2508 36.1276 24.2549 35.9386 24.3033 35.7367C24.3902 35.3768 24.6395 34.9126 25.3311 34.7438C25.9041 34.6044 26.3022 34.6813 26.5582 34.7949C26.604 34.8155 26.6451 34.8367 26.6815 34.8584C26.9532 35.018 27.0593 35.2219 27.0635 35.2307C27.089 35.2813 27.0687 35.3433 27.0177 35.3691C26.9922 35.382 26.9641 35.383 26.9386 35.3753C26.9131 35.367 26.8907 35.3494 26.8782 35.3236C26.8642 35.2973 26.5186 34.6668 25.38 34.9436C24.9086 35.0582 24.6145 35.3391 24.5063 35.778C24.4397 36.0475 24.4652 36.2995 24.4782 36.392C24.6083 36.487 24.7347 36.6155 24.8492 36.7885C25.2317 37.3648 25.2473 37.814 25.1927 38.0897C25.1323 38.3974 24.9741 38.5647 24.9674 38.572C24.9471 38.5931 24.9195 38.604 24.8924 38.604C24.8669 38.604 24.8409 38.5947 24.8206 38.5756C24.779 38.5363 24.7774 38.4713 24.817 38.43C24.8373 38.4083 25.3202 37.8739 24.6754 36.9021C24.4085 36.4999 24.0431 36.3192 23.5904 36.3646C23.3338 36.3904 23.1174 36.4844 23.0195 36.5329V36.3052L23.0211 36.3062Z" fill="white"/>
</g>
</g>
<g id="Group_12">
<path id="Vector_23" d="M49.827 5.60241L47.9104 4.9007V4.86817L47.8662 4.88417L47.7543 4.84338V4.92497L45.8377 5.62668C45.8377 5.62668 43.6661 60.0213 43.765 64.5259C43.8639 69.031 47.9104 68.6391 47.9104 68.6391V68.6221C48.6541 68.6386 51.8128 68.4754 51.8997 64.5011C51.9986 59.996 49.827 5.6019 49.827 5.6019V5.60241Z" fill="#FE9921"/>
<path id="Vector_24" d="M47.7949 7.43554C49.2193 7.43554 50.3739 6.28983 50.3739 4.87652C50.3739 3.46322 49.2193 2.3175 47.7949 2.3175C46.3705 2.3175 45.2158 3.46322 45.2158 4.87652C45.2158 6.28983 46.3705 7.43554 47.7949 7.43554Z" fill="#FE9921"/>
<path id="Vector_25" d="M47.7952 2.56831C48.51 2.56831 49.0894 1.99338 49.0894 1.28416C49.0894 0.574936 48.51 0 47.7952 0C47.0804 0 46.501 0.574936 46.501 1.28416C46.501 1.99338 47.0804 2.56831 47.7952 2.56831Z" fill="#FE9921"/>
<path id="Vector_26" d="M49.9797 6.40222H45.6661V6.40532C45.6474 6.40377 45.6281 6.40222 45.6089 6.40222C45.2113 6.40222 44.8887 6.72184 44.8887 7.11685C44.8887 7.51185 45.2108 7.83147 45.6089 7.83147C45.6313 7.83147 45.6526 7.82992 45.6745 7.82837H49.9141C49.9359 7.83044 49.9573 7.83147 49.9797 7.83147C50.3772 7.83147 50.6999 7.51185 50.6999 7.11685C50.6999 6.72184 50.3778 6.40222 49.9797 6.40222Z" fill="#213748"/>
<path id="Vector_27" d="M49.394 1.79443H46.2358V1.7965C46.2217 1.79547 46.2082 1.79443 46.1941 1.79443C45.9032 1.79443 45.667 2.02886 45.667 2.31749C45.667 2.60613 45.9032 2.84055 46.1941 2.84055C46.2103 2.84055 46.2264 2.83952 46.242 2.83797H49.3456C49.3612 2.83952 49.3774 2.84055 49.3935 2.84055C49.6844 2.84055 49.9207 2.60613 49.9207 2.31749C49.9207 2.02886 49.6844 1.79443 49.3935 1.79443H49.394Z" fill="#213748"/>
<path id="Vector_28" d="M82.1033 21.6006C82.1033 20.2756 81.0209 19.2011 79.6851 19.2011C78.8446 19.2011 78.1041 19.6271 77.6712 20.273C77.0956 20.9345 76.0038 21.5541 73.9358 21.4106C71.8334 21.2639 69.7544 19.278 67.5537 17.175C64.7738 14.5189 61.6265 11.5106 57.4134 11.6717C53.3148 11.8308 51.5928 13.2925 50.335 14.3603C49.4826 15.0843 49.1095 15.4003 47.8793 15.4364C46.6491 15.4003 46.276 15.0838 45.4236 14.3603C44.1658 13.2925 42.4438 11.8308 38.3452 11.6717C34.1321 11.5106 30.9853 14.5189 28.2049 17.175C26.0041 19.2775 23.9252 21.2634 21.8228 21.4106C19.6783 21.5593 18.5829 20.8875 18.0255 20.1997C17.8278 19.956 17.5889 19.7557 17.324 19.6075C16.9592 19.388 16.531 19.262 16.0735 19.262C14.7382 19.262 13.6553 20.336 13.6553 21.6615C13.6553 21.6749 13.6563 21.6878 13.6563 21.7013C13.649 22.2083 13.8062 22.7272 14.1611 23.1775C15.4699 24.8381 17.7003 26.2916 21.2212 26.2916C21.5267 26.2916 21.8415 26.2807 22.1663 26.258C26.0416 25.9875 28.9954 23.1656 31.6015 20.6758C33.8787 18.5004 36.0232 16.4454 38.1537 16.5275C40.5522 16.6204 41.2599 17.2214 42.2393 18.0527C43.2749 18.9321 44.6711 20.1166 47.4453 20.2803C47.5436 20.2921 47.6436 20.2994 47.7456 20.2994C47.7539 20.2994 47.7622 20.2994 47.7711 20.2994C47.8075 20.2994 47.8429 20.2978 47.8793 20.2968C47.9157 20.2973 47.9506 20.2989 47.9875 20.2994C47.9959 20.2994 48.0042 20.2994 48.013 20.2994C48.1145 20.2994 48.215 20.2927 48.3133 20.2803C51.088 20.1166 52.4837 18.9321 53.5193 18.0527C54.4987 17.2214 55.2064 16.6204 57.6049 16.5275C59.7354 16.4454 61.8799 18.4999 64.1571 20.6758C66.7632 23.1656 69.717 25.9875 73.5923 26.258C73.9171 26.2807 74.2324 26.2916 74.5374 26.2916C78.0583 26.2916 80.2887 24.8381 81.5975 23.1775C81.9586 22.719 82.1148 22.1902 82.1012 21.6749C82.1018 21.6501 82.1033 21.6259 82.1033 21.6006ZM16.073 22.6121C15.5438 22.6121 15.115 22.1866 15.115 21.6615C15.115 21.1364 15.5438 20.7109 16.073 20.7109C16.6022 20.7109 17.031 21.1364 17.031 21.6615C17.031 22.1866 16.6022 22.6121 16.073 22.6121ZM79.5508 22.6121C79.0216 22.6121 78.5928 22.1866 78.5928 21.6615C78.5928 21.1364 79.0216 20.7109 79.5508 20.7109C80.08 20.7109 80.5088 21.1364 80.5088 21.6615C80.5088 22.1866 80.08 22.6121 79.5508 22.6121Z" fill="#2C3D68"/>
<path id="Vector_29" d="M48.9812 17.9937C49.084 17.3651 48.6539 16.7729 48.0204 16.6709C47.3869 16.5688 46.79 16.9957 46.6872 17.6242C46.5843 18.2528 47.0145 18.845 47.648 18.9471C48.2815 19.0491 48.8784 18.6223 48.9812 17.9937Z" fill="#213748"/>
<path id="Vector_30" d="M69.8 69C68.2534 66.2567 59.0529 64.1489 47.9337 64.1489C36.8145 64.1489 27.6145 66.2567 26.0674 69H69.7995H69.8Z" fill="#2C3D68"/>
<path id="Vector_31" d="M64.6868 43.6065C64.6363 43.6065 64.5853 43.5951 64.5369 43.5704C64.3751 43.4883 64.3106 43.2915 64.3938 43.1304L78.5942 21.9808C78.677 21.8203 78.8753 21.7562 79.0376 21.8389C79.1995 21.921 79.264 22.1177 79.1807 22.2788L64.9803 43.4284C64.922 43.5414 64.8065 43.6065 64.6868 43.6065Z" fill="#213748"/>
<path id="Vector_32" d="M94.3497 43.6065C94.4001 43.6065 94.4511 43.5951 94.4995 43.5704C94.6614 43.4883 94.7259 43.2915 94.6426 43.1304L80.4422 21.9808C80.3595 21.8203 80.1612 21.7562 79.9988 21.8389C79.837 21.921 79.7725 22.1177 79.8557 22.2788L94.0562 43.4284C94.1144 43.5414 94.23 43.6065 94.3497 43.6065Z" fill="#213748"/>
<g id="Group_13" opacity="0.5">
<path id="Vector_33" d="M63.3926 42.9785H79.7204V49.6869H73.3841C73.3841 49.6869 67.5963 48.2582 63.3926 42.9785Z" fill="#79A9D8"/>
</g>
<g id="Group_14" opacity="0.5">
<path id="Vector_34" d="M96.0485 42.9786H79.7207V49.687H86.057C86.057 49.687 91.8448 48.2583 96.0485 42.9786Z" fill="#9EBEE5"/>
</g>
<path id="Vector_35" d="M86.0094 49.687H73.3848V51.2025H86.0094V49.687Z" fill="#213748"/>
<path id="Vector_36" d="M45.7935 59.9724L44.9922 61.6475L45.2136 61.7517L46.0149 60.0766L45.7935 59.9724Z" fill="black"/>
<path id="Vector_37" d="M46.1938 60.8083L45.3926 62.4834L45.614 62.5877L46.4153 60.9126L46.1938 60.8083Z" fill="black"/>
<path id="Vector_38" d="M1.29422 43.6065C1.24375 43.6065 1.19275 43.5951 1.14435 43.5704C0.98251 43.4883 0.917981 43.2915 1.00124 43.1304L15.2017 21.9808C15.2844 21.8203 15.4827 21.7562 15.645 21.8389C15.8069 21.921 15.8714 22.1177 15.7881 22.2788L1.58772 43.4284C1.52944 43.5414 1.41391 43.6065 1.29422 43.6065Z" fill="#213748"/>
<path id="Vector_39" d="M30.9571 43.6065C31.0076 43.6065 31.0586 43.5951 31.107 43.5704C31.2688 43.4883 31.3333 43.2915 31.2501 43.1304L17.0496 21.9808C16.9669 21.8203 16.7686 21.7562 16.6063 21.8389C16.4444 21.921 16.3799 22.1177 16.4632 22.2788L30.6636 43.4284C30.7219 43.5414 30.8374 43.6065 30.9571 43.6065Z" fill="#213748"/>
<g id="Group_15" opacity="0.5">
<path id="Vector_40" d="M0 42.9786H16.3278V49.687H9.9915C9.9915 49.687 4.20372 48.2583 0 42.9786Z" fill="#79A9D8"/>
</g>
<g id="Group_16" opacity="0.5">
<path id="Vector_41" d="M32.6559 42.9785H16.3281V49.6869H22.6644C22.6644 49.6869 28.4522 48.2582 32.6559 42.9785Z" fill="#9EBEE5"/>
</g>
<path id="Vector_42" d="M22.6159 49.687H9.99121V51.2025H22.6159V49.687Z" fill="#213748"/>
<path id="Vector_43" d="M45.4403 7.68991L45.4395 7.93311L50.0454 7.94906L50.0463 7.70586L45.4403 7.68991Z" fill="black"/>
<path id="Vector_44" d="M45.4403 6.27243L45.4395 6.51562L50.0454 6.53158L50.0463 6.28838L45.4403 6.27243Z" fill="black"/>
<path id="Vector_45" d="M49.8231 2.71655H45.7656V2.95975H49.8231V2.71655Z" fill="black"/>
<path id="Vector_46" d="M22.6422 49.8058L22.5902 49.5678C27.1405 48.5898 31.4587 44.1069 32.3818 43.1H0V42.8568H32.922L32.7482 43.0577C32.7362 43.0716 31.5128 44.4802 29.6675 46.006C27.9611 47.4172 25.3571 49.2218 22.6417 49.8058H22.6422Z" fill="black"/>
<path id="Vector_47" d="M22.7382 51.2064L22.4931 51.1986L22.5373 49.8086H9.99121V49.5654H22.7902L22.7382 51.2064Z" fill="black"/>
<path id="Vector_48" d="M86.0093 49.8085H73.369L73.3539 49.8044C73.3398 49.8008 71.9233 49.4306 69.9869 48.4175C68.2015 47.4834 65.5917 45.7955 63.2989 43.0558L63.1318 42.8564H96.0486V43.0996H63.6564C67.858 47.9931 73.0859 49.4791 73.4007 49.5648H86.0087V49.808L86.0093 49.8085Z" fill="black"/>
<path id="Vector_49" d="M73.5068 49.687H73.2617V51.2939H73.5068V49.687Z" fill="black"/>
</g>
</g>
<defs>
<clipPath id="clip0_223_212">
<rect width="98" height="69" fill="white"/>
</clipPath>
</defs>
</svg>
