<svg width="47" height="45" viewBox="0 0 47 45" fill="none" xmlns="http://www.w3.org/2000/svg">
<path id="Star 2" d="M21.8855 1.20803C22.6845 0.115316 24.3155 0.115317 25.1145 1.20803L32.4133 11.1903C32.6601 11.5279 33.0066 11.7796 33.404 11.91L45.1531 15.7669C46.4392 16.1891 46.9432 17.7403 46.1509 18.8378L38.9127 28.8641C38.6679 29.2032 38.5355 29.6105 38.5343 30.0287L38.4968 42.3946C38.4927 43.7483 37.1732 44.707 35.8845 44.2926L24.1123 40.5069C23.7141 40.3789 23.2859 40.3789 22.8877 40.5069L11.1155 44.2926C9.82679 44.707 8.50729 43.7483 8.50319 42.3946L8.46574 30.0287C8.46448 29.6105 8.33214 29.2032 8.08734 28.8641L0.849122 18.8378C0.0567849 17.7403 0.56079 16.1891 1.84692 15.7669L13.596 11.91C13.9934 11.7796 14.3399 11.5279 14.5867 11.1903L21.8855 1.20803Z" fill="#FFC700"/>
</svg>
