<svg width="144" height="118" viewBox="0 0 144 118" fill="none" xmlns="http://www.w3.org/2000/svg">
<g id="Group 39972">
<rect id="Rectangle 745" width="143.5" height="118" rx="10" fill="#2C3D68"/>
<path id="Union" fill-rule="evenodd" clip-rule="evenodd" d="M71.381 57.2311C77.5961 57.2311 82.6344 52.6045 82.6344 46.8972C82.6344 41.19 77.5961 36.5634 71.381 36.5634C65.1659 36.5634 60.1276 41.19 60.1276 46.8972C60.1276 52.6045 65.1659 57.2311 71.381 57.2311ZM91.1353 71.546C92.2098 73.9532 92.7628 76.5333 92.7628 79.1388H71.3814H50C50 76.5333 50.553 73.9533 51.6276 71.546C52.7021 69.1388 54.277 66.9516 56.2625 65.1092C58.2479 63.2668 60.605 61.8053 63.1991 60.8082C65.7932 59.8111 68.5736 59.2979 71.3814 59.2979C74.1893 59.2979 76.9696 59.8111 79.5637 60.8082C82.1578 61.8053 84.5149 63.2667 86.5004 65.1092C88.4858 66.9516 90.0607 69.1388 91.1353 71.546Z" fill="white"/>
</g>
</svg>
