<svg width="25" height="222" viewBox="0 0 25 222" fill="none" xmlns="http://www.w3.org/2000/svg">
<g id="Group 39971">
<path id="Vector 49" d="M24.3536 195.354C24.5488 195.158 24.5488 194.842 24.3536 194.646L21.1716 191.464C20.9763 191.269 20.6597 191.269 20.4645 191.464C20.2692 191.66 20.2692 191.976 20.4645 192.172L23.2929 195L20.4645 197.828C20.2692 198.024 20.2692 198.34 20.4645 198.536C20.6597 198.731 20.9763 198.731 21.1716 198.536L24.3536 195.354ZM12.5 0V185H13.5V0H12.5ZM23 195.5H24V194.5H23V195.5ZM12.5 185C12.5 190.799 17.201 195.5 23 195.5V194.5C17.7533 194.5 13.5 190.247 13.5 185H12.5Z" fill="#333333" fill-opacity="0.3"/>
<path id="Vector 50" d="M0.646447 218.354C0.451185 218.158 0.451185 217.842 0.646447 217.646L3.82843 214.464C4.02369 214.269 4.34027 214.269 4.53553 214.464C4.7308 214.66 4.7308 214.976 4.53553 215.172L1.70711 218L4.53553 220.828C4.7308 221.024 4.7308 221.34 4.53553 221.536C4.34027 221.731 4.02369 221.731 3.82843 221.536L0.646447 218.354ZM13.5 186V208H12.5V186H13.5ZM3 218.5H1V217.5H3V218.5ZM13.5 208C13.5 213.799 8.79899 218.5 3 218.5V217.5C8.2467 217.5 12.5 213.247 12.5 208H13.5Z" fill="#333333" fill-opacity="0.3"/>
</g>
</svg>
