<svg width="45" height="57" viewBox="0 0 45 57" fill="none" xmlns="http://www.w3.org/2000/svg">
<g id="Group">
<g id="Group_2">
<g id="Group_3">
<path id="Vector" d="M16.5376 40.0279L13.7128 40.3032L11.6443 40.5076L8.82374 40.7787L4.16016 0H7.72588H10.103H12.4802L16.5376 40.0279Z" fill="#CB2035"/>
<path id="Vector_2" d="M13.712 40.3032L11.6436 40.5076L7.13135 0H9.50849L13.712 40.3032Z" fill="#BC1733"/>
</g>
<g id="Group_4">
<path id="Vector_3" d="M44.1208 21.2341L20.0057 44.8371L18.0209 42.8184L16.5667 41.3378L14.5776 39.3149L44.1208 11.8857V15.4515V17.8286V21.2341Z" fill="#CB2035"/>
<path id="Vector_4" d="M43.9772 17.8286L18.0211 42.8182L16.5669 41.3375L43.9772 14.8572V17.8286Z" fill="#BC1733"/>
</g>
</g>
<g id="Group_5">
<g id="Group_6">
<path id="Vector_5" d="M23.7906 47.5859C26.9676 42.6141 25.505 36.0129 20.5239 32.8419C15.5428 29.6708 8.9294 31.1306 5.75243 36.1024C2.57545 41.0743 4.03798 47.6754 9.01908 50.8465C14.0002 54.0175 20.6136 52.5577 23.7906 47.5859Z" fill="#D3A02D"/>
<path id="Vector_6" d="M23.5993 45.0414C21.8275 49.9088 16.4328 52.4197 11.5605 50.6512C11.4393 50.6053 11.3182 50.5595 11.2012 50.5094C9.87651 49.9672 8.7441 49.1539 7.83315 48.1612C7.53646 47.84 7.26485 47.498 7.02249 47.1352C6.65894 46.6054 6.34973 46.0424 6.10319 45.4501C5.22567 43.3563 5.10448 40.9414 5.94439 38.6349C7.71615 33.7716 13.1024 31.2607 17.9831 33.0292C18.8899 33.3587 19.7173 33.8133 20.4485 34.3639C20.9625 34.7518 21.4347 35.1939 21.8484 35.6735C22.1367 36.003 22.4042 36.3451 22.6423 36.7121C23.3945 37.8633 23.8876 39.1771 24.0798 40.5451C24.2887 42.0133 24.1467 43.5482 23.6034 45.0372L23.5993 45.0414Z" fill="#E2B440"/>
</g>
<path id="Vector_7" d="M21.8448 35.6777L7.01892 47.1351C6.65538 46.6054 6.34615 46.0424 6.09961 45.4501L20.445 34.368C20.9589 34.7559 21.4311 35.198 21.8448 35.6777Z" fill="#F4C984"/>
<path id="Vector_8" d="M24.076 40.5492L11.2015 50.5093C9.87686 49.9671 8.74445 49.1538 7.8335 48.1611L22.6385 36.7162C23.3907 37.8674 23.8838 39.1812 24.076 40.5492Z" fill="#F4C984"/>
</g>
</g>
</svg>
