<svg width="18" height="19" viewBox="0 0 18 19" fill="none" xmlns="http://www.w3.org/2000/svg">
<path d="M14.3311 18.2377C13.2972 19.2403 12.1685 19.082 11.0819 18.6071C9.93206 18.1216 8.87714 18.1005 7.66399 18.6071C6.14491 19.2615 5.34317 19.0715 4.43595 18.2377C-0.712047 12.9289 0.047493 4.84439 5.89173 4.54887C7.31587 4.62275 8.30749 5.32988 9.14087 5.39321C10.3857 5.13991 11.5777 4.41167 12.9069 4.50665C14.4998 4.6333 15.7025 5.26656 16.4936 6.40641C13.2023 8.38005 13.9829 12.7178 17 13.9316C16.3987 15.5147 15.6181 17.0873 14.3205 18.2483L14.3311 18.2377ZM9.03538 4.48554C8.87714 2.13195 10.7865 0.189976 12.9808 0C13.2867 2.72299 10.5123 4.7494 9.03538 4.48554Z" fill="#262626"/>
</svg>
