<svg width="113" height="55" viewBox="0 0 113 55" fill="none" xmlns="http://www.w3.org/2000/svg">
<g clip-path="url(#clip0_1059_12)">
<path d="M90.8714 28.9464C91.4653 28.7483 92.0512 28.5416 92.6281 28.3441L93.1277 25.9767C92.5764 27.1473 91.8105 28.1465 90.872 28.947L90.8714 28.9464ZM112.078 18.1323L111.88 18.167L111.191 18.2873C109.469 18.7262 105.947 19.6391 101.488 20.7927L101.445 20.9823L100.498 25.4594C107.842 22.5754 112.732 20.0269 112.491 18.7869C112.448 18.5547 112.31 18.3305 112.078 18.1323ZM95.2022 22.4283L95.1675 22.6003L94.057 27.8439C95.8052 27.2324 97.484 26.6216 99.0595 26.0186L100.05 21.3434L100.093 21.1537C98.5428 21.5585 96.9071 21.9803 95.2022 22.4277V22.4283ZM77.061 27.3017C76.6477 27.4135 76.2344 27.5169 75.8296 27.6287C74.6844 29.8071 71.8775 31.1929 68.2354 31.1929C66.8751 31.1929 65.6351 31.0118 64.5502 30.6592H64.5416C64.5155 30.6592 64.4985 30.6507 64.473 30.6422H64.4645C61.7955 31.391 59.6948 32.011 58.4373 32.4328C58.3339 32.4674 58.2391 32.493 58.1534 32.5276C57.9814 32.5793 57.8264 32.6309 57.6969 32.6826C57.6714 32.6911 57.6538 32.6996 57.6282 32.7081C57.5936 32.7166 57.5596 32.7343 57.5249 32.7513C57.4903 32.7598 57.4647 32.7683 57.4386 32.7859C57.3784 32.803 57.3353 32.8291 57.2921 32.8461C57.1973 32.8893 57.1541 32.9233 57.1456 32.9494C57.1371 32.9409 57.1201 32.9324 57.0855 32.9233C57.0508 32.9148 56.9991 32.9148 56.9305 32.9063C54.2183 32.6911 26.7957 34.9728 10.9618 36.3246C10.5485 36.3592 10.1437 36.3933 9.748 36.4279C7.04439 36.6601 4.73708 36.8582 3.03213 37.0047L0.35466 37.4697L0.165019 37.5043C0.0185329 37.7627 -0.0331322 38.021 0.0185329 38.2532C0.25984 39.5362 4.28911 40.3197 10.3589 40.6552C10.7375 40.6807 11.1253 40.6984 11.521 40.7154H11.5295C23.9109 41.2667 43.7309 40.1216 57.9802 37.6502C65.8065 36.2985 75.1658 33.8794 83.896 31.1929C80.7019 31.0549 78.2305 29.5828 77.0598 27.3011L77.061 27.3017Z" fill="#743B19"/>
<path d="M11.2606 35.1461C11.8144 39.4688 11.1755 44.2274 9.24994 48.1635C8.32057 50.0854 7.0174 51.8815 5.48021 53.3761C5.17569 53.6526 4.70644 54.103 4.38065 54.3534L4.37761 54.3559C4.07491 54.6014 3.62512 54.5236 3.42211 54.1911L1.30566 50.7272C1.1069 50.4021 1.23211 49.9748 1.57675 49.8107C1.68981 49.7566 1.798 49.7025 1.891 49.6496L2.36449 49.3955C2.58513 49.2667 2.83373 49.1056 3.05498 48.9719C5.03041 47.673 6.63143 45.8697 7.82824 43.8238C8.53939 42.6112 9.115 41.3233 9.57573 39.9879C10.0462 38.607 10.4157 37.1622 10.6157 35.7077C10.6583 35.3977 10.9136 35.1613 11.226 35.1473L11.2606 35.1455V35.1461Z" fill="#743B19"/>
<path d="M8.10649 33.2725C10.6381 36.0653 12.647 39.483 13.5471 43.1706C13.9994 45.0524 14.1264 47.0271 13.8377 48.9502C13.6827 50.009 13.4031 51.0423 13.0147 52.0415C12.8731 52.405 12.4403 52.5557 12.0999 52.3649L9.21274 50.7414C8.88937 50.5597 8.78483 50.1421 8.98723 49.8316C10.3773 47.6945 10.8417 45.0603 10.5876 42.4503C10.5183 41.6948 10.3968 40.9412 10.2315 40.196C9.89411 38.674 9.37806 37.1788 8.73681 35.7462C8.48638 35.1913 8.2159 34.6364 7.91989 34.1009C7.76793 33.8256 7.84087 33.4803 8.08826 33.2864L8.10649 33.2725Z" fill="#FF8B13"/>
<path d="M64.5424 30.6577C61.8388 31.4066 59.7035 32.0265 58.438 32.4313C58.3347 32.466 58.2399 32.4915 58.1536 32.5261C57.9809 32.5778 57.8259 32.6295 57.6971 32.6811C57.6716 32.6896 57.6539 32.6981 57.6284 32.7073C57.5938 32.7158 57.5597 32.7328 57.5251 32.7504C57.4904 32.7589 57.4643 32.7674 57.4388 32.7851C57.3786 32.8021 57.3354 32.8282 57.2923 32.8452C57.1975 32.8884 57.1543 32.923 57.1458 32.9486C57.1367 32.94 57.1196 32.9315 57.085 32.923C57.0504 32.9145 56.9987 32.9145 56.93 32.906C54.2179 32.7164 26.7691 35.0929 10.9529 36.5048C10.5736 36.5395 10.2034 36.565 9.84237 36.5997C7.11263 36.841 4.7883 37.0561 3.06633 37.2111L0.199219 37.7107C0.250884 37.6329 0.29404 37.5472 0.354214 37.4694C0.360293 37.4638 0.366168 37.4581 0.371841 37.4524C0.380351 37.4439 0.39737 37.4263 0.406487 37.4093C0.440526 37.3746 0.466662 37.3406 0.501308 37.3059V37.2974L2.07679 36.066L11.5996 29.1352C13.0973 30.4523 15.3444 31.1932 18.0997 31.1932C22.8954 31.1932 26.2445 28.7826 26.2445 25.3297C26.2445 25.2349 26.2445 25.1401 26.236 25.0544C26.6919 28.731 29.869 31.2102 34.2776 31.2102C38.1865 31.2102 41.3636 29.2902 42.9567 26.053L41.9404 30.8316H49.2501L51.2304 21.4987C51.6176 21.2319 52.0917 21.0684 52.5476 21.0684C52.9269 21.0684 53.2192 21.1547 53.3311 21.292C53.4429 21.4215 53.4599 21.7224 53.3912 22.067L51.5143 30.8316H58.824L59.8488 26.0189C60.3825 28.2405 62.0357 29.8591 64.464 30.6425H64.4725C64.498 30.651 64.5157 30.6596 64.5412 30.6596L64.5424 30.6577Z" fill="#FF8B13"/>
<path d="M112.053 18.2875C112.044 18.279 112.036 18.2705 112.018 18.2619C111.975 18.2273 111.923 18.1933 111.88 18.1671C111.82 18.1325 111.76 18.0984 111.7 18.0638L111.691 18.0553L109.771 17.4353L86.2489 10.6595L76.4076 7.82711L50.9476 0.5L29.9995 15.7481L26.0645 18.6151C26.4693 19.2436 26.7531 19.9498 26.8911 20.7242C28.3377 17.3752 31.7385 15.2314 35.8711 15.2314C40.4 15.2314 43.6203 17.8231 43.9126 21.5854L45.1873 15.6101H52.4629L52.4374 15.7134C53.2039 15.4551 54.0214 15.3171 54.8565 15.3171C56.8368 15.3171 58.5242 16.0574 59.6176 17.4007C60.2206 18.1495 60.5908 19.0278 60.7281 19.9839C61.3135 17.1515 64.3441 15.2484 68.4858 15.2484C73.1952 15.2484 76.4155 17.3405 77.027 20.7327C78.4651 17.3752 81.8744 15.2308 86.007 15.2308C90.5529 15.2308 93.7902 17.8395 94.0485 21.6365L95.3225 15.6095H102.581L101.487 20.7922L101.444 20.9819C105.947 19.8368 109.503 18.933 111.234 18.4935L112.12 18.3385C112.094 18.3215 112.077 18.3039 112.052 18.2869L112.053 18.2875Z" fill="#FF8B13"/>
<path d="M24.9623 25.3283C24.9623 28.3588 21.5615 29.9002 18.1005 29.9002C15.9221 29.9002 14.002 29.3836 12.6763 28.3418C11.7621 27.6246 11.1336 26.6491 10.9057 25.4268C10.854 25.1496 11.085 24.898 11.367 24.898H14.735C14.952 24.898 15.121 25.0591 15.1714 25.2706C15.2559 25.628 15.4158 25.9398 15.6291 26.1981C16.1889 26.8867 17.1529 27.2314 18.1862 27.2314C19.4086 27.2314 20.4935 26.8442 20.4935 26.0261C20.4935 25.2943 19.2712 24.9928 17.7389 24.6658C17.6702 24.6488 17.6009 24.6403 17.5322 24.6226C15.0183 24.123 11.781 23.5122 11.781 20.9977C11.781 18.0358 14.949 16.5376 18.3504 16.5376C21.2868 16.5376 23.8348 17.459 25.0146 19.37C25.2881 19.7991 25.4874 20.2829 25.6023 20.8202C25.6619 21.0998 25.4279 21.3587 25.1416 21.3587H21.8022C21.5943 21.3587 21.4253 21.2153 21.3573 21.019C20.947 19.8295 19.7751 19.2581 18.2993 19.2581C17.2143 19.2581 16.2157 19.6453 16.2157 20.3431C16.2157 21.118 17.6878 21.4104 19.4098 21.7465C19.9951 21.8668 20.6066 21.9878 21.2005 22.1428C23.1631 22.6424 24.9629 23.4514 24.9629 25.3283H24.9623Z" fill="white"/>
<path d="M21.2002 22.1447C20.6064 21.9898 19.9949 21.8694 19.4096 21.7485C17.6876 21.4129 16.2154 21.12 16.2154 20.345C16.2154 19.6479 17.2141 19.2601 18.2991 19.2601C19.7749 19.2601 20.9467 19.8314 21.3576 21.0209C21.4257 21.2172 21.5947 21.3607 21.8026 21.3607H25.142C25.4282 21.3607 25.6623 21.1017 25.6027 20.8222C25.4878 20.2849 25.2884 19.801 25.0155 19.3719C23.8357 17.4604 21.2877 16.5396 18.3513 16.5396C14.9505 16.5396 11.782 18.0378 11.782 20.9996C11.782 23.5135 15.0192 24.125 17.5332 24.6246C17.6019 24.6416 17.6712 24.6501 17.7399 24.6678C19.2722 24.9948 20.4951 25.2962 20.4951 26.028C20.4951 26.8461 19.4102 27.2333 18.1878 27.2333C17.1545 27.2333 16.1905 26.8887 15.6307 26.2C15.4174 25.9417 15.2575 25.6305 15.173 25.2725C15.1232 25.061 14.9542 24.8999 14.7366 24.8999H11.368C11.086 24.8999 10.855 25.1516 10.9067 25.4287C11.1346 26.651 11.7637 27.6266 12.6773 28.3438C14.0029 29.3856 15.9231 29.9022 18.1015 29.9022C21.5625 29.9022 24.9639 28.3608 24.9639 25.3303C24.9639 23.4534 23.1647 22.6438 21.2014 22.1447H21.2002Z" fill="white"/>
<path d="M42.0702 23.7634C42.2951 23.7634 42.4914 23.6023 42.5285 23.3805C42.5984 22.9647 42.6391 22.5733 42.6391 22.1357C42.6391 18.7174 39.8492 16.522 35.8716 16.522C31.6788 16.522 28.3722 18.941 27.6058 22.7471C27.5109 23.2206 27.4678 23.6941 27.4678 24.1244C27.4678 27.5944 30.1884 29.9186 34.2785 29.9186C37.6671 29.9186 40.4035 28.3383 41.7979 25.4877C41.9516 25.1735 41.7328 24.8046 41.3827 24.8046H37.9868C37.8136 24.8046 37.6592 24.9085 37.5783 25.0611C36.8927 26.3533 35.8503 26.9313 34.5799 26.9313C32.9011 26.9313 31.8848 25.9843 31.8848 24.2624C31.8848 24.1074 31.8848 23.9269 31.9019 23.7628H42.0696L42.0702 23.7634ZM35.6394 19.4157C36.9292 19.4157 37.9759 20.0582 38.2852 21.0994C38.3716 21.3899 38.1333 21.6804 37.83 21.6804H33.2676C32.8957 21.6804 32.6671 21.2568 32.8762 20.9498C33.5758 19.9239 34.5751 19.4157 35.6388 19.4157H35.6394Z" fill="white"/>
<path d="M42.0702 23.7634C42.2951 23.7634 42.4914 23.6023 42.5285 23.3805C42.5984 22.9647 42.6391 22.5733 42.6391 22.1357C42.6391 18.7174 39.8492 16.522 35.8716 16.522C31.6788 16.522 28.3722 18.941 27.6058 22.7471C27.5109 23.2206 27.4678 23.6941 27.4678 24.1244C27.4678 27.5944 30.1884 29.9186 34.2785 29.9186C37.6671 29.9186 40.4035 28.3383 41.7979 25.4877C41.9516 25.1735 41.7328 24.8046 41.3827 24.8046H37.9868C37.8136 24.8046 37.6592 24.9085 37.5783 25.0611C36.8927 26.3533 35.8503 26.9313 34.5799 26.9313C32.9011 26.9313 31.8848 25.9843 31.8848 24.2624C31.8848 24.1074 31.8848 23.9269 31.9019 23.7628H42.0696L42.0702 23.7634ZM35.6394 19.4157C36.9292 19.4157 37.9759 20.0582 38.2852 21.0994C38.3716 21.3899 38.1333 21.6804 37.83 21.6804H33.2676C32.8957 21.6804 32.6671 21.2568 32.8762 20.9498C33.5758 19.9239 34.5751 19.4157 35.6388 19.4157H35.6394Z" fill="white"/>
<path d="M59.3849 21.9533L57.8611 29.1692C57.8155 29.3844 57.6259 29.5388 57.4058 29.5388H53.6926C53.396 29.5388 53.1754 29.2658 53.2374 28.9759L54.6578 22.3411C54.9678 20.7742 54.1758 19.7756 52.5481 19.7756C51.6564 19.7756 50.7951 20.1421 50.1733 20.6952C50.0979 20.762 50.0487 20.8538 50.028 20.9523L48.2787 29.1704C48.2331 29.3856 48.0429 29.5388 47.8235 29.5388H44.1169C43.8209 29.5388 43.6003 29.2658 43.6617 28.9765L46.1501 17.2683C46.1957 17.0532 46.3859 16.8994 46.6054 16.8994H50.304C50.6 16.8994 50.8206 17.1717 50.7592 17.461L50.5763 18.3284C51.7306 17.2434 53.2027 16.6064 54.8554 16.6064C58.075 16.6064 60.0213 18.9653 59.3843 21.9533H59.3849Z" fill="white"/>
<path d="M54.8564 16.609C53.2031 16.609 51.7309 17.246 50.5773 18.3309L50.7602 17.463C50.821 17.1737 50.6004 16.9014 50.305 16.9014H46.6063C46.3863 16.9014 46.1967 17.0551 46.1511 17.2703L43.6626 28.9785C43.6013 29.2678 43.8219 29.5407 44.1179 29.5407H47.8244C48.0445 29.5407 48.2341 29.3869 48.2797 29.1724L50.0284 20.9542C50.0497 20.8558 50.0983 20.764 50.1737 20.6971C50.7961 20.144 51.6574 19.7775 52.5491 19.7775C54.1762 19.7775 54.9682 20.7761 54.6582 22.3431L53.2377 28.9779C53.1757 29.2678 53.3964 29.5407 53.693 29.5407H57.4062C57.6262 29.5407 57.8165 29.3869 57.8615 29.1712L59.3853 21.9553C60.0223 18.9679 58.0766 16.6084 54.8564 16.6084V16.609Z" fill="white"/>
<path d="M75.0982 25.3284C75.0982 26.4389 74.6418 27.3518 73.8923 28.0575C73.8492 28.1006 73.8066 28.1353 73.7635 28.1778C72.4548 29.3229 70.3627 29.8997 68.2359 29.8997C67.9606 29.8997 67.6846 29.8912 67.4178 29.8736C67.3661 29.8736 67.3229 29.8651 67.2713 29.8566H67.2628C64.0468 29.622 61.548 28.1523 61.0405 25.4275C60.9888 25.1497 61.2204 24.8975 61.503 24.8975H64.8698C65.0874 24.8975 65.2575 25.0586 65.3074 25.2707C65.6168 26.5793 66.8938 27.2309 68.3301 27.2309C69.5525 27.2309 70.638 26.8437 70.638 26.0256C70.638 25.2591 69.3032 24.9668 67.6676 24.6222C65.1536 24.1225 61.9157 23.5117 61.9157 20.9972C61.9157 18.0354 65.0934 16.5371 68.4857 16.5371C72.0707 16.5371 75.08 17.915 75.7249 20.7705C75.7924 21.0689 75.579 21.3582 75.2727 21.3582H71.9376C71.7297 21.3582 71.5607 21.2148 71.4926 21.0185C71.0817 19.829 69.9105 19.2577 68.4426 19.2577C67.3497 19.2577 66.3589 19.6448 66.3589 20.3426C66.3589 21.1175 67.8311 21.4099 69.5531 21.746C72.0415 22.2456 75.0982 22.8826 75.0982 25.3278V25.3284Z" fill="white"/>
<path d="M86.0083 16.5225C81.8155 16.5225 78.5089 18.9415 77.7425 22.7476C77.6562 23.2211 77.6045 23.6946 77.6045 24.1249C77.6045 25.1582 77.8458 26.0881 78.2932 26.8801C78.3017 26.9147 78.3193 26.9403 78.3363 26.9664C79.4037 28.8002 81.5821 29.9197 84.4237 29.9197C87.805 29.9197 90.5475 28.3394 91.9358 25.4882C92.089 25.174 91.8702 24.8057 91.5207 24.8057H88.1229C87.9497 24.8057 87.7953 24.9096 87.7145 25.0628C87.03 26.3543 85.9949 26.9324 84.7161 26.9324C83.6827 26.9324 82.8993 26.5707 82.4428 25.8906C82.4258 25.8651 82.4081 25.8304 82.3826 25.7958C82.1504 25.391 82.021 24.8743 82.021 24.2635C82.021 24.1085 82.021 23.928 82.0471 23.7639H92.5941C92.6287 23.5827 92.6628 23.4107 92.6889 23.2387C92.6974 23.1871 92.7059 23.1354 92.7059 23.0837C92.7491 22.7738 92.7746 22.4638 92.7746 22.1368C92.7746 18.7185 89.9938 16.5231 86.0071 16.5231L86.0083 16.5225ZM83.4056 21.6797C83.0336 21.6797 82.8044 21.2555 83.0147 20.9485C83.7162 19.9231 84.7215 19.415 85.7846 19.415C87.0738 19.415 88.1138 20.0569 88.4274 21.0968C88.515 21.388 88.2767 21.6791 87.9728 21.6791H83.4056V21.6797Z" fill="white"/>
<path d="M86.0083 16.5225C81.8155 16.5225 78.5089 18.9415 77.7425 22.7476C77.6562 23.2211 77.6045 23.6946 77.6045 24.1249C77.6045 25.1582 77.8458 26.0881 78.2932 26.8801C78.3017 26.9147 78.3193 26.9403 78.3363 26.9664C79.4037 28.8002 81.5821 29.9197 84.4237 29.9197C87.805 29.9197 90.5475 28.3394 91.9358 25.4882C92.089 25.174 91.8702 24.8057 91.5207 24.8057H88.1229C87.9497 24.8057 87.7953 24.9096 87.7145 25.0628C87.03 26.3543 85.9949 26.9324 84.7161 26.9324C83.6827 26.9324 82.8993 26.5707 82.4428 25.8906C82.4258 25.8651 82.4081 25.8304 82.3826 25.7958C82.1504 25.391 82.021 24.8743 82.021 24.2635C82.021 24.1085 82.021 23.928 82.0471 23.7639H92.5941C92.6287 23.5827 92.6628 23.4107 92.6889 23.2387C92.6974 23.1871 92.7059 23.1354 92.7059 23.0837C92.7491 22.7738 92.7746 22.4638 92.7746 22.1368C92.7746 18.7185 89.9938 16.5231 86.0071 16.5231L86.0083 16.5225ZM83.4056 21.6797C83.0336 21.6797 82.8044 21.2555 83.0147 20.9485C83.7162 19.9231 84.7215 19.415 85.7846 19.415C87.0738 19.415 88.1138 20.0569 88.4274 21.0968C88.515 21.388 88.2767 21.6791 87.9728 21.6791H83.4056V21.6797Z" fill="white"/>
<path d="M100.415 16.9019C100.711 16.9019 100.932 17.1742 100.871 17.4635L100.093 21.1553L100.05 21.3449L99.0598 26.0202L98.3973 29.1717C98.3517 29.3868 98.1621 29.5412 97.9421 29.5412H94.2714C93.9754 29.5412 93.7541 29.2683 93.8161 28.9784L94.058 27.8448L95.1685 22.6013L95.2032 22.4293L96.2961 17.2708C96.3417 17.0556 96.5313 16.9019 96.7513 16.9019H100.415Z" fill="white"/>
<path d="M100.415 16.9019C100.711 16.9019 100.932 17.1742 100.871 17.4635L100.093 21.1553L100.05 21.3449L99.0598 26.0202L98.3973 29.1717C98.3517 29.3868 98.1621 29.5412 97.9421 29.5412H94.2714C93.9754 29.5412 93.7541 29.2683 93.8161 28.9784L94.058 27.8448L95.1685 22.6013L95.2032 22.4293L96.2961 17.2708C96.3417 17.0556 96.5313 16.9019 96.7513 16.9019H100.415Z" fill="white"/>
</g>
<defs>
<clipPath id="clip0_1059_12">
<rect width="112.5" height="54" fill="white" transform="translate(0 0.5)"/>
</clipPath>
</defs>
</svg>
