<svg width="71" height="71" viewBox="0 0 71 71" fill="none" xmlns="http://www.w3.org/2000/svg">
<g id="Group 39970">
<rect id="Rectangle 745" width="71" height="71" rx="10" fill="#2C3D68"/>
<path id="Union" fill-rule="evenodd" clip-rule="evenodd" d="M34.8138 34.4356C38.2478 34.4356 41.0316 31.6518 41.0316 28.2178C41.0316 24.7838 38.2478 22 34.8138 22C31.3798 22 28.596 24.7838 28.596 28.2178C28.596 31.6518 31.3798 34.4356 34.8138 34.4356ZM45.7284 43.0489C46.3221 44.4973 46.6277 46.0497 46.6277 47.6174L34.8139 47.6174H23C23 46.0497 23.3056 44.4973 23.8993 43.0489C24.493 41.6005 25.3632 40.2844 26.4602 39.1758C27.5572 38.0673 28.8596 37.1879 30.2929 36.588C31.7262 35.988 33.2624 35.6792 34.8139 35.6792C36.3653 35.6792 37.9015 35.988 39.3348 36.588C40.7681 37.1879 42.0705 38.0673 43.1675 39.1758C44.2645 40.2844 45.1347 41.6005 45.7284 43.0489Z" fill="white"/>
</g>
</svg>
