<svg width="68" height="82" viewBox="0 0 68 82" fill="none" xmlns="http://www.w3.org/2000/svg">
<g id="Frame">
<g id="Group">
<g id="OBJECTS">
<g id="Group_2">
<path id="Vector" d="M65.471 5.44064L64.5891 0L59.1043 0.874269L46.1063 2.94561L46.9882 8.38289L56.1058 6.93363L48.7453 17.0213C46.7305 15.9857 44.5969 15.3232 42.4329 15.0173C42.209 14.9803 41.9851 14.9534 41.7613 14.9298C41.7341 14.9298 41.707 14.9231 41.6798 14.9231C41.4797 14.8996 41.283 14.8827 41.0829 14.8693C41.0489 14.8693 41.0116 14.8626 40.9743 14.8592C40.7878 14.8458 40.6046 14.8357 40.418 14.8323C39.414 14.7886 38.41 14.8222 37.4162 14.9332C37.233 14.9534 37.0532 14.9735 36.8734 15.0004C36.7446 15.0173 36.6191 15.0341 36.4935 15.0576C36.3409 15.0811 36.1883 15.1047 36.0322 15.1349C35.9101 15.1551 35.7846 15.1787 35.6625 15.2056C35.4081 15.256 35.1537 15.3098 34.8993 15.3737C34.7942 15.3972 34.6924 15.4241 34.5907 15.451C34.4312 15.4914 34.2684 15.5351 34.109 15.5788C33.9971 15.6091 33.8851 15.6427 33.7732 15.6797C33.7155 15.6965 33.6545 15.7133 33.5968 15.7335C33.512 15.7604 33.4272 15.7873 33.3424 15.8142C33.1728 15.8713 33.0032 15.9285 32.837 15.989C32.6912 16.0395 32.5487 16.0933 32.4062 16.1504C32.3486 16.1706 32.2909 16.1908 32.2333 16.2177C32.1145 16.2614 31.9958 16.3085 31.8771 16.3623C31.5922 16.48 31.3073 16.6044 31.0257 16.7389C30.8866 16.8028 30.7476 16.87 30.6119 16.9406C30.4457 17.0213 30.2829 17.1088 30.1201 17.1928C29.8012 17.3643 29.4892 17.5459 29.1805 17.7342C28.6412 18.0637 28.1154 18.4202 27.6066 18.8001C27.3624 18.9851 27.125 19.1734 26.8875 19.3684C26.8061 19.4357 26.7247 19.5029 26.6467 19.5702C26.5483 19.6542 26.45 19.7383 26.3516 19.8257C26.1684 19.9905 25.9853 20.1586 25.8055 20.3301C25.697 20.4344 25.5918 20.5386 25.4901 20.6428C25.3849 20.7437 25.2865 20.848 25.1882 20.9522C25.1102 21.0295 25.0355 21.1102 24.9643 21.1909C24.8592 21.3019 24.754 21.4162 24.6556 21.5306C24.5369 21.6651 24.4182 21.8029 24.3063 21.9408C24.2723 21.9778 24.2384 22.0181 24.2079 22.0585C24.1638 22.1089 24.1231 22.1594 24.0858 22.2132C23.8857 22.4586 23.6923 22.7075 23.5058 22.963C21.4842 25.7371 20.297 28.8542 19.8933 32.0218C19.2624 36.9816 20.5548 42.0692 23.5906 46.1614C24.7031 47.6678 26.0565 49.0398 27.6338 50.22H27.6372C27.7491 50.3007 27.8509 50.3814 27.9662 50.4621C28.1697 50.6101 28.38 50.7513 28.5869 50.8892C28.7972 51.027 29.0075 51.1615 29.2212 51.2927C29.4349 51.4205 29.6486 51.5482 29.8657 51.6693C30.0794 51.7904 30.2998 51.9047 30.5169 52.019C30.734 52.13 30.9545 52.2376 31.1784 52.3384C31.2394 52.3687 31.3039 52.399 31.3649 52.4259C31.5243 52.4965 31.6838 52.5671 31.8466 52.6344C32.0704 52.7285 32.2943 52.8193 32.5216 52.9034C32.7319 52.9841 32.9422 53.0614 33.1559 53.132C33.1728 53.1387 33.1864 53.1421 33.2034 53.1488C41.2457 55.8658 50.4616 53.2262 55.7022 46.0437C58.7787 41.827 59.9218 36.8067 59.3044 32.0218C58.738 27.6235 56.6825 23.4203 53.2701 20.2192L60.6069 10.1617L62.0723 19.1969L67.5604 18.3227L65.471 5.44064ZM53.6908 32.0218C54.3454 35.6735 53.5619 39.5741 51.1977 42.8156C47.4767 47.9133 40.9709 49.8401 35.2351 48.0142C35.0757 47.9671 34.9231 47.9133 34.767 47.8561C34.6517 47.8158 34.533 47.7721 34.4177 47.725H34.4143C34.3736 47.7115 34.3329 47.6947 34.2888 47.6746C34.1972 47.6409 34.1056 47.6039 34.0174 47.5636C34.0174 47.5636 34.0152 47.5625 34.0106 47.5602C34.0106 47.5602 34.0005 47.5602 33.9971 47.5569C33.9224 47.53 33.8546 47.4963 33.78 47.4627C33.7596 47.456 33.7427 47.4493 33.7223 47.4358C33.6341 47.3988 33.5493 47.3585 33.4611 47.3148C33.2373 47.2139 33.0168 47.1029 32.7997 46.9819C32.7319 46.9482 32.6674 46.9113 32.603 46.8743C32.5114 46.8272 32.4198 46.7768 32.3316 46.7196C32.24 46.6692 32.1518 46.612 32.0637 46.5582C31.9382 46.4842 31.816 46.4069 31.6939 46.3262C31.5345 46.2219 31.3751 46.1143 31.2191 46C31.08 45.8991 30.9409 45.7982 30.8086 45.694C30.3032 45.3073 29.8385 44.8937 29.401 44.4532C29.3908 44.4465 29.384 44.4364 29.3738 44.4263C26.0938 41.1108 24.7201 36.4537 25.5138 32.0218C25.8733 30.0076 26.6806 28.0338 27.9594 26.2583C27.973 26.2348 27.9899 26.2146 28.0069 26.1911C28.4444 25.5892 28.9193 25.0377 29.4281 24.5266C29.5265 24.4257 29.6316 24.3249 29.7368 24.224C30.0488 23.9281 30.3745 23.649 30.7069 23.3867C30.9307 23.2118 31.158 23.0437 31.3887 22.8823C31.504 22.8016 31.6227 22.7243 31.738 22.6469C31.9755 22.4923 32.2129 22.3477 32.4571 22.2098C32.5216 22.1728 32.586 22.1358 32.6539 22.0988H32.6573C32.8336 21.998 33.0134 21.9038 33.1966 21.8164C33.3187 21.7558 33.4374 21.6987 33.5629 21.6415C33.8071 21.5272 34.0547 21.423 34.3023 21.3254C34.6144 21.201 34.9299 21.0901 35.2487 20.9892C35.5709 20.8883 35.8932 20.7975 36.2188 20.7202C36.2765 20.7067 36.3341 20.6933 36.3918 20.6798C36.5546 20.6428 36.7208 20.6092 36.8836 20.5789C36.9786 20.5621 37.077 20.5453 37.1719 20.5285C37.2873 20.5083 37.406 20.4882 37.5213 20.4713C37.6434 20.4545 37.7689 20.4377 37.891 20.4243C38.0131 20.4041 38.1386 20.394 38.2608 20.3839C38.3218 20.3738 38.3795 20.3705 38.4405 20.3637H38.4439C38.9493 20.3234 39.4615 20.3099 39.9703 20.3234C40.106 20.3268 40.2383 20.3335 40.3739 20.3402C40.6283 20.3537 40.8827 20.3738 41.1371 20.4007C41.2626 20.4108 41.3915 20.4276 41.517 20.4478C41.6459 20.4613 41.7748 20.4781 41.9003 20.5016C42.1547 20.542 42.4057 20.589 42.6567 20.6462C44.5223 21.0463 46.3404 21.8298 47.9855 23.0101C51.1163 25.2563 53.0598 28.5247 53.6874 32.0218H53.6908Z" fill="url(#paint0_linear_223_196)"/>
<path id="Vector_2" style="mix-blend-mode:multiply" opacity="0.5" d="M35.235 48.0141C34.9331 48.4748 34.1428 49.5037 32.6062 50.4957L33.2032 53.1454C33.2032 53.1454 33.1727 53.1387 33.1557 53.1319C32.942 53.0613 32.7317 52.984 32.5214 52.9033C32.2941 52.8192 32.0703 52.7284 31.8464 52.6343C31.6836 52.567 31.5208 52.4964 31.3613 52.4191C31.3003 52.3955 31.2392 52.3686 31.1782 52.3384C30.9543 52.2375 30.7338 52.1299 30.5168 52.0189C30.2997 51.9046 30.0792 51.7903 29.8655 51.6692C29.6484 51.5482 29.4347 51.4204 29.221 51.2926C29.0073 51.1615 28.797 51.027 28.5867 50.8891C28.3798 50.7512 28.1695 50.61 27.966 50.462C27.8507 50.3813 27.7489 50.3006 27.637 50.2199H27.6336L27.1621 47.7753C27.1621 47.7753 27.2401 45.7444 27.9524 45.2669C28.1933 45.1055 28.7495 44.7927 29.4008 44.4531C29.8384 44.8936 30.3031 45.3072 30.8085 45.6939C30.9407 45.7982 31.0798 45.899 31.2189 45.9999C31.3749 46.1142 31.5343 46.2218 31.6938 46.3261C31.8159 46.4068 31.938 46.4841 32.0635 46.5581C32.1517 46.6153 32.2399 46.6691 32.3314 46.7195C32.4196 46.7767 32.5112 46.8271 32.6028 46.8742C32.6673 46.9145 32.7351 46.9515 32.7995 46.9818C33.0166 47.1028 33.2371 47.2138 33.461 47.3147C33.5492 47.3618 33.634 47.3987 33.7221 47.4357C33.7425 47.4492 33.7595 47.4559 33.7798 47.4626C33.851 47.4963 33.9257 47.5265 33.9969 47.5568C34.0003 47.5601 34.0071 47.5635 34.0105 47.5601C34.0105 47.5601 34.0127 47.5613 34.0172 47.5635C34.1088 47.6039 34.197 47.6408 34.2886 47.6745C34.3327 47.6946 34.3734 47.7115 34.4141 47.7249H34.4175C34.5328 47.772 34.6515 47.8157 34.7669 47.8561C34.9229 47.9132 35.0789 47.9636 35.235 48.0141Z" fill="url(#paint1_linear_223_196)"/>
<path id="Vector_3" d="M43.2892 32C43.2892 38.2493 39.8887 44.0924 34.3865 47.137C33.2926 47.7484 32.1168 48.2449 30.8672 48.6101C29.7159 48.9465 28.5524 49.164 27.4012 49.2543C19.3998 49.9149 11.7631 44.8884 9.4155 36.8706C8.94025 35.2498 8.71082 33.6085 8.71082 32H2C2 34.2363 2.31547 36.5095 2.97917 38.7622C6.38785 50.4032 17.8143 57.4937 29.466 55.7744L32.125 64.8549L25.324 66.8532L27.2168 73.3036L34.0137 71.3053L35.718 77.1237L42.1584 75.2321L40.4541 69.4137L47.7876 67.2594L45.8989 60.8091L38.5654 62.9633L36.7914 56.8987V56.8905L35.9065 53.8828C37.5493 53.1401 39.0775 52.225 40.4746 51.1623H40.4787C46.4315 46.6528 50.0041 39.5377 50 32H43.2892Z" fill="url(#paint2_linear_223_196)"/>
<path id="Vector_4" style="mix-blend-mode:multiply" opacity="0.5" d="M38.4441 20.3637C38.3831 20.3704 38.3254 20.3805 38.2643 20.3839C38.1422 20.3973 38.0167 20.4108 37.8946 20.4243C37.7725 20.4377 37.647 20.4545 37.5249 20.4713C37.4096 20.4881 37.2908 20.5083 37.1755 20.5285C37.0805 20.5453 36.9822 20.5621 36.8872 20.5789C36.7244 20.6092 36.5582 20.6428 36.3954 20.6798C36.3377 20.6933 36.28 20.7067 36.2224 20.7202C35.8968 20.8009 35.5745 20.8883 35.2523 20.9892C34.9334 21.09 34.618 21.2044 34.3059 21.3254C34.0583 21.4229 33.8107 21.5272 33.5665 21.6415C33.441 21.6987 33.3223 21.7558 33.2002 21.8164C33.017 21.9038 32.8372 21.9979 32.6608 22.0988H32.6574C32.576 22.0147 32.4946 21.9307 32.4064 21.85C32.3522 21.7962 32.2979 21.7424 32.2402 21.6919C32.1012 21.5608 31.9621 21.4364 31.8196 21.3153C31.7484 21.2514 31.6772 21.1909 31.6059 21.1338C31.3787 20.9454 31.148 20.7672 30.914 20.5957C30.7851 20.5016 30.6528 20.4108 30.5205 20.32H30.5239C30.6087 20.2595 33.3697 18.3697 34.5027 18.2621C34.9267 18.2218 35.7068 18.1747 36.5243 18.1343C37.2162 18.8237 37.8607 19.5702 38.4475 20.3637H38.4441Z" fill="url(#paint3_linear_223_196)"/>
<path id="Vector_5" d="M42.4325 15.0174C42.2086 14.9804 41.9848 14.9535 41.7609 14.93C41.7338 14.93 41.7066 14.9233 41.6795 14.9233C41.4794 14.8997 41.2826 14.8829 41.0825 14.8695C41.0486 14.8695 41.0113 14.8628 40.974 14.8594C40.7874 14.8459 40.6042 14.8359 40.4177 14.8325C39.4137 14.7888 38.4096 14.8224 37.4158 14.9334C37.2326 14.9535 37.0529 14.9737 36.8731 15.0006C36.7442 15.0174 36.6187 15.0342 36.4932 15.0578C36.3405 15.0813 36.1879 15.1049 36.0319 15.1351C35.9098 15.1553 35.7843 15.1788 35.6622 15.2057C35.4078 15.2562 35.1534 15.31 34.899 15.3739C34.7938 15.3974 34.6921 15.4243 34.5903 15.4512C34.4309 15.4916 34.2681 15.5353 34.1086 15.579C33.9967 15.6093 33.8848 15.6429 33.7728 15.6799C33.7152 15.6967 33.6541 15.7135 33.5965 15.7337C33.5117 15.7606 33.4269 15.7875 33.3421 15.8144C33.1725 15.8715 33.0029 15.9287 32.8367 15.9892C32.6908 16.0397 32.5483 16.0935 32.4059 16.1506C32.3482 16.1708 32.2906 16.191 32.2329 16.2179C32.1142 16.2616 31.9955 16.3087 31.8767 16.3625C31.5918 16.4802 31.3069 16.6046 31.0254 16.7391C30.8863 16.803 30.7472 16.8702 30.6115 16.9408C30.4453 17.0215 30.2825 17.109 30.1197 17.193C29.8009 17.3645 29.4888 17.5461 29.1801 17.7344C28.6408 18.0639 28.1151 18.4204 27.6063 18.8003C27.362 18.9853 27.1246 19.1736 26.8872 19.3686C26.8058 19.4359 26.7244 19.5031 26.6463 19.5704C26.548 19.6544 26.4496 19.7385 26.3512 19.8259C26.1681 19.9907 25.9849 20.1588 25.8051 20.3303C25.6966 20.4345 25.5914 20.5388 25.4897 20.643C25.3845 20.7439 25.2862 20.8481 25.1878 20.9524C25.1098 21.0297 25.0352 21.1104 24.9639 21.1911C24.8588 21.3021 24.7536 21.4164 24.6553 21.5307C24.5366 21.6652 24.4178 21.8031 24.3059 21.941C24.272 21.978 24.2381 22.0183 24.2075 22.0587C24.1634 22.1091 24.1227 22.1595 24.082 22.21L27.9048 26.3258C27.9217 26.3022 27.9387 26.2821 27.9556 26.2585C27.9692 26.235 27.9862 26.2148 28.0031 26.1913C28.4407 25.5894 28.9156 25.0379 29.4244 24.5268C29.5227 24.4259 29.6279 24.325 29.733 24.2242C30.0451 23.9283 30.3707 23.6492 30.7031 23.3869C30.927 23.212 31.1543 23.0439 31.3849 22.8825C31.5002 22.8018 31.619 22.7245 31.7343 22.6471C31.9717 22.4924 32.2091 22.3478 32.4534 22.21C32.5178 22.173 32.5823 22.136 32.6501 22.099H32.6535C32.8299 21.9981 33.0097 21.904 33.1928 21.8166C33.3149 21.756 33.4336 21.6989 33.5591 21.6417C33.8034 21.5274 34.051 21.4231 34.2986 21.3256C34.6107 21.2046 34.9261 21.0902 35.2449 20.9894C35.5672 20.8885 35.8894 20.8011 36.215 20.7204C36.2727 20.7069 36.3304 20.6935 36.388 20.68C36.5509 20.643 36.7171 20.6094 36.8799 20.5791C36.9748 20.5623 37.0732 20.5455 37.1682 20.5287C37.2835 20.5085 37.4022 20.4883 37.5176 20.4715C37.6397 20.4547 37.7652 20.4379 37.8873 20.4245C38.0094 20.411 38.1349 20.3976 38.257 20.3841C38.3181 20.3807 38.3757 20.3707 38.4368 20.3673H38.4436C38.949 20.3269 39.4578 20.3135 39.9665 20.3236C40.1022 20.3269 40.2345 20.3337 40.3702 20.3404C40.6246 20.3538 40.879 20.374 41.1334 20.4009C41.2623 20.4144 41.3878 20.4312 41.5133 20.448C41.6422 20.4648 41.7677 20.4816 41.8966 20.5018C42.151 20.5421 42.402 20.5892 42.653 20.6464L42.4257 15.0174H42.4325Z" fill="url(#paint4_linear_223_196)"/>
</g>
</g>
</g>
</g>
<defs>
<linearGradient id="paint0_linear_223_196" x1="62.7103" y1="0.576513" x2="30.181" y2="49.1825" gradientUnits="userSpaceOnUse">
<stop stop-color="#4AA3F5"/>
<stop offset="1" stop-color="#1D6CE9"/>
</linearGradient>
<linearGradient id="paint1_linear_223_196" x1="31.0493" y1="43.0072" x2="31.3893" y2="54.3931" gradientUnits="userSpaceOnUse">
<stop stop-color="#4AA3F5"/>
<stop offset="1" stop-color="#1D6CE9"/>
</linearGradient>
<linearGradient id="paint2_linear_223_196" x1="6.1349" y1="27.4133" x2="54.4866" y2="54.5087" gradientUnits="userSpaceOnUse">
<stop stop-color="#FD8580"/>
<stop offset="1" stop-color="#D85A5C"/>
</linearGradient>
<linearGradient id="paint3_linear_223_196" x1="40.2351" y1="11.8934" x2="30.1" y2="27.0361" gradientUnits="userSpaceOnUse">
<stop stop-color="#FD8580"/>
<stop offset="1" stop-color="#D85A5C"/>
</linearGradient>
<linearGradient id="paint4_linear_223_196" x1="52.3121" y1="-6.38104" x2="19.7828" y2="42.225" gradientUnits="userSpaceOnUse">
<stop stop-color="#4AA3F5"/>
<stop offset="1" stop-color="#1D6CE9"/>
</linearGradient>
</defs>
</svg>
