<svg width="62" height="49" viewBox="0 0 62 49" fill="none" xmlns="http://www.w3.org/2000/svg">
<g id="Group 39938">
<path id="Vector 34" d="M61 23L56 28L51 23" stroke="#FF8B13" stroke-width="1.5" stroke-linecap="round" stroke-linejoin="round"/>
<g id="Mask group">
<mask id="mask0_605_3890" style="mask-type:alpha" maskUnits="userSpaceOnUse" x="3" y="3" width="43" height="43">
<path id="Polygon 3" d="M13.8912 6.125C20.4559 2.33484 28.5441 2.33484 35.1088 6.125C41.6736 9.91516 45.7176 16.9197 45.7176 24.5C45.7176 32.0803 41.6736 39.0848 35.1088 42.875C28.5441 46.6652 20.4559 46.6652 13.8912 42.875C7.32643 39.0848 3.28238 32.0803 3.28238 24.5C3.28238 16.9197 7.32643 9.91516 13.8912 6.125Z" fill="#D9D9D9"/>
</mask>
<g mask="url(#mask0_605_3890)">
<path id="Polygon 4" d="M22 1.44338C23.547 0.550212 25.453 0.550212 27 1.44338L43.2176 10.8066C44.7646 11.6998 45.7176 13.3504 45.7176 15.1368V33.8632C45.7176 35.6496 44.7646 37.3002 43.2176 38.1934L27 47.5566C25.453 48.4498 23.547 48.4498 22 47.5566L5.78238 38.1934C4.23537 37.3002 3.28238 35.6496 3.28238 33.8632V15.1368C3.28238 13.3504 4.23537 11.6998 5.78238 10.8066L22 1.44338Z" fill="#FF8B13"/>
<path id="Union" fill-rule="evenodd" clip-rule="evenodd" d="M24.209 31.85C28.3528 31.85 31.7121 28.4907 31.7121 24.3469C31.7121 20.203 28.3528 16.8438 24.209 16.8438C20.0651 16.8438 16.7059 20.203 16.7059 24.3469C16.7059 28.4907 20.0651 31.85 24.209 31.85ZM37.3798 42.2436C38.0963 43.9915 38.465 45.8648 38.465 47.7566L24.2091 51.3581L9.95312 47.7566C9.95312 45.8648 10.3219 43.9915 11.0383 42.2436C11.7547 40.4958 12.8048 38.9077 14.1286 37.57C15.4524 36.2323 17.0239 35.1711 18.7536 34.4472C20.4832 33.7232 22.3369 33.3506 24.2091 33.3506C26.0812 33.3506 27.935 33.7232 29.6646 34.4472C31.3942 35.1711 32.9657 36.2323 34.2895 37.57C35.6133 38.9077 36.6634 40.4958 37.3798 42.2436Z" fill="#F1F1F1"/>
</g>
</g>
</g>
</svg>
