<svg width="393" height="196" viewBox="0 0 393 196" fill="none" xmlns="http://www.w3.org/2000/svg">
<path d="M-46.0373 195.121C-46.7234 168.935 -48.0643 77.7578 -48.7504 51.5719C-48.4171 51.6861 -48.0835 51.8111 -47.745 51.9199C-44.7253 52.8889 -44.6966 52.7651 -44.8338 49.5601C-44.9708 46.3657 -44.7935 43.1685 -45.1649 39.9749C-45.2889 38.9033 -44.8814 37.9835 -43.5963 37.2118C-43.5113 40.4557 -43.4407 43.3523 -43.3595 46.2486C-43.3105 48.1191 -43.2615 49.9895 -43.1594 51.8532C-43.0323 54.0585 -40.9563 54.3945 -39.6898 54.3345C-38.45 54.2753 -39.2091 52.5518 -39.403 51.6585C-40.4659 46.8787 -41.6558 42.1344 -42.8088 37.373C-43.1074 36.1455 -43.3625 34.9489 -45.0233 34.8053C-46.3315 34.6952 -45.8919 33.1702 -45.6012 33.0824C-43.3759 32.4038 -44.6044 30.8637 -44.7975 29.7992C-45.2526 27.271 -45.7311 24.6684 -48.8565 22.9161C-45.3893 22.868 -44.3087 24.6633 -43.7784 26.8045C-43.4564 28.1116 -43.0454 29.3629 -42.5232 30.5846C-42.3304 31.0287 -41.867 31.2252 -41.4047 30.9777C-40.7953 30.6463 -41.1782 30.2659 -41.4068 29.8815C-41.7911 29.2445 -42.7375 28.911 -42.3883 27.3938C-39.1388 29.8167 -36.3221 32.3901 -33.6427 35.0151C-30.4207 31.5028 -35.3913 29.6865 -35.4267 26.099C-29.5684 32.3094 -26.0076 39.0879 -23.6064 46.5493L-23.8546 37.0742C-24.7628 36.574 -24.9407 38.1241 -25.9227 37.4493C-25.9442 36.0167 -24.8209 35.169 -23.9001 34.3213C-22.8075 33.3194 -22.745 32.2482 -23.5751 31.27C-26.4617 27.8589 -27.5752 22.9788 -32.1721 21.1901C-31.826 20.165 -31.1 20.8305 -30.7155 20.4567C-30.8945 19.5202 -32.131 19.0981 -31.8471 17.3259C-25.2953 23.5715 -21.5914 31.1324 -18.1322 39.3201C-17.5838 37.4768 -17.8854 35.9285 -16.4169 34.8365C-15.8263 36.6339 -17.0867 38.3515 -16.4879 39.6514C-15.759 41.2366 -13.5688 41.2541 -12.1116 42.1678C-10.27 43.3174 -10.4996 40.4517 -9.18607 40.3585C-8.59187 41.0755 -8.9685 41.7485 -9.23444 42.3758C-9.64134 43.317 -9.30718 43.8698 -8.46442 44.3129C-7.37842 44.8888 -7.18155 44.0654 -6.69283 43.4002C-5.6536 41.9879 -5.39352 40.3233 -4.87045 38.732C-4.69755 38.2141 -4.45668 37.0366 -3.95172 37.3977C-2.33891 38.5587 -2.62078 36.9511 -2.91137 36.6378C-4.3311 35.1188 -2.52449 35.1356 -2.07866 35.0705C0.87183 34.6188 1.88992 32.806 1.84919 30.0316C1.83449 29.064 2.01119 28.0808 2.17248 27.1193C2.70412 24.0251 2.60917 20.8082 4.07732 17.8713C4.12552 26.2178 2.25208 34.4276 2.29495 42.7743C4.25761 36.1398 5.13623 29.2075 7.97403 22.8281C8.62566 24.7202 7.41702 26.3776 7.47177 28.2639C8.78463 27.7375 9.28683 26.1628 11.0592 26.095C9.99981 28.5667 7.26663 29.5848 6.67055 32.0497C7.5716 32.8871 8.72502 31.7659 9.84589 33.0628C5.07003 33.1879 5.86749 36.9853 5.07735 39.7708C4.71135 41.0532 4.45283 42.3702 4.18337 43.6767C4.06538 44.2574 3.78444 44.9225 4.7648 45.33C6.39084 43.3355 5.92739 40.4919 7.23328 38.2758C8.38961 39.0958 6.82018 41.014 8.69838 41.1199C9.79223 41.1821 10.8376 40.8178 11.3736 39.7182C11.6415 39.1657 11.8652 38.5555 11.9452 37.9491C12.0829 36.8974 12.5359 36.0887 13.4383 35.557C15.2957 34.4602 15.7371 32.8015 15.5345 30.764C15.3752 29.1585 15.38 27.5112 16.782 25.913C17.3655 28.8657 16.4 31.6665 17.5864 34.0419C22.0319 33.1018 23.1136 28.8381 25.939 26.2559C25.6019 27.2167 25.2699 28.1719 24.7591 29.6185C26.8697 28.4295 28.5112 27.4292 30.2201 26.5663C31.8239 25.7542 33.1774 24.339 35.2981 23.9412C35.1483 24.528 35.1569 24.6508 35.1046 24.6896C33.2557 25.9038 31.3902 27.0971 29.5523 28.3271C29.1282 28.611 28.3923 29.1971 28.454 29.3131C29.6237 31.6622 27.5965 30.9506 26.7157 31.0914C23.1821 31.6545 22.2248 32.5353 21.3615 36.189C22.7769 37.9488 24.6742 33.7011 26.0351 36.6334C27.1259 35.7652 25.9487 33.3361 28.254 33.2704C28.6706 34.9386 27.2611 36.858 28.9229 38.2637C30.1651 39.3114 31.6597 40.2295 33.3126 39.4642C35.0812 38.6424 35.5944 36.8749 35.834 35.0397C36.0157 33.6392 35.252 32.1458 36.0811 30.6428C37.1489 31.5399 36.2269 32.9545 37.6143 33.8487C37.6828 31.788 39.5501 31.2738 40.4309 29.9138C40.6922 29.5166 41.7132 29.2385 41.5067 29.8963C41.2163 30.813 43.3254 31.1909 41.9372 31.6872C40.1161 32.3392 40.0496 34.4747 38.417 35.202C37.9271 35.4181 37.525 36.1345 37.9635 36.8075C38.0913 37.0074 38.3945 37.192 38.6239 37.202C39.6212 37.24 39.348 36.5734 39.3949 35.9251C39.4776 34.8106 40.469 34.8274 41.2185 34.9628C42.3855 35.1729 41.4919 35.838 41.4256 36.3585C41.2088 38.0487 40.96 40.3494 42.3313 41.0354C43.8375 41.7874 43.5908 42.334 42.8857 43.4862C44.4198 43.0663 44.5927 41.7356 45.4303 41.1682C47.3932 39.8279 46.223 42.3453 46.9952 42.5336C48.3462 41.0222 49.2577 36.9715 48.1531 36.2945C46.2362 35.1201 47.0372 34.5804 48.2889 33.7508C49.1216 33.1996 49.1284 32.2421 49.0993 31.3338C49.042 29.5545 48.9314 27.7712 48.9275 25.9959C48.9168 22.1297 48.5056 18.2313 49.6835 13.7725C50.854 19.8115 49.2252 25.3624 50.7731 30.9584C53.0079 27.5949 51.989 23.4771 53.6597 19.5295C54.387 21.2591 54.0175 22.4079 53.9608 23.4949C53.8663 25.3798 53.9855 26.2698 56.3723 25.4532C58.9387 24.5731 61.5329 23.5372 64.3163 23.4215C64.8218 23.3975 65.6503 22.686 65.7809 23.8056C65.8983 24.8293 65.1375 24.8706 64.3477 24.8218C62.3515 24.6869 60.577 25.2842 58.9651 26.396C60.7273 26.3445 62.4103 27.1346 64.1802 26.1578C65.614 25.3662 67.0137 26.9338 66.6041 28.5863C66.1797 30.282 65.7499 31.9778 65.4005 33.6875C65.1687 34.8059 65.4519 35.6488 66.8415 35.6124C68.1513 35.578 70.1299 35.6545 70.0875 34.2385C70.05 32.8063 70.5642 31.6912 70.803 30.4336C70.9857 29.4769 70.9802 28.2524 72.1089 28.0142C73.6668 27.69 72.1733 29.8629 73.4438 29.9579C73.5329 29.9021 73.6118 29.8626 73.6796 29.8074C75.0679 28.7014 73.3632 24.4412 77.4705 26.0502C77.6266 26.1103 78.0087 25.6457 78.2634 25.4037C79.4845 24.222 80.002 22.8233 79.9084 21.0824C79.8389 19.8543 79.4084 18.4698 80.4968 17.3075C81.9478 18.3926 81.1395 20.0769 81.747 21.3016C84.327 19.9292 86.9243 18.8076 89.2223 17.2447C91.2061 15.8932 90.8368 17.0473 91.4893 18.3618C91.928 19.2434 90.4081 21.0212 92.2793 20.8599C95.1448 20.619 94.6771 21.6795 93.6564 23.3961C93.09 24.3468 92.7399 25.4255 92.0661 26.9566C94.0952 25.2991 95.3093 23.6469 96.3484 21.8228C97.6676 19.5048 98.9976 17.1918 100.371 14.9098C100.703 14.3609 101.636 13.3739 101.877 14.2125C102.293 15.6616 103.92 17.3783 101.835 18.9357C101.213 19.4012 100.785 20.1344 100.306 20.7726C95.652 26.9642 92.444 33.856 90.52 41.3558C90.3316 42.0934 90.2068 42.8239 90.9535 43.2589C91.6298 43.653 91.9809 43.0234 92.4937 42.6677C93.2158 42.1622 94.0856 40.995 94.8495 41.4776C96.2906 42.3918 96.7881 41.245 97.4913 40.633C97.9862 40.2029 98.0598 39.3507 99.0204 39.4111C100.664 39.5124 100.76 38.3013 100.915 37.094C101.003 36.3965 100.627 35.4705 101.802 34.9424C102.625 36.461 102.395 38.0766 102.388 39.6116C102.37 41.7833 103.308 42.1919 105.249 41.6651C106.879 41.2213 107.285 40.0769 107.393 38.689C107.569 36.4704 107.601 34.2449 107.788 32.0261C108.032 29.1319 107.864 26.1843 108.748 23.0916C111.01 26.2784 113.372 22.4838 115.72 23.433C115.083 24.3427 114.231 24.3437 113.497 24.5929C109.573 25.931 109.276 26.3613 109.118 30.4939C109.008 33.4273 108.845 36.3568 108.655 39.287C108.61 39.9941 108.226 40.8009 109.373 40.8725C110.265 40.9294 111.234 40.904 111.579 39.8307C111.736 39.34 111.858 38.695 111.671 38.2561C110.359 35.162 113.38 32.9384 112.678 29.3417C114.476 31.8615 114.289 31.6579 115.96 30.1435C118.978 27.4012 121.322 24.329 122.368 20.3336C122.407 20.1775 122.73 20.0995 123.286 19.7587C121.532 28.083 119.481 35.9979 119.181 44.6852C120.239 42.5611 120.323 40.4893 122.122 39.2122C122.699 41.6892 120.763 43.4672 120.776 45.7664C122.593 45.3872 122.594 43.9808 122.921 42.8492C124.246 38.3277 125.518 33.7915 126.854 29.2751C127.206 28.0787 127.627 26.6345 128.804 26.2186C130.303 25.6873 130.47 24.5332 130.85 23.3895C132.199 19.338 133.52 15.2765 134.863 11.2198C135.026 10.7289 135.173 10.0352 135.821 10.168C136.459 10.2957 136.87 10.9427 136.754 11.5981C136.614 12.3719 136.331 13.1494 135.971 13.8486C133.766 18.1418 132.212 22.68 130.825 27.2833C130.614 27.9894 129.999 28.7061 130.823 29.4653C131.936 28.42 132.973 27.3393 134.121 26.3948C135.664 25.1244 137.18 24.0098 139.477 25.0352C141.24 25.8232 142.782 25.5315 142.987 22.9539C143.094 21.5606 143.811 20.237 144.605 19.0343C144.897 18.5989 145.183 17.9176 145.746 18.0686C148.837 18.9074 151.807 18.5622 154.755 17.4261C155.583 17.1049 156.503 17.2252 157.378 17.4804C159.702 18.1468 162.391 18.2689 163.073 21.3473C163.122 21.5707 163.043 21.8241 163.032 22.0169C162.094 22.4104 161.756 21.0984 160.921 21.3609C160.991 23.4073 162.009 25.247 161.628 27.3854C159.221 26.0152 156.865 24.5315 153.312 24.7583C155.743 26.6732 158.363 27.2356 159.768 29.3967C160.112 29.9278 161.107 30.49 160.469 31.1378C159.81 31.8021 159.36 30.9048 158.82 30.443C156.134 28.1497 153.025 27.0546 149.468 27.5328C148.895 27.612 148.426 28.0094 148.311 28.5257C147.8 30.7745 147.476 33.0397 147.768 35.4332C149.215 34.9461 148.252 33.5702 149.231 33.1061C149.62 33.3312 149.969 33.6375 150.377 33.7605C153.143 34.6025 155.456 37.2746 158.955 34.7711C160.864 33.4056 159.335 36.0446 159.858 36.6834C161.072 36.2558 162.184 35.7935 163.204 36.8898C163.494 35.5667 162.866 34.3638 163.821 33.1997C165.435 35.2056 166.262 37.5156 168.036 39.1216C168.909 38.6976 168.505 37.5103 169.539 37.0982C170.078 37.5439 170.1 39.0086 171.24 38.5937C172.433 38.1561 171.236 37.2302 171.453 36.5453C171.605 36.0654 171.525 35.4418 172.225 35.3005C173.601 39.2111 173.583 39.3345 172.276 42.9464C172.117 43.3837 171.636 43.9258 172.112 44.416C172.386 44.6922 172.749 44.533 173.012 44.2159C175.125 41.6792 175.492 34.1132 173.539 31.3568C171.066 27.8761 168.572 24.4119 165.734 21.2081C165.251 20.6646 164.403 20.2269 164.857 18.8567C168.979 22.6365 171.853 27.2137 175.001 31.6715C176.219 29.9497 175.415 27.9439 177.013 26.4956C177.404 28.8277 176.717 30.8725 176.585 32.9348C176.491 34.4347 176.886 35.6971 178.056 36.4151C179.063 37.0358 179.625 37.7323 179.888 38.8324C180.002 39.3 180.199 40.1291 180.811 39.8885C181.908 39.4586 182.028 39.771 181.878 40.7643C181.737 41.6878 182.211 42.4775 183.097 42.5238C184.121 42.5772 183.622 41.6224 183.672 41.0863C183.743 40.3732 184.33 40.4006 184.765 40.1325C187.823 38.2716 188.71 35.3284 187.256 32.0937C187.052 31.6391 186.624 31.1584 187.207 30.6297C188.387 30.5346 188.117 32.2262 189.164 32.3271C189.553 30.6752 189.169 28.8403 190.5 27.3829C191.103 28.2441 190.115 29.1791 191.042 29.7538C191.773 29.4031 191.109 28.0408 192.297 28.0417C193.012 29.1033 191.977 30.2855 192.538 31.3724C194.156 30.6883 194.654 28.7607 196.651 27.8795C195.75 30.315 194.673 32.1079 195.454 34.6758C196.755 38.9627 196.39 39.0739 198.475 40.5701C196.012 37.2548 196.369 33.8122 197.499 30.1622C198.103 28.2105 197.658 25.6659 196.573 24.2879C195.046 22.3546 196.264 22.0874 197.35 21.0054C197.769 22.572 197.462 24.0774 198.716 25.3548C200.008 23.2246 200.394 20.4925 203.299 19.7105C202.01 22.1507 199.203 23.4061 201.404 27.0972C202.597 29.0981 203.909 31.6146 204.334 34.6249C205.125 33.4652 204.753 32.2824 205.621 31.666C207.006 33.4747 204.519 35.5773 206.408 37.9343C206.585 34.1114 206.719 30.8672 206.895 27.6218C207.113 23.7497 209.775 21.2467 212.988 21.8417C213.925 22.015 215.189 24.5221 214.511 24.8714C210.169 27.1243 211.124 30.6181 212.127 34.3459C212.55 33.4043 211.88 32.2186 213.444 31.5306C213.377 34.8693 212.654 38.375 217.383 39.941C215.772 38.0312 215.724 36.3961 216.406 34.7579C216.721 33.9956 216.832 32.9285 217.98 32.8342C219.458 32.7206 218.813 34.1279 219.262 34.7633C219.782 35.509 219.536 36.4834 219.484 37.3725C219.429 38.2937 219.468 39.405 220.573 39.451C221.682 39.5021 221.828 38.3485 221.884 37.4593C222.072 34.4436 221.394 31.5736 219.805 29.0537C218.62 27.1702 218.871 25.5593 219.763 23.814C220.131 26.2696 220.908 28.4686 222.209 30.5362C224.094 33.5297 224.255 33.5789 226.515 30.7817C227.263 29.8583 228.331 28.8998 229.386 29.3427C230.308 29.7304 230.941 30.9384 230.353 32.264C230 33.054 230.141 34.136 231.037 34.1873C231.896 34.2343 232.607 33.2959 232.549 32.3134C232.459 30.7168 232.194 29.1355 232.003 27.5469C231.887 26.5713 231.567 25.5422 232.87 24.6257C232.997 25.6224 233.149 26.3136 233.161 27.0031C233.191 29.3447 233.234 32.0014 234.562 33.6886C236.16 35.7109 238.492 37.0883 238.189 40.1338C239.352 39.606 239.321 41.8636 240.294 41.1696C241.068 40.6146 240.366 39.6757 240.06 38.9778C239.635 37.9996 239.015 37.1014 238.653 36.1055C238.366 35.3215 237.439 34.2923 239.141 33.7932C240.178 33.4879 241.115 32.8644 241.432 34.5941C241.593 35.4723 242.364 36.0136 243.174 36.0191C244.272 36.0278 244.028 34.8684 244.368 34.2124C244.875 33.2312 244.737 31.8283 246.069 31.2159C246.651 32.4894 245.381 33.4265 246.164 34.8285C248.613 31.5235 251.671 28.8658 252.021 24.541C252.114 23.3942 252.286 22.2292 252.609 21.1245C252.819 20.4023 252.573 18.9435 253.904 19.3097C254.923 19.5878 254.312 20.6627 254.118 21.4004C253.891 22.2727 253.642 23.1402 253.253 24.5622C256.236 21.9706 257.7 19.6933 257.645 17.7304C258.705 18.7507 259.911 18.819 261.263 17.9351C260.826 19.9626 260.145 21.8201 260.077 23.7043C259.968 26.6911 258.379 30.0912 261.823 32.4074C261.539 33.1635 260.154 32.9699 260.293 33.9984C260.399 34.7817 261.533 33.7519 261.821 34.7765C259.371 36.2151 260.277 38.4588 260.484 40.6567C260.655 42.5292 260.485 42.5444 263.862 44.5255C263.878 43.3218 263.115 42.0637 264.001 40.6982C264.724 41.6686 264.299 42.9097 265.337 43.4761C266.292 42.7184 265.292 41.3809 266.253 40.6125C267.954 39.2523 267.889 38.8209 266.097 37.7394C265.496 37.3755 264.487 37.4982 264.327 36.2777C266.106 36.2311 267.781 37.5402 269.681 36.0519C269.524 36.9758 269.461 37.4106 269.377 37.8407C269.254 38.4589 269.035 39.2454 269.906 39.3402C270.665 39.422 270.782 38.606 270.948 38.0134C271.337 36.5914 270.997 35.4078 269.894 34.3939C269.391 33.9311 268.713 33.0344 269.988 32.8941C272.389 32.6226 271.867 31.0159 271.776 29.5637C271.662 27.8768 271.448 26.1978 271.351 24.5159C271.155 21.1305 270.129 17.7455 271.366 14.3387C272.916 19.4159 271.977 24.831 273.373 30.1475C274.15 28.6565 274.081 27.0594 274.978 26.116C276.475 26.5314 274.177 28.2601 276.451 28.4572C279.901 28.7572 277.671 26.0081 278.582 24.7756C279.252 25.5228 279.811 26.1445 280.465 26.8814C280.823 24.0858 283.493 24.9303 284.821 23.7672C285.014 23.5963 285.506 24.2733 285.352 24.4966C283.955 26.4851 286.561 29.3742 283.862 31.0706C283.495 31.3048 283.479 31.9149 283.819 32.275C284.487 32.9794 284.629 32.0773 284.995 31.8377C285.65 31.4034 286.495 30.5203 286.974 30.6842C289.833 31.6414 288.595 29.7326 288.466 28.6611C287.849 23.4311 288.013 18.1005 286.205 12.9231C287.73 12.9955 287.859 14.0296 288.145 14.7921C288.717 16.3012 288.887 17.8904 288.951 19.5091C289.086 23.0672 289.584 26.5837 290.224 30.0964C290.572 31.9911 292.665 30.5405 293.181 31.912C293.192 31.9438 293.697 31.46 293.639 31.1085C293.235 28.6806 293.717 26.5288 295.437 24.6816C295.686 24.413 295.628 23.8316 295.659 23.3923C295.893 19.9315 296.192 16.4691 296.325 13.0056C296.58 6.27678 299.818 2.78007 306.478 2.16171C307.015 2.11022 307.574 1.91373 307.888 2.51514C308.236 3.18519 307.977 3.64655 307.348 4.05875C306.871 4.37072 305.604 4.60713 306.603 5.51682C308.683 7.41426 306.504 7.41787 305.607 7.75154C304.578 8.13145 303.372 8.06144 302.462 9.33665C304.428 9.9536 306.491 9.39151 308.733 10.9585C306.609 11.0142 305.162 11.1323 303.722 11.0737C300.229 10.9246 296.738 13.5402 297.305 17.488C297.467 18.6015 297.088 19.7879 297.065 20.9436C297.053 21.6819 296.613 22.7951 297.652 23.0139C298.66 23.2281 299.12 22.2962 299.405 21.3743C299.916 19.7352 299.868 17.8968 301.031 16.3423C301.929 17.4418 301.261 18.3898 301.065 19.2505C300.711 20.7839 300.782 21.6538 302.716 21.4694C305.251 21.2265 306.112 22.9794 306.508 25.06C306.767 26.4222 306.915 27.8087 307.551 29.1076C309.275 27.9822 309.425 26.4007 309.122 24.5904C311.976 26.1574 311.895 28.9617 312.819 31.9002C314.125 27.6412 314.535 23.7587 316.067 20.034C316.985 21.0795 316.432 21.9336 316.277 22.7344C315.587 26.3088 314.962 29.9028 314.08 33.434C313.607 35.3074 314.834 36.2004 315.865 36.9221C316.831 37.5973 318.824 37.5879 319.224 36.5828C320.034 34.5615 320.829 35.4284 322.059 36.6261C321.029 32.0701 320.066 28.0738 319.991 23.9687C321.36 24.981 320.945 26.4465 321.382 27.6703C321.739 28.6771 321.717 28.8381 322.002 28.7397C323.85 28.1191 324.098 29.4388 324.386 30.6826C324.603 31.6342 324.682 32.6215 324.925 33.567C325.174 34.5284 324.459 36.082 325.797 36.325C326.937 36.5357 326.526 34.6748 327.419 34.1915C327.54 34.1242 327.728 34.1727 327.872 34.1689C328.561 35.0707 327.107 36.7131 328.85 37.1381C330.426 37.5192 330.916 36.0732 331.675 35.1442C332.294 34.39 332.837 33.5629 333.49 32.8399C334.567 31.6512 334.511 30.5297 333.614 29.243C331.787 26.617 330.007 23.9469 328.279 21.2542C327.646 20.2707 326.738 19.3587 326.722 17.958C327.994 18.0851 328.264 19.0459 328.724 19.7398C330.643 22.6308 332.521 25.5442 334.387 28.4687C335.16 29.6837 335.844 29.7674 336.815 28.6136C337.544 27.7442 338.24 26.6457 339.908 26.4844C339.352 28.0177 338.251 28.7097 337.498 29.6546C336.936 30.3592 336.182 31.0688 336.952 31.9845C339.201 34.6475 340.321 38.5595 344.512 38.8989C344.579 39.833 343.054 39.1724 343.474 40.1507C344.092 41.5891 347.912 41.7831 348.871 40.5708C351.233 37.5837 350.407 33.9154 351.13 30.5809C351.419 29.231 350.33 26.9012 352.297 26.7373C354.184 26.5809 354.095 29.0486 354.563 30.4642C356.142 35.209 357.578 40.0058 359.067 44.7797C359.065 41.2396 358.534 37.8363 357.997 34.4385C357.582 31.8183 356.504 29.1085 356.854 26.6019C357.711 20.467 356.825 15.105 352.254 10.6685C352.036 10.4549 351.947 10.1097 351.678 9.59799C354.12 9.67305 354.779 13.0676 357.333 12.1451C356.858 13.3233 356.631 14.4363 357.288 15.6972C358.073 17.2114 358.39 18.9304 358.285 20.623C358.089 23.7138 359.616 25.46 362.261 26.5405C363.594 24.1579 363.416 21.2319 365.465 19.2959C365.797 18.9823 366.261 18.1627 366.625 19.0409C367.568 21.2996 369.459 20.2714 370.661 19.9726C372.323 19.56 370.777 18.4882 370.564 17.697C370.523 17.5483 370.548 17.291 370.642 17.219C373.526 15.0257 370.992 14.5039 369.585 13.4605C367.71 12.0711 364.399 11.7567 365.242 7.96982C367.618 9.38354 368.844 12.4264 372.106 12.6778C371.216 9.83475 370.317 7.23792 368.591 5.03172C367.196 3.24469 365.412 2.23794 363.063 2.47061C361.357 2.6383 360.46 3.78483 360.345 5.27988C360.194 7.24645 362.024 5.72787 362.686 6.379C362.801 6.48829 362.848 6.66888 362.977 6.9115C361.815 7.48742 360.552 7.91622 359.528 8.67036C358.388 9.50773 358.737 11.4291 357.308 12.1778C357.201 9.54418 357.839 7.04611 358.815 4.64614C360.387 0.781321 363.982 -0.275474 367.505 2.00128C368.963 2.94172 370.316 4.17901 370.8 5.75997C372.788 12.291 377.289 16.3229 382.921 19.7744C385.412 21.3027 387.105 21.0765 388.917 19.6547C394.957 14.9081 401.691 13.8974 409.024 15.363C416.41 16.838 422.746 20.5545 428.927 24.6279C431.767 26.5001 431.679 26.3954 433.402 23.409C434.936 20.7431 432.671 19.8934 431.356 18.7246C429.708 17.2597 429.426 19.3045 428.647 20.0416C428.485 20.1955 428.209 20.2188 427.349 20.5462C430.372 16.1406 426.763 14.6416 424.631 12.5851C422.521 10.5494 420.256 8.6782 418.084 6.70832C417.647 6.31333 416.915 5.83516 417.399 5.1861C417.97 4.42244 418.683 4.99736 419.259 5.39407C419.617 5.64672 419.94 5.96448 420.236 6.29897C422.618 8.96925 425.549 11.0155 428.159 13.4231C429.698 14.8427 430.855 15.0745 432.672 13.6471C435.888 11.1297 437.563 11.4173 440.483 14.2554L443.84 182.387C442.516 182.481 441.193 182.628 439.867 182.663C279.245 186.877 118.617 191.085 -42.005 195.288C-43.3307 195.323 -44.6594 195.246 -45.9867 195.221L-46.0373 195.121ZM424.939 24.7431C425.709 26.0813 426.454 27.4415 427.266 28.7571C427.616 29.3202 427.706 30.3018 428.614 30.1978C429.331 30.1148 429.848 29.4863 430.118 28.8161C430.468 27.962 429.796 27.5143 429.236 27.0851C422.644 21.9636 415.593 17.8006 407.193 16.4645C401.089 15.4907 395.333 16.2405 390.343 20.1949C389.325 21.0023 387.401 21.5982 387.936 23.3008C388.558 25.2739 390.711 25.1105 392.373 25.4894C392.7 25.5664 393.084 25.3799 393.426 25.4191C396.579 25.7857 399.77 25.9481 402.764 27.1638C400.063 28.0046 397.485 25.9919 394.386 27.0945C396.535 29.3698 398.919 30.4999 401.624 31.044C403.777 31.4742 406.224 32.1374 406.89 34.1842C407.76 36.8781 410.329 37.7252 411.609 39.8254C412.077 40.5939 412.935 40.6142 413.766 40.3892C416.073 39.7673 418.385 39.1612 420.692 38.5339C421.311 38.368 421.911 38.1063 421.902 37.3311C421.896 36.7216 421.373 36.4626 420.949 36.1368C420.089 35.4641 418.739 35.5957 417.8 34.0962C420.622 34.6533 422.8 35.8423 425.208 36.2337C427.161 36.5515 427.848 35.5282 427.544 34.0709C427.172 32.2998 427.059 30.4204 426.004 28.7849C425.276 27.6542 424.556 26.4109 424.939 24.7485L424.939 24.7431ZM-33.2208 41.3572C-33.3502 37.6386 -36.3332 33.5936 -39.1666 32.6197C-40.7149 32.088 -41.686 32.4397 -41.4793 34.2311C-40.8794 39.4348 -39.437 44.4613 -38.0954 49.5065C-37.6814 51.0733 -36.4072 51.1041 -35.1098 51.0059C-33.589 50.8912 -33.0797 49.7922 -33.2816 48.5943C-33.7346 45.943 -33.5737 43.3398 -33.2154 41.3571L-33.2208 41.3572ZM330.459 47.508C332.013 45.8362 332.42 45.4779 333.297 46.2357C334.235 47.0454 335.728 47.6908 335.881 49.0772C336.084 50.9222 337.57 51.7335 338.669 52.6031C339.464 53.2348 340 51.5469 340.661 50.9306C341.706 49.9567 342.775 49.0677 344.12 48.5351C344.779 48.2772 345.585 47.9352 345.285 47.0446C344.609 45.0569 344.166 42.785 342.062 41.776C338.927 40.2752 335.597 39.4533 332.081 39.4866C330.846 39.4976 330.26 39.9407 330.293 41.1859C330.349 43.1257 330.395 45.0657 330.459 47.5133L330.459 47.508ZM365.002 28.6879C366.1 27.8891 367.251 28.2868 368.342 28.2582C369.247 28.2345 370.609 29.386 370.886 27.5605C371.182 25.6168 372.234 23.2577 370.385 21.8408C369.151 20.8892 367.048 20.3346 365.529 21.968C364.094 23.5137 363.099 29.0587 363.981 29.9661C364.101 30.0913 364.243 30.2319 364.399 30.276C365.918 30.7068 367.341 31.5519 369.004 31.3692C369.509 31.3132 370.221 31.439 370.326 30.7678C370.453 29.9141 369.636 29.866 369.078 29.7095C367.763 29.3375 366.25 29.7622 364.997 28.6934L365.002 28.6879ZM393.513 29.7591C397.11 36.4726 402.044 40.7659 409.601 41.4556C405.569 35.8178 399.772 32.7503 393.513 29.7591ZM352.965 30.2707C352.837 30.2474 352.703 30.2241 352.574 30.2008C352.16 33.709 351.698 37.2132 351.348 40.7252C351.07 43.54 352.014 44.7881 354.723 45.4978C356.944 46.0814 357.824 45.2936 357.154 43.1239C355.826 38.8163 354.372 34.5495 352.97 30.2653L352.965 30.2707ZM258.106 22.0874C255.696 24.6907 254.436 27.419 252.979 29.9813C252.414 30.9694 251.728 32.458 253.487 33.0911C255.386 33.7793 258.351 32.6802 258.411 31.2936C258.527 28.4134 258.685 25.5055 258.111 22.0873L258.106 22.0874ZM365.922 49.5682C366.678 49.3291 366.85 49.2123 367.011 49.2295C368.961 49.4244 369.599 48.183 369.532 46.6126C369.436 44.5883 367.854 45.6351 366.884 45.6231C365.92 45.6109 364.95 45.8021 363.995 45.9822C363.152 46.138 362.465 46.5303 362.599 47.575C362.8 49.1633 362.924 50.8339 364.383 51.8385C365.148 52.3693 365.834 53.9449 366.941 52.8571C367.99 51.8296 368.012 50.4493 365.922 49.5682ZM363.526 32.7481C362.472 36.0272 365.203 42.4638 367.727 43.4298C368.508 43.7302 369.229 43.615 369.518 42.8428C370.14 41.1526 370.799 39.285 368.603 38.2302C366.342 37.1397 364.774 35.4481 363.531 32.748L363.526 32.7481ZM119.174 30.5994C119.291 30.1738 119.474 29.661 119.057 29.3725C118.498 28.9807 118.068 29.4625 117.694 29.8093C115.425 31.9008 115.655 34.9805 114.701 37.5884C114.383 38.4631 113.741 39.8115 115.459 40.1034C116.856 40.3395 117.609 39.384 117.854 38.1582C118.358 35.6476 118.739 33.1189 119.174 30.594L119.174 30.5994ZM378.016 33.069C377.429 29.3784 376.299 26.3224 375.275 23.2368C375.102 22.7119 374.718 22.2942 374.106 22.3262C373.435 22.3598 373.268 22.8776 373.224 23.4403C373.092 25.1176 372.955 26.795 372.85 28.4716C372.805 29.2054 372.938 30.218 373.679 30.2253C375.576 30.2558 376.193 32.0205 378.016 33.069ZM338.185 38.5834C339.013 38.4868 340.16 38.5316 339.414 37.3158C338.452 35.7528 337.222 34.3518 336.06 32.9169C335.586 32.3304 334.926 32.3477 334.478 32.937C333.535 34.181 332.018 35.4293 332.195 36.9221C332.345 38.1695 334.283 37.6909 335.401 38.0627C336.304 38.3599 337.291 38.425 338.185 38.5834ZM383.532 43.7269C385.152 42.3048 386.654 41.875 388.052 43.785C388.146 43.9109 388.486 45.517 389.183 44.2367C389.63 43.4228 391.214 42.8679 390.605 42.0068C389.41 40.3108 387.806 38.8662 385.691 38.2798C385.316 38.1774 384.794 38.1804 384.606 38.7468C384.097 40.2735 382.892 41.6474 383.532 43.7269ZM436.406 13.2071C434.772 13.2606 431.669 15.2082 432.05 16.1501C432.648 17.6211 433.913 18.695 435.352 19.3418C436.058 19.6602 438.719 16.077 438.664 14.9822C438.597 13.6737 437.858 13.1102 436.406 13.2071ZM137.019 34.5437C135.711 34.6475 134.731 34.6571 133.771 34.8213C132.864 34.9734 131.937 35.356 132.068 36.497C132.261 38.1712 132.571 39.8369 132.944 41.4795C133.065 42.0219 133.52 42.9351 134.207 42.1149C134.967 41.2126 136.325 40.7973 136.276 39.1194C136.239 37.6926 136.075 36.1246 137.025 34.5436L137.019 34.5437ZM385.085 33.44C387.748 34.2098 387.742 34.2046 388.012 31.6894C388.033 31.4803 388.255 31.1857 388.445 31.1273C390.099 30.6133 388.743 29.8895 388.526 29.3604C388.134 28.4027 387.511 28.8469 386.788 29.1171C385.306 29.6747 385.443 31.6551 383.8 32.1688C382.912 32.4434 381.867 33.4387 382.057 34.6102C382.247 35.755 383.56 35.6404 384.432 35.9705C384.836 36.1257 385.257 36.3286 385.768 35.9302C385.58 35.2399 385.374 34.502 385.08 33.4401L385.085 33.44ZM106.505 52.1833C106.646 50.0405 106.847 47.9656 106.9 45.8893C106.926 44.8512 107.441 42.9553 105.881 43.2047C104.629 43.4033 103.624 45.1142 102.506 46.1542C104.402 47.3505 102.575 48.1952 102.228 49.1829C101.985 49.8685 101.74 50.6877 102.423 51.1404C103.486 51.8399 103.433 50.6541 103.777 50.1531C104.614 48.9386 105.307 49.1718 105.772 50.427C105.984 50.9937 105.916 51.6639 106.511 52.1885L106.505 52.1833ZM-22.6076 35.4586C-21.896 38.4187 -22.4993 41.4239 -21.7639 44.2764C-21.515 45.2324 -22.4933 46.9373 -20.7391 46.9875C-18.8836 47.0405 -19.0982 45.1531 -18.9116 43.9396C-18.7206 42.6885 -19.1768 41.3422 -19.899 40.4145C-21.0901 38.8789 -21.7695 37.148 -22.6075 35.464L-22.6076 35.4586ZM384.495 22.9364C383.503 21.2458 381.069 19.2667 377.872 17.6125C377.299 17.3173 376.677 16.5582 375.992 17.2553C375.489 17.7712 375.948 18.4276 376.123 19.0006C376.794 21.197 380.72 23.0353 384.495 22.9311L384.495 22.9364ZM358.424 52.1337C357.855 49.956 352.99 46.0513 351.48 46.1711C351.315 46.1861 351.092 46.208 350.999 46.3174C349.104 48.4473 353.198 49.1101 352.188 51.2329C351.88 51.8773 353.476 52.1938 353.785 51.8167C355.303 49.9694 356.677 51.158 358.429 52.1335L358.424 52.1337ZM345.175 50.5877C343.728 52.2995 342.303 53.401 341.595 55.0667C340.958 56.57 342.117 56.8712 343.025 57.3769C344.22 58.0408 344.654 57.3235 344.841 56.3293C345.163 54.5882 345.437 52.8376 345.684 51.0824C345.819 50.127 345.494 49.3333 344.392 49.79C342.49 50.5779 340.901 51.7746 339.898 54.3624C341.951 53.0091 342.148 50.3622 345.175 50.5824L345.175 50.5877ZM258.723 39.7455C258.677 36.7627 258.384 36.5939 255.755 38.1281C255.078 38.5201 254.343 38.9351 253.874 39.5303C253.487 40.0164 252.938 41.0041 253.582 41.4097C254.899 42.2308 256.427 43.2282 257.849 43.1963C259.105 43.1688 258.46 41.3086 258.721 40.275C258.764 40.1081 258.717 39.9222 258.717 39.7457L258.723 39.7455ZM275.113 32.8721C275.876 32.7398 276.249 33.1471 276.672 33.4355C278.674 34.7949 279.021 34.62 279.329 32.1413C279.417 31.4384 279.532 30.7455 279.604 30.0431C279.66 29.5229 279.45 29.2236 278.879 29.2011C276.431 29.1048 272.748 34.3245 273.562 36.747C273.707 37.1711 273.868 37.6428 274.395 37.629C275.109 37.6103 275.189 37.0039 275.191 36.4797C275.197 35.2817 275.139 34.0853 275.107 32.8669L275.113 32.8721ZM379.537 38.4625C375.983 42.3257 375.906 43.4508 378.663 45.9883C379.793 47.0282 380.466 46.8876 380.89 45.3844C381.578 42.9385 380.299 40.9239 379.537 38.4625Z" fill="#00172C"/>
</svg>
